<?xml version="1.0" encoding="UTF-8" standalone="no"?>
<!DOCTYPE svg PUBLIC "-//W3C//DTD SVG 1.1//EN"
 "http://www.w3.org/Graphics/SVG/1.1/DTD/svg11.dtd">
<!-- Generated by graphviz version 2.38.0 (20140413.2041)
 -->
<!-- Title: G Pages: 1 -->
<svg width="615pt" height="950pt"
 viewBox="0.00 0.00 615.00 950.00" xmlns="http://www.w3.org/2000/svg" xmlns:xlink="http://www.w3.org/1999/xlink">
<g id="graph0" class="graph" transform="scale(1 1) rotate(0) translate(4 946)">
<title>G</title>
<polygon fill="white" stroke="none" points="-4,4 -4,-946 611,-946 611,4 -4,4"/>
<g id="clust1" class="cluster"><title>cluster_Global</title>
<path fill="none" stroke="gray" d="M20,-8C20,-8 587,-8 587,-8 593,-8 599,-14 599,-20 599,-20 599,-922 599,-922 599,-928 593,-934 587,-934 587,-934 20,-934 20,-934 14,-934 8,-928 8,-922 8,-922 8,-20 8,-20 8,-14 14,-8 20,-8"/>
<text text-anchor="middle" x="303.5" y="-921.2" font-family="Times New Roman,serif" font-size="11.00" fill="gray">Global</text>
</g>
<g id="clust2" class="cluster"><title>cluster_\SmartFactory</title>
<path fill="none" stroke="gray" d="M28,-16C28,-16 579,-16 579,-16 585,-16 591,-22 591,-28 591,-28 591,-850 591,-850 591,-856 585,-862 579,-862 579,-862 28,-862 28,-862 22,-862 16,-856 16,-850 16,-850 16,-28 16,-28 16,-22 22,-16 28,-16"/>
<text text-anchor="middle" x="303.5" y="-849.2" font-family="Times New Roman,serif" font-size="11.00" fill="gray">SmartFactory</text>
</g>
<g id="clust3" class="cluster"><title>cluster_\SmartFactory\Interfaces</title>
<path fill="none" stroke="gray" d="M36,-92C36,-92 315,-92 315,-92 321,-92 327,-98 327,-104 327,-104 327,-638 327,-638 327,-644 321,-650 315,-650 315,-650 36,-650 36,-650 30,-650 24,-644 24,-638 24,-638 24,-104 24,-104 24,-98 30,-92 36,-92"/>
<text text-anchor="middle" x="175.5" y="-637.2" font-family="Times New Roman,serif" font-size="11.00" fill="gray">Interfaces</text>
</g>
<g id="clust4" class="cluster"><title>cluster_\SmartFactory\DatabaseWorkers</title>
<path fill="none" stroke="gray" d="M212,-664C212,-664 538.5,-664 538.5,-664 544.5,-664 550.5,-670 550.5,-676 550.5,-676 550.5,-778 550.5,-778 550.5,-784 544.5,-790 538.5,-790 538.5,-790 212,-790 212,-790 206,-790 200,-784 200,-778 200,-778 200,-676 200,-676 200,-670 206,-664 212,-664"/>
<text text-anchor="middle" x="375.25" y="-777.2" font-family="Times New Roman,serif" font-size="11.00" fill="gray">DatabaseWorkers</text>
</g>
<!-- \\SmartFactory\\Interfaces\\IApiRequestHandler -->
<g id="node1" class="node"><title>\\SmartFactory\\Interfaces\\IApiRequestHandler</title>
<polygon fill="none" stroke="black" points="319,-244 181,-244 181,-208 319,-208 319,-244"/>
<text text-anchor="middle" x="250" y="-223.2" font-family="Courier,monospace" font-size="11.00">IApiRequestHandler</text>
</g>
<!-- \\SmartFactory\\Interfaces\\IDebugProfiler -->
<g id="node2" class="node"><title>\\SmartFactory\\Interfaces\\IDebugProfiler</title>
<polygon fill="none" stroke="black" points="305.5,-136 194.5,-136 194.5,-100 305.5,-100 305.5,-136"/>
<text text-anchor="middle" x="250" y="-115.2" font-family="Courier,monospace" font-size="11.00">IDebugProfiler</text>
</g>
<!-- \\SmartFactory\\Interfaces\\IErrorHandler -->
<g id="node3" class="node"><title>\\SmartFactory\\Interfaces\\IErrorHandler</title>
<polygon fill="none" stroke="black" points="302,-514 198,-514 198,-478 302,-478 302,-514"/>
<text text-anchor="middle" x="250" y="-493.2" font-family="Courier,monospace" font-size="11.00">IErrorHandler</text>
</g>
<!-- \\SmartFactory\\Interfaces\\ISessionManager -->
<g id="node4" class="node"><title>\\SmartFactory\\Interfaces\\ISessionManager</title>
<polygon fill="none" stroke="black" points="309,-622 191,-622 191,-586 309,-586 309,-622"/>
<text text-anchor="middle" x="250" y="-601.2" font-family="Courier,monospace" font-size="11.00">ISessionManager</text>
</g>
<!-- \\SmartFactory\\Interfaces\\ISettingsValidator -->
<g id="node5" class="node"><title>\\SmartFactory\\Interfaces\\ISettingsValidator</title>
<polygon fill="none" stroke="black" points="319,-406 181,-406 181,-370 319,-370 319,-406"/>
<text text-anchor="middle" x="250" y="-385.2" font-family="Courier,monospace" font-size="11.00">ISettingsValidator</text>
</g>
<!-- \\SmartFactory\\Interfaces\\IInitable -->
<g id="node6" class="node"><title>\\SmartFactory\\Interfaces\\IInitable</title>
<polygon fill="none" stroke="black" points="109,-622 32,-622 32,-586 109,-586 109,-622"/>
<text text-anchor="middle" x="70.5" y="-601.2" font-family="Courier,monospace" font-size="11.00">IInitable</text>
</g>
<!-- \\SmartFactory\\Interfaces\\IEventManager -->
<g id="node7" class="node"><title>\\SmartFactory\\Interfaces\\IEventManager</title>
<polygon fill="none" stroke="black" points="302,-460 198,-460 198,-424 302,-424 302,-460"/>
<text text-anchor="middle" x="250" y="-439.2" font-family="Courier,monospace" font-size="11.00">IEventManager</text>
</g>
<!-- \\SmartFactory\\Interfaces\\ISettingsManager -->
<g id="node8" class="node"><title>\\SmartFactory\\Interfaces\\ISettingsManager</title>
<polygon fill="none" stroke="black" points="312.5,-352 187.5,-352 187.5,-316 312.5,-316 312.5,-352"/>
<text text-anchor="middle" x="250" y="-331.2" font-family="Courier,monospace" font-size="11.00">ISettingsManager</text>
</g>
<!-- \\SmartFactory\\Interfaces\\ISettingsManager&#45;&gt;\\SmartFactory\\Interfaces\\IInitable -->
<g id="edge18" class="edge"><title>\\SmartFactory\\Interfaces\\ISettingsManager&#45;&gt;\\SmartFactory\\Interfaces\\IInitable</title>
<path fill="none" stroke="black" d="M192.642,-352.137C188.442,-354.726 184.49,-357.665 181,-361 117.575,-421.609 88.0361,-525.722 76.9788,-575.661"/>
<polygon fill="none" stroke="black" points="73.4921,-575.231 74.8372,-585.74 80.3393,-576.686 73.4921,-575.231"/>
</g>
<!-- \\SmartFactory\\Interfaces\\IRecordsetManager -->
<g id="node9" class="node"><title>\\SmartFactory\\Interfaces\\IRecordsetManager</title>
<polygon fill="none" stroke="black" points="315.5,-190 184.5,-190 184.5,-154 315.5,-154 315.5,-190"/>
<text text-anchor="middle" x="250" y="-169.2" font-family="Courier,monospace" font-size="11.00">IRecordsetManager</text>
</g>
<!-- \\SmartFactory\\Interfaces\\IMessageManager -->
<g id="node10" class="node"><title>\\SmartFactory\\Interfaces\\IMessageManager</title>
<polygon fill="none" stroke="black" points="309,-568 191,-568 191,-532 309,-532 309,-568"/>
<text text-anchor="middle" x="250" y="-547.2" font-family="Courier,monospace" font-size="11.00">IMessageManager</text>
</g>
<!-- \\SmartFactory\\Interfaces\\ILanguageManager -->
<g id="node11" class="node"><title>\\SmartFactory\\Interfaces\\ILanguageManager</title>
<polygon fill="none" stroke="black" points="312.5,-298 187.5,-298 187.5,-262 312.5,-262 312.5,-298"/>
<text text-anchor="middle" x="250" y="-277.2" font-family="Courier,monospace" font-size="11.00">ILanguageManager</text>
</g>
<!-- \\SmartFactory\\DatabaseWorkers\\MSSQL_DBWorker -->
<g id="node12" class="node"><title>\\SmartFactory\\DatabaseWorkers\\MSSQL_DBWorker</title>
<polygon fill="none" stroke="black" points="542.5,-762 431.5,-762 431.5,-726 542.5,-726 542.5,-762"/>
<text text-anchor="middle" x="487" y="-741.2" font-family="Courier,monospace" font-size="11.00">MSSQL_DBWorker</text>
</g>
<!-- \\SmartFactory\\DatabaseWorkers\\DBWorker -->
<g id="node14" class="node"><title>\\SmartFactory\\DatabaseWorkers\\DBWorker</title>
<polygon fill="none" stroke="black" points="292,-708 208,-708 208,-672 292,-672 292,-708"/>
<text text-anchor="start" x="216" y="-693.2" font-family="Courier,monospace" font-size="11.00">«abstract»</text>
<text text-anchor="start" x="222.5" y="-681.2" font-family="Courier,monospace" font-size="11.00">DBWorker</text>
</g>
<!-- \\SmartFactory\\DatabaseWorkers\\MSSQL_DBWorker&#45;&gt;\\SmartFactory\\DatabaseWorkers\\DBWorker -->
<g id="edge10" class="edge"><title>\\SmartFactory\\DatabaseWorkers\\MSSQL_DBWorker&#45;&gt;\\SmartFactory\\DatabaseWorkers\\DBWorker</title>
<path fill="none" stroke="black" d="M431.496,-731.476C392.413,-722.495 340.129,-710.481 301.895,-701.695"/>
<polygon fill="none" stroke="black" points="302.531,-698.25 292.001,-699.422 300.963,-705.072 302.531,-698.25"/>
</g>
<!-- \\SmartFactory\\DatabaseWorkers\\MySQL_DBWorker -->
<g id="node13" class="node"><title>\\SmartFactory\\DatabaseWorkers\\MySQL_DBWorker</title>
<polygon fill="none" stroke="black" points="542.5,-708 431.5,-708 431.5,-672 542.5,-672 542.5,-708"/>
<text text-anchor="middle" x="487" y="-687.2" font-family="Courier,monospace" font-size="11.00">MySQL_DBWorker</text>
</g>
<!-- \\SmartFactory\\DatabaseWorkers\\MySQL_DBWorker&#45;&gt;\\SmartFactory\\DatabaseWorkers\\DBWorker -->
<g id="edge15" class="edge"><title>\\SmartFactory\\DatabaseWorkers\\MySQL_DBWorker&#45;&gt;\\SmartFactory\\DatabaseWorkers\\DBWorker</title>
<path fill="none" stroke="black" d="M431.496,-690C392.58,-690 340.574,-690 302.384,-690"/>
<polygon fill="none" stroke="black" points="302.001,-686.5 292.001,-690 302.001,-693.5 302.001,-686.5"/>
</g>
<!-- \\SmartFactory\\DatabaseWorkers\\DBWorker&#45;&gt;\\SmartFactory\\Interfaces\\IInitable -->
<g id="edge17" class="edge"><title>\\SmartFactory\\DatabaseWorkers\\DBWorker&#45;&gt;\\SmartFactory\\Interfaces\\IInitable</title>
<path fill="none" stroke="black" stroke-dasharray="1,5" d="M207.828,-678.261C198.847,-675.265 189.494,-671.802 181,-668 155.326,-656.506 128.007,-640.546 107.079,-627.44"/>
<polygon fill="none" stroke="black" points="108.845,-624.415 98.5248,-622.019 105.098,-630.328 108.845,-624.415"/>
</g>
<!-- \\SmartFactory\\MessageManager -->
<g id="node15" class="node"><title>\\SmartFactory\\MessageManager</title>
<polygon fill="none" stroke="black" points="542.5,-654 431.5,-654 431.5,-618 542.5,-618 542.5,-654"/>
<text text-anchor="middle" x="487" y="-633.2" font-family="Courier,monospace" font-size="11.00">MessageManager</text>
</g>
<!-- \\SmartFactory\\MessageManager&#45;&gt;\\SmartFactory\\Interfaces\\IInitable -->
<g id="edge2" class="edge"><title>\\SmartFactory\\MessageManager&#45;&gt;\\SmartFactory\\Interfaces\\IInitable</title>
<path fill="none" stroke="black" stroke-dasharray="1,5" d="M431.464,-638.787C370.234,-641.062 268.049,-642.298 181,-631 160.332,-628.317 137.92,-623.198 118.787,-618.131"/>
<polygon fill="none" stroke="black" points="119.676,-614.746 109.108,-615.5 117.839,-621.501 119.676,-614.746"/>
</g>
<!-- \\SmartFactory\\MessageManager&#45;&gt;\\SmartFactory\\Interfaces\\IMessageManager -->
<g id="edge1" class="edge"><title>\\SmartFactory\\MessageManager&#45;&gt;\\SmartFactory\\Interfaces\\IMessageManager</title>
<path fill="none" stroke="black" stroke-dasharray="1,5" d="M431.166,-622.301C417.86,-618.462 403.787,-613.964 391,-609 361.353,-597.492 356.26,-589.457 327,-577 322.829,-575.224 318.498,-573.466 314.113,-571.749"/>
<polygon fill="none" stroke="black" points="315.061,-568.364 304.47,-568.065 312.563,-574.903 315.061,-568.364"/>
</g>
<!-- \\SmartFactory\\RecordsetManager -->
<g id="node16" class="node"><title>\\SmartFactory\\RecordsetManager</title>
<polygon fill="none" stroke="black" points="549.5,-114 424.5,-114 424.5,-78 549.5,-78 549.5,-114"/>
<text text-anchor="middle" x="487" y="-93.2" font-family="Courier,monospace" font-size="11.00">RecordsetManager</text>
</g>
<!-- \\SmartFactory\\RecordsetManager&#45;&gt;\\SmartFactory\\Interfaces\\IRecordsetManager -->
<g id="edge3" class="edge"><title>\\SmartFactory\\RecordsetManager&#45;&gt;\\SmartFactory\\Interfaces\\IRecordsetManager</title>
<path fill="none" stroke="black" stroke-dasharray="1,5" d="M424.261,-112.967C413.153,-116.185 401.706,-119.608 391,-123 382.866,-125.577 345.628,-138.62 311.602,-150.601"/>
<polygon fill="none" stroke="black" points="310.386,-147.318 302.118,-153.942 312.712,-153.92 310.386,-147.318"/>
</g>
<!-- \\SmartFactory\\FactoryBuilder -->
<g id="node17" class="node"><title>\\SmartFactory\\FactoryBuilder</title>
<polygon fill="none" stroke="black" points="542.5,-600 431.5,-600 431.5,-564 542.5,-564 542.5,-600"/>
<text text-anchor="middle" x="487" y="-579.2" font-family="Courier,monospace" font-size="11.00">FactoryBuilder</text>
</g>
<!-- \\SmartFactory\\ConfigSettingsManager -->
<g id="node18" class="node"><title>\\SmartFactory\\ConfigSettingsManager</title>
<polygon fill="none" stroke="black" points="566,-330 408,-330 408,-294 566,-294 566,-330"/>
<text text-anchor="middle" x="487" y="-309.2" font-family="Courier,monospace" font-size="11.00">ConfigSettingsManager</text>
</g>
<!-- \\SmartFactory\\ConfigSettingsManager&#45;&gt;\\SmartFactory\\Interfaces\\ISettingsManager -->
<g id="edge4" class="edge"><title>\\SmartFactory\\ConfigSettingsManager&#45;&gt;\\SmartFactory\\Interfaces\\ISettingsManager</title>
<path fill="none" stroke="black" stroke-dasharray="1,5" d="M407.748,-319.326C380.281,-321.897 349.581,-324.771 322.68,-327.29"/>
<polygon fill="none" stroke="black" points="322.201,-323.819 312.571,-328.236 322.853,-330.789 322.201,-323.819"/>
</g>
<!-- \\SmartFactory\\UserSettingsManager -->
<g id="node19" class="node"><title>\\SmartFactory\\UserSettingsManager</title>
<polygon fill="none" stroke="black" points="559.5,-438 414.5,-438 414.5,-402 559.5,-402 559.5,-438"/>
<text text-anchor="middle" x="487" y="-417.2" font-family="Courier,monospace" font-size="11.00">UserSettingsManager</text>
</g>
<!-- \\SmartFactory\\UserSettingsManager&#45;&gt;\\SmartFactory\\Interfaces\\ISettingsManager -->
<g id="edge5" class="edge"><title>\\SmartFactory\\UserSettingsManager&#45;&gt;\\SmartFactory\\Interfaces\\ISettingsManager</title>
<path fill="none" stroke="black" stroke-dasharray="1,5" d="M416.746,-401.956C407.996,-399.198 399.232,-396.195 391,-393 361.353,-381.492 356.26,-373.457 327,-361 322.829,-359.224 318.498,-357.466 314.113,-355.749"/>
<polygon fill="none" stroke="black" points="315.061,-352.364 304.47,-352.065 312.563,-358.903 315.061,-352.364"/>
</g>
<!-- \\SmartFactory\\ErrorHandler -->
<g id="node20" class="node"><title>\\SmartFactory\\ErrorHandler</title>
<polygon fill="none" stroke="black" points="536,-546 438,-546 438,-510 536,-510 536,-546"/>
<text text-anchor="middle" x="487" y="-525.2" font-family="Courier,monospace" font-size="11.00">ErrorHandler</text>
</g>
<!-- \\SmartFactory\\ErrorHandler&#45;&gt;\\SmartFactory\\Interfaces\\IErrorHandler -->
<g id="edge6" class="edge"><title>\\SmartFactory\\ErrorHandler&#45;&gt;\\SmartFactory\\Interfaces\\IErrorHandler</title>
<path fill="none" stroke="black" stroke-dasharray="1,5" d="M437.877,-521.447C401.56,-516.502 351.466,-509.68 312.283,-504.345"/>
<polygon fill="none" stroke="black" points="312.696,-500.869 302.315,-502.988 311.752,-507.805 312.696,-500.869"/>
</g>
<!-- \\SmartFactory\\SessionManager -->
<g id="node21" class="node"><title>\\SmartFactory\\SessionManager</title>
<polygon fill="none" stroke="black" points="542.5,-834 431.5,-834 431.5,-798 542.5,-798 542.5,-834"/>
<text text-anchor="middle" x="487" y="-813.2" font-family="Courier,monospace" font-size="11.00">SessionManager</text>
</g>
<!-- \\SmartFactory\\SessionManager&#45;&gt;\\SmartFactory\\Interfaces\\ISessionManager -->
<g id="edge8" class="edge"><title>\\SmartFactory\\SessionManager&#45;&gt;\\SmartFactory\\Interfaces\\ISessionManager</title>
<path fill="none" stroke="black" stroke-dasharray="1,5" d="M431.475,-811.95C417.137,-808.714 402.486,-803.22 391,-794 339.531,-752.685 369.045,-710.874 327,-660 316.905,-647.785 303.594,-636.809 290.937,-627.878"/>
<polygon fill="none" stroke="black" points="292.565,-624.753 282.326,-622.032 288.633,-630.545 292.565,-624.753"/>
</g>
<!-- SessionHandler -->
<g id="node28" class="node"><title>SessionHandler</title>
<ellipse fill="none" stroke="black" cx="250" cy="-888" rx="67.6881" ry="18"/>
<text text-anchor="middle" x="250" y="-884.3" font-family="Times New Roman,serif" font-size="14.00" fill="gray">SessionHandler</text>
</g>
<!-- \\SmartFactory\\SessionManager&#45;&gt;SessionHandler -->
<g id="edge7" class="edge"><title>\\SmartFactory\\SessionManager&#45;&gt;SessionHandler</title>
<path fill="none" stroke="black" d="M431.496,-832.699C393.409,-844.368 342.785,-859.879 304.844,-871.503"/>
<polygon fill="none" stroke="black" points="303.531,-868.245 294.995,-874.521 305.582,-874.938 303.531,-868.245"/>
</g>
<!-- \\SmartFactory\\EventManager -->
<g id="node22" class="node"><title>\\SmartFactory\\EventManager</title>
<polygon fill="none" stroke="black" points="536,-492 438,-492 438,-456 536,-456 536,-492"/>
<text text-anchor="middle" x="487" y="-471.2" font-family="Courier,monospace" font-size="11.00">EventManager</text>
</g>
<!-- \\SmartFactory\\EventManager&#45;&gt;\\SmartFactory\\Interfaces\\IEventManager -->
<g id="edge9" class="edge"><title>\\SmartFactory\\EventManager&#45;&gt;\\SmartFactory\\Interfaces\\IEventManager</title>
<path fill="none" stroke="black" stroke-dasharray="1,5" d="M437.877,-467.447C401.56,-462.502 351.466,-455.68 312.283,-450.345"/>
<polygon fill="none" stroke="black" points="312.696,-446.869 302.315,-448.988 311.752,-453.805 312.696,-446.869"/>
</g>
<!-- \\SmartFactory\\ApplicationSettingsManager -->
<g id="node23" class="node"><title>\\SmartFactory\\ApplicationSettingsManager</title>
<polygon fill="none" stroke="black" points="583,-384 391,-384 391,-348 583,-348 583,-384"/>
<text text-anchor="middle" x="487" y="-363.2" font-family="Courier,monospace" font-size="11.00">ApplicationSettingsManager</text>
</g>
<!-- \\SmartFactory\\ApplicationSettingsManager&#45;&gt;\\SmartFactory\\Interfaces\\ISettingsManager -->
<g id="edge11" class="edge"><title>\\SmartFactory\\ApplicationSettingsManager&#45;&gt;\\SmartFactory\\Interfaces\\ISettingsManager</title>
<path fill="none" stroke="black" stroke-dasharray="1,5" d="M390.755,-353.031C368.02,-349.935 344.13,-346.682 322.661,-343.758"/>
<polygon fill="none" stroke="black" points="323.039,-340.277 312.658,-342.396 322.094,-347.213 323.039,-340.277"/>
</g>
<!-- \\SmartFactory\\LanguageManager -->
<g id="node24" class="node"><title>\\SmartFactory\\LanguageManager</title>
<polygon fill="none" stroke="black" points="546,-276 428,-276 428,-240 546,-240 546,-276"/>
<text text-anchor="middle" x="487" y="-255.2" font-family="Courier,monospace" font-size="11.00">LanguageManager</text>
</g>
<!-- \\SmartFactory\\LanguageManager&#45;&gt;\\SmartFactory\\Interfaces\\ILanguageManager -->
<g id="edge12" class="edge"><title>\\SmartFactory\\LanguageManager&#45;&gt;\\SmartFactory\\Interfaces\\ILanguageManager</title>
<path fill="none" stroke="black" stroke-dasharray="1,5" d="M427.91,-263.438C396.131,-266.413 356.483,-270.125 322.781,-273.28"/>
<polygon fill="none" stroke="black" points="322.158,-269.823 312.528,-274.24 322.81,-276.793 322.158,-269.823"/>
</g>
<!-- \\SmartFactory\\JsonApiRequestHandler -->
<g id="node25" class="node"><title>\\SmartFactory\\JsonApiRequestHandler</title>
<polygon fill="none" stroke="black" points="566,-222 408,-222 408,-186 566,-186 566,-222"/>
<text text-anchor="middle" x="487" y="-201.2" font-family="Courier,monospace" font-size="11.00">JsonApiRequestHandler</text>
</g>
<!-- \\SmartFactory\\JsonApiRequestHandler&#45;&gt;\\SmartFactory\\Interfaces\\IApiRequestHandler -->
<g id="edge13" class="edge"><title>\\SmartFactory\\JsonApiRequestHandler&#45;&gt;\\SmartFactory\\Interfaces\\IApiRequestHandler</title>
<path fill="none" stroke="black" stroke-dasharray="1,5" d="M407.748,-211.326C382.518,-213.688 354.56,-216.305 329.324,-218.668"/>
<polygon fill="none" stroke="black" points="328.693,-215.211 319.063,-219.628 329.346,-222.181 328.693,-215.211"/>
</g>
<!-- \\SmartFactory\\XmlApiRequestHandler -->
<g id="node26" class="node"><title>\\SmartFactory\\XmlApiRequestHandler</title>
<polygon fill="none" stroke="black" points="563,-168 411,-168 411,-132 563,-132 563,-168"/>
<text text-anchor="start" x="453" y="-153.2" font-family="Courier,monospace" font-size="11.00">«abstract»</text>
<text text-anchor="start" x="419" y="-141.2" font-family="Courier,monospace" font-size="11.00">XmlApiRequestHandler</text>
</g>
<!-- \\SmartFactory\\XmlApiRequestHandler&#45;&gt;\\SmartFactory\\Interfaces\\IApiRequestHandler -->
<g id="edge14" class="edge"><title>\\SmartFactory\\XmlApiRequestHandler&#45;&gt;\\SmartFactory\\Interfaces\\IApiRequestHandler</title>
<path fill="none" stroke="black" stroke-dasharray="1,5" d="M420.689,-168.006C410.715,-170.916 400.562,-173.971 391,-177 382.866,-179.577 345.628,-192.62 311.602,-204.601"/>
<polygon fill="none" stroke="black" points="310.386,-201.318 302.118,-207.942 312.712,-207.92 310.386,-201.318"/>
</g>
<!-- \\SmartFactory\\DebugProfiler -->
<g id="node27" class="node"><title>\\SmartFactory\\DebugProfiler</title>
<polygon fill="none" stroke="black" points="539,-60 435,-60 435,-24 539,-24 539,-60"/>
<text text-anchor="middle" x="487" y="-39.2" font-family="Courier,monospace" font-size="11.00">DebugProfiler</text>
</g>
<!-- \\SmartFactory\\DebugProfiler&#45;&gt;\\SmartFactory\\Interfaces\\IDebugProfiler -->
<g id="edge16" class="edge"><title>\\SmartFactory\\DebugProfiler&#45;&gt;\\SmartFactory\\Interfaces\\IDebugProfiler</title>
<path fill="none" stroke="black" stroke-dasharray="1,5" d="M434.557,-56.0147C420.391,-60.0385 405.057,-64.5468 391,-69 364.235,-77.479 334.875,-87.6234 309.984,-96.4768"/>
<polygon fill="none" stroke="black" points="308.564,-93.2672 300.325,-99.9273 310.919,-99.8593 308.564,-93.2672"/>
</g>
</g>
</svg>
