<?xml version="1.0" encoding="UTF-8" standalone="no"?>
<!DOCTYPE svg PUBLIC "-//W3C//DTD SVG 1.1//EN"
 "http://www.w3.org/Graphics/SVG/1.1/DTD/svg11.dtd">
<!-- Generated by graphviz version 2.38.0 (20140413.2041)
 -->
<!-- Title: G Pages: 1 -->
<svg width="615pt" height="960pt"
 viewBox="0.00 0.00 615.00 960.00" xmlns="http://www.w3.org/2000/svg" xmlns:xlink="http://www.w3.org/1999/xlink">
<g id="graph0" class="graph" transform="scale(1 1) rotate(0) translate(4 956)">
<title>G</title>
<polygon fill="white" stroke="none" points="-4,4 -4,-956 611,-956 611,4 -4,4"/>
<g id="clust1" class="cluster"><title>cluster_Global</title>
<path fill="none" stroke="gray" d="M20,-8C20,-8 587,-8 587,-8 593,-8 599,-14 599,-20 599,-20 599,-932 599,-932 599,-938 593,-944 587,-944 587,-944 20,-944 20,-944 14,-944 8,-938 8,-932 8,-932 8,-20 8,-20 8,-14 14,-8 20,-8"/>
<text text-anchor="middle" x="303.5" y="-931.2" font-family="Times New Roman,serif" font-size="11.00" fill="gray">Global</text>
</g>
<g id="clust2" class="cluster"><title>cluster_\SmartFactory</title>
<path fill="none" stroke="gray" d="M28,-16C28,-16 579,-16 579,-16 585,-16 591,-22 591,-28 591,-28 591,-860 591,-860 591,-866 585,-872 579,-872 579,-872 28,-872 28,-872 22,-872 16,-866 16,-860 16,-860 16,-28 16,-28 16,-22 22,-16 28,-16"/>
<text text-anchor="middle" x="303.5" y="-859.2" font-family="Times New Roman,serif" font-size="11.00" fill="gray">SmartFactory</text>
</g>
<g id="clust3" class="cluster"><title>cluster_\SmartFactory\DatabaseWorkers</title>
<path fill="none" stroke="gray" d="M212,-718C212,-718 538.5,-718 538.5,-718 544.5,-718 550.5,-724 550.5,-730 550.5,-730 550.5,-832 550.5,-832 550.5,-838 544.5,-844 538.5,-844 538.5,-844 212,-844 212,-844 206,-844 200,-838 200,-832 200,-832 200,-730 200,-730 200,-724 206,-718 212,-718"/>
<text text-anchor="middle" x="375.25" y="-831.2" font-family="Times New Roman,serif" font-size="11.00" fill="gray">DatabaseWorkers</text>
</g>
<g id="clust4" class="cluster"><title>cluster_\SmartFactory\Interfaces</title>
<path fill="none" stroke="gray" d="M36,-70C36,-70 315,-70 315,-70 321,-70 327,-76 327,-82 327,-82 327,-616 327,-616 327,-622 321,-628 315,-628 315,-628 36,-628 36,-628 30,-628 24,-622 24,-616 24,-616 24,-82 24,-82 24,-76 30,-70 36,-70"/>
<text text-anchor="middle" x="175.5" y="-615.2" font-family="Times New Roman,serif" font-size="11.00" fill="gray">Interfaces</text>
</g>
<!-- \\SmartFactory\\DatabaseWorkers\\DBWorker -->
<g id="node1" class="node"><title>\\SmartFactory\\DatabaseWorkers\\DBWorker</title>
<polygon fill="none" stroke="black" points="292,-762 208,-762 208,-726 292,-726 292,-762"/>
<text text-anchor="start" x="216" y="-747.2" font-family="Courier,monospace" font-size="11.00">«abstract»</text>
<text text-anchor="start" x="222.5" y="-735.2" font-family="Courier,monospace" font-size="11.00">DBWorker</text>
</g>
<!-- \\SmartFactory\\Interfaces\\IInitable -->
<g id="node8" class="node"><title>\\SmartFactory\\Interfaces\\IInitable</title>
<polygon fill="none" stroke="black" points="109,-276 32,-276 32,-240 109,-240 109,-276"/>
<text text-anchor="middle" x="70.5" y="-255.2" font-family="Courier,monospace" font-size="11.00">IInitable</text>
</g>
<!-- \\SmartFactory\\DatabaseWorkers\\DBWorker&#45;&gt;\\SmartFactory\\Interfaces\\IInitable -->
<g id="edge3" class="edge"><title>\\SmartFactory\\DatabaseWorkers\\DBWorker&#45;&gt;\\SmartFactory\\Interfaces\\IInitable</title>
<path fill="none" stroke="black" stroke-dasharray="1,5" d="M235.884,-725.792C220.884,-704.275 196.417,-666.969 181,-632 126.432,-508.227 90.3091,-349.665 77.1039,-286.149"/>
<polygon fill="none" stroke="black" points="80.4816,-285.197 75.0431,-276.105 73.6245,-286.604 80.4816,-285.197"/>
</g>
<!-- \\SmartFactory\\DatabaseWorkers\\MSSQL_DBWorker -->
<g id="node2" class="node"><title>\\SmartFactory\\DatabaseWorkers\\MSSQL_DBWorker</title>
<polygon fill="none" stroke="black" points="542.5,-816 431.5,-816 431.5,-780 542.5,-780 542.5,-816"/>
<text text-anchor="middle" x="487" y="-795.2" font-family="Courier,monospace" font-size="11.00">MSSQL_DBWorker</text>
</g>
<!-- \\SmartFactory\\DatabaseWorkers\\MSSQL_DBWorker&#45;&gt;\\SmartFactory\\DatabaseWorkers\\DBWorker -->
<g id="edge4" class="edge"><title>\\SmartFactory\\DatabaseWorkers\\MSSQL_DBWorker&#45;&gt;\\SmartFactory\\DatabaseWorkers\\DBWorker</title>
<path fill="none" stroke="black" d="M431.496,-785.476C392.413,-776.495 340.129,-764.481 301.895,-755.695"/>
<polygon fill="none" stroke="black" points="302.531,-752.25 292.001,-753.422 300.963,-759.072 302.531,-752.25"/>
</g>
<!-- \\SmartFactory\\DatabaseWorkers\\MySQL_DBWorker -->
<g id="node3" class="node"><title>\\SmartFactory\\DatabaseWorkers\\MySQL_DBWorker</title>
<polygon fill="none" stroke="black" points="542.5,-762 431.5,-762 431.5,-726 542.5,-726 542.5,-762"/>
<text text-anchor="middle" x="487" y="-741.2" font-family="Courier,monospace" font-size="11.00">MySQL_DBWorker</text>
</g>
<!-- \\SmartFactory\\DatabaseWorkers\\MySQL_DBWorker&#45;&gt;\\SmartFactory\\DatabaseWorkers\\DBWorker -->
<g id="edge5" class="edge"><title>\\SmartFactory\\DatabaseWorkers\\MySQL_DBWorker&#45;&gt;\\SmartFactory\\DatabaseWorkers\\DBWorker</title>
<path fill="none" stroke="black" d="M431.496,-744C392.58,-744 340.574,-744 302.384,-744"/>
<polygon fill="none" stroke="black" points="302.001,-740.5 292.001,-744 302.001,-747.5 302.001,-740.5"/>
</g>
<!-- \\SmartFactory\\Interfaces\\IApiRequestHandler -->
<g id="node4" class="node"><title>\\SmartFactory\\Interfaces\\IApiRequestHandler</title>
<polygon fill="none" stroke="black" points="319,-438 181,-438 181,-402 319,-402 319,-438"/>
<text text-anchor="middle" x="250" y="-417.2" font-family="Courier,monospace" font-size="11.00">IApiRequestHandler</text>
</g>
<!-- \\SmartFactory\\Interfaces\\IDebugProfiler -->
<g id="node5" class="node"><title>\\SmartFactory\\Interfaces\\IDebugProfiler</title>
<polygon fill="none" stroke="black" points="305.5,-222 194.5,-222 194.5,-186 305.5,-186 305.5,-222"/>
<text text-anchor="middle" x="250" y="-201.2" font-family="Courier,monospace" font-size="11.00">IDebugProfiler</text>
</g>
<!-- \\SmartFactory\\Interfaces\\IErrorHandler -->
<g id="node6" class="node"><title>\\SmartFactory\\Interfaces\\IErrorHandler</title>
<polygon fill="none" stroke="black" points="302,-546 198,-546 198,-510 302,-510 302,-546"/>
<text text-anchor="middle" x="250" y="-525.2" font-family="Courier,monospace" font-size="11.00">IErrorHandler</text>
</g>
<!-- \\SmartFactory\\Interfaces\\IEventManager -->
<g id="node7" class="node"><title>\\SmartFactory\\Interfaces\\IEventManager</title>
<polygon fill="none" stroke="black" points="302,-492 198,-492 198,-456 302,-456 302,-492"/>
<text text-anchor="middle" x="250" y="-471.2" font-family="Courier,monospace" font-size="11.00">IEventManager</text>
</g>
<!-- \\SmartFactory\\Interfaces\\ILanguageManager -->
<g id="node9" class="node"><title>\\SmartFactory\\Interfaces\\ILanguageManager</title>
<polygon fill="none" stroke="black" points="312.5,-384 187.5,-384 187.5,-348 312.5,-348 312.5,-384"/>
<text text-anchor="middle" x="250" y="-363.2" font-family="Courier,monospace" font-size="11.00">ILanguageManager</text>
</g>
<!-- \\SmartFactory\\Interfaces\\IMessageManager -->
<g id="node10" class="node"><title>\\SmartFactory\\Interfaces\\IMessageManager</title>
<polygon fill="none" stroke="black" points="309,-168 191,-168 191,-132 309,-132 309,-168"/>
<text text-anchor="middle" x="250" y="-147.2" font-family="Courier,monospace" font-size="11.00">IMessageManager</text>
</g>
<!-- \\SmartFactory\\Interfaces\\IRecordsetManager -->
<g id="node11" class="node"><title>\\SmartFactory\\Interfaces\\IRecordsetManager</title>
<polygon fill="none" stroke="black" points="315.5,-330 184.5,-330 184.5,-294 315.5,-294 315.5,-330"/>
<text text-anchor="middle" x="250" y="-309.2" font-family="Courier,monospace" font-size="11.00">IRecordsetManager</text>
</g>
<!-- \\SmartFactory\\Interfaces\\ISessionManager -->
<g id="node12" class="node"><title>\\SmartFactory\\Interfaces\\ISessionManager</title>
<polygon fill="none" stroke="black" points="309,-600 191,-600 191,-564 309,-564 309,-600"/>
<text text-anchor="middle" x="250" y="-579.2" font-family="Courier,monospace" font-size="11.00">ISessionManager</text>
</g>
<!-- \\SmartFactory\\Interfaces\\ISettingsManager -->
<g id="node13" class="node"><title>\\SmartFactory\\Interfaces\\ISettingsManager</title>
<polygon fill="none" stroke="black" points="312.5,-276 187.5,-276 187.5,-240 312.5,-240 312.5,-276"/>
<text text-anchor="middle" x="250" y="-255.2" font-family="Courier,monospace" font-size="11.00">ISettingsManager</text>
</g>
<!-- \\SmartFactory\\Interfaces\\ISettingsManager&#45;&gt;\\SmartFactory\\Interfaces\\IInitable -->
<g id="edge18" class="edge"><title>\\SmartFactory\\Interfaces\\ISettingsManager&#45;&gt;\\SmartFactory\\Interfaces\\IInitable</title>
<path fill="none" stroke="black" d="M187.417,-258C165.146,-258 140.349,-258 119.424,-258"/>
<polygon fill="none" stroke="black" points="119.181,-254.5 109.181,-258 119.18,-261.5 119.181,-254.5"/>
</g>
<!-- \\SmartFactory\\Interfaces\\ISettingsValidator -->
<g id="node14" class="node"><title>\\SmartFactory\\Interfaces\\ISettingsValidator</title>
<polygon fill="none" stroke="black" points="319,-114 181,-114 181,-78 319,-78 319,-114"/>
<text text-anchor="middle" x="250" y="-93.2" font-family="Courier,monospace" font-size="11.00">ISettingsValidator</text>
</g>
<!-- \\SmartFactory\\ApplicationSettingsManager -->
<g id="node15" class="node"><title>\\SmartFactory\\ApplicationSettingsManager</title>
<polygon fill="none" stroke="black" points="583,-222 391,-222 391,-186 583,-186 583,-222"/>
<text text-anchor="middle" x="487" y="-201.2" font-family="Courier,monospace" font-size="11.00">ApplicationSettingsManager</text>
</g>
<!-- \\SmartFactory\\ApplicationSettingsManager&#45;&gt;\\SmartFactory\\Interfaces\\ISettingsManager -->
<g id="edge1" class="edge"><title>\\SmartFactory\\ApplicationSettingsManager&#45;&gt;\\SmartFactory\\Interfaces\\ISettingsManager</title>
<path fill="none" stroke="black" stroke-dasharray="1,5" d="M407.422,-222.056C380.091,-228.337 349.593,-235.345 322.836,-241.493"/>
<polygon fill="none" stroke="black" points="321.741,-238.153 312.779,-243.804 323.309,-244.976 321.741,-238.153"/>
</g>
<!-- \\SmartFactory\\ConfigSettingsManager -->
<g id="node16" class="node"><title>\\SmartFactory\\ConfigSettingsManager</title>
<polygon fill="none" stroke="black" points="566,-168 408,-168 408,-132 566,-132 566,-168"/>
<text text-anchor="middle" x="487" y="-147.2" font-family="Courier,monospace" font-size="11.00">ConfigSettingsManager</text>
</g>
<!-- \\SmartFactory\\ConfigSettingsManager&#45;&gt;\\SmartFactory\\Interfaces\\ISettingsManager -->
<g id="edge2" class="edge"><title>\\SmartFactory\\ConfigSettingsManager&#45;&gt;\\SmartFactory\\Interfaces\\ISettingsManager</title>
<path fill="none" stroke="black" stroke-dasharray="1,5" d="M410.663,-168.158C403.862,-170.762 397.206,-173.698 391,-177 358.143,-194.478 359.277,-212.472 327,-231 324.146,-232.638 321.176,-234.203 318.135,-235.694"/>
<polygon fill="none" stroke="black" points="316.479,-232.603 308.843,-239.947 319.392,-238.968 316.479,-232.603"/>
</g>
<!-- \\SmartFactory\\DebugProfiler -->
<g id="node17" class="node"><title>\\SmartFactory\\DebugProfiler</title>
<polygon fill="none" stroke="black" points="539,-114 435,-114 435,-78 539,-78 539,-114"/>
<text text-anchor="middle" x="487" y="-93.2" font-family="Courier,monospace" font-size="11.00">DebugProfiler</text>
</g>
<!-- \\SmartFactory\\DebugProfiler&#45;&gt;\\SmartFactory\\Interfaces\\IDebugProfiler -->
<g id="edge6" class="edge"><title>\\SmartFactory\\DebugProfiler&#45;&gt;\\SmartFactory\\Interfaces\\IDebugProfiler</title>
<path fill="none" stroke="black" stroke-dasharray="1,5" d="M434.663,-106.329C420.06,-110.386 404.473,-115.833 391,-123 358.143,-140.478 359.277,-158.472 327,-177 323.139,-179.217 319.064,-181.299 314.889,-183.246"/>
<polygon fill="none" stroke="black" points="313.391,-180.081 305.631,-187.294 316.196,-186.495 313.391,-180.081"/>
</g>
<!-- \\SmartFactory\\ErrorHandler -->
<g id="node18" class="node"><title>\\SmartFactory\\ErrorHandler</title>
<polygon fill="none" stroke="black" points="536,-654 438,-654 438,-618 536,-618 536,-654"/>
<text text-anchor="middle" x="487" y="-633.2" font-family="Courier,monospace" font-size="11.00">ErrorHandler</text>
</g>
<!-- \\SmartFactory\\ErrorHandler&#45;&gt;\\SmartFactory\\Interfaces\\IErrorHandler -->
<g id="edge7" class="edge"><title>\\SmartFactory\\ErrorHandler&#45;&gt;\\SmartFactory\\Interfaces\\IErrorHandler</title>
<path fill="none" stroke="black" stroke-dasharray="1,5" d="M437.602,-626.472C422.171,-622.34 405.381,-616.65 391,-609 358.143,-591.522 359.277,-573.528 327,-555 322.142,-552.212 316.947,-549.635 311.639,-547.273"/>
<polygon fill="none" stroke="black" points="312.586,-543.876 302.01,-543.253 309.889,-550.335 312.586,-543.876"/>
</g>
<!-- \\SmartFactory\\EventManager -->
<g id="node19" class="node"><title>\\SmartFactory\\EventManager</title>
<polygon fill="none" stroke="black" points="536,-600 438,-600 438,-564 536,-564 536,-600"/>
<text text-anchor="middle" x="487" y="-579.2" font-family="Courier,monospace" font-size="11.00">EventManager</text>
</g>
<!-- \\SmartFactory\\EventManager&#45;&gt;\\SmartFactory\\Interfaces\\IEventManager -->
<g id="edge8" class="edge"><title>\\SmartFactory\\EventManager&#45;&gt;\\SmartFactory\\Interfaces\\IEventManager</title>
<path fill="none" stroke="black" stroke-dasharray="1,5" d="M437.602,-572.472C422.171,-568.34 405.381,-562.65 391,-555 358.143,-537.522 359.277,-519.528 327,-501 322.142,-498.212 316.947,-495.635 311.639,-493.273"/>
<polygon fill="none" stroke="black" points="312.586,-489.876 302.01,-489.253 309.889,-496.335 312.586,-489.876"/>
</g>
<!-- \\SmartFactory\\FactoryBuilder -->
<g id="node20" class="node"><title>\\SmartFactory\\FactoryBuilder</title>
<polygon fill="none" stroke="black" points="542.5,-438 431.5,-438 431.5,-402 542.5,-402 542.5,-438"/>
<text text-anchor="middle" x="487" y="-417.2" font-family="Courier,monospace" font-size="11.00">FactoryBuilder</text>
</g>
<!-- \\SmartFactory\\JsonApiRequestHandler -->
<g id="node21" class="node"><title>\\SmartFactory\\JsonApiRequestHandler</title>
<polygon fill="none" stroke="black" points="566,-492 408,-492 408,-456 566,-456 566,-492"/>
<text text-anchor="middle" x="487" y="-471.2" font-family="Courier,monospace" font-size="11.00">JsonApiRequestHandler</text>
</g>
<!-- \\SmartFactory\\JsonApiRequestHandler&#45;&gt;\\SmartFactory\\Interfaces\\IApiRequestHandler -->
<g id="edge9" class="edge"><title>\\SmartFactory\\JsonApiRequestHandler&#45;&gt;\\SmartFactory\\Interfaces\\IApiRequestHandler</title>
<path fill="none" stroke="black" stroke-dasharray="1,5" d="M407.748,-456.019C382.406,-450.195 354.311,-443.74 328.988,-437.921"/>
<polygon fill="none" stroke="black" points="329.593,-434.468 319.063,-435.64 328.025,-441.291 329.593,-434.468"/>
</g>
<!-- \\SmartFactory\\LanguageManager -->
<g id="node22" class="node"><title>\\SmartFactory\\LanguageManager</title>
<polygon fill="none" stroke="black" points="546,-384 428,-384 428,-348 546,-348 546,-384"/>
<text text-anchor="middle" x="487" y="-363.2" font-family="Courier,monospace" font-size="11.00">LanguageManager</text>
</g>
<!-- \\SmartFactory\\LanguageManager&#45;&gt;\\SmartFactory\\Interfaces\\ILanguageManager -->
<g id="edge10" class="edge"><title>\\SmartFactory\\LanguageManager&#45;&gt;\\SmartFactory\\Interfaces\\ILanguageManager</title>
<path fill="none" stroke="black" stroke-dasharray="1,5" d="M427.91,-366C396.131,-366 356.483,-366 322.781,-366"/>
<polygon fill="none" stroke="black" points="322.528,-362.5 312.528,-366 322.528,-369.5 322.528,-362.5"/>
</g>
<!-- \\SmartFactory\\MessageManager -->
<g id="node23" class="node"><title>\\SmartFactory\\MessageManager</title>
<polygon fill="none" stroke="black" points="542.5,-60 431.5,-60 431.5,-24 542.5,-24 542.5,-60"/>
<text text-anchor="middle" x="487" y="-39.2" font-family="Courier,monospace" font-size="11.00">MessageManager</text>
</g>
<!-- \\SmartFactory\\MessageManager&#45;&gt;\\SmartFactory\\Interfaces\\IInitable -->
<g id="edge12" class="edge"><title>\\SmartFactory\\MessageManager&#45;&gt;\\SmartFactory\\Interfaces\\IInitable</title>
<path fill="none" stroke="black" stroke-dasharray="1,5" d="M431.386,-32.6251C366.393,-24.471 257.116,-20.5343 181,-69 122.341,-106.35 91.5328,-187.171 78.7744,-230.019"/>
<polygon fill="none" stroke="black" points="75.3624,-229.221 75.9811,-239.797 82.0932,-231.143 75.3624,-229.221"/>
</g>
<!-- \\SmartFactory\\MessageManager&#45;&gt;\\SmartFactory\\Interfaces\\IMessageManager -->
<g id="edge11" class="edge"><title>\\SmartFactory\\MessageManager&#45;&gt;\\SmartFactory\\Interfaces\\IMessageManager</title>
<path fill="none" stroke="black" stroke-dasharray="1,5" d="M431.2,-53.3127C417.621,-57.2537 403.413,-62.3969 391,-69 358.143,-86.4784 359.277,-104.472 327,-123 324.146,-124.638 321.176,-126.203 318.135,-127.694"/>
<polygon fill="none" stroke="black" points="316.479,-124.603 308.843,-131.947 319.392,-130.968 316.479,-124.603"/>
</g>
<!-- \\SmartFactory\\RecordsetManager -->
<g id="node24" class="node"><title>\\SmartFactory\\RecordsetManager</title>
<polygon fill="none" stroke="black" points="549.5,-330 424.5,-330 424.5,-294 549.5,-294 549.5,-330"/>
<text text-anchor="middle" x="487" y="-309.2" font-family="Courier,monospace" font-size="11.00">RecordsetManager</text>
</g>
<!-- \\SmartFactory\\RecordsetManager&#45;&gt;\\SmartFactory\\Interfaces\\IRecordsetManager -->
<g id="edge13" class="edge"><title>\\SmartFactory\\RecordsetManager&#45;&gt;\\SmartFactory\\Interfaces\\IRecordsetManager</title>
<path fill="none" stroke="black" stroke-dasharray="1,5" d="M424.257,-312C394.07,-312 357.492,-312 325.739,-312"/>
<polygon fill="none" stroke="black" points="325.613,-308.5 315.613,-312 325.613,-315.5 325.613,-308.5"/>
</g>
<!-- \\SmartFactory\\SessionManager -->
<g id="node25" class="node"><title>\\SmartFactory\\SessionManager</title>
<polygon fill="none" stroke="black" points="542.5,-708 431.5,-708 431.5,-672 542.5,-672 542.5,-708"/>
<text text-anchor="middle" x="487" y="-687.2" font-family="Courier,monospace" font-size="11.00">SessionManager</text>
</g>
<!-- \\SmartFactory\\SessionManager&#45;&gt;\\SmartFactory\\Interfaces\\ISessionManager -->
<g id="edge15" class="edge"><title>\\SmartFactory\\SessionManager&#45;&gt;\\SmartFactory\\Interfaces\\ISessionManager</title>
<path fill="none" stroke="black" stroke-dasharray="1,5" d="M431.442,-676.993C417.995,-673.11 403.788,-668.418 391,-663 353.554,-647.137 313.67,-623.298 286.09,-605.585"/>
<polygon fill="none" stroke="black" points="287.881,-602.575 277.587,-600.067 284.071,-608.447 287.881,-602.575"/>
</g>
<!-- SessionHandler -->
<g id="node28" class="node"><title>SessionHandler</title>
<ellipse fill="none" stroke="black" cx="250" cy="-898" rx="67.6881" ry="18"/>
<text text-anchor="middle" x="250" y="-894.3" font-family="Times New Roman,serif" font-size="14.00" fill="gray">SessionHandler</text>
</g>
<!-- \\SmartFactory\\SessionManager&#45;&gt;SessionHandler -->
<g id="edge14" class="edge"><title>\\SmartFactory\\SessionManager&#45;&gt;SessionHandler</title>
<path fill="none" stroke="black" d="M431.427,-695.307C417.088,-698.845 402.449,-704.621 391,-714 339.944,-755.824 370.382,-798.261 327,-848 317.226,-859.206 304.362,-868.932 292.003,-876.752"/>
<polygon fill="none" stroke="black" points="289.894,-873.936 283.144,-882.102 293.513,-879.928 289.894,-873.936"/>
</g>
<!-- \\SmartFactory\\UserSettingsManager -->
<g id="node26" class="node"><title>\\SmartFactory\\UserSettingsManager</title>
<polygon fill="none" stroke="black" points="559.5,-276 414.5,-276 414.5,-240 559.5,-240 559.5,-276"/>
<text text-anchor="middle" x="487" y="-255.2" font-family="Courier,monospace" font-size="11.00">UserSettingsManager</text>
</g>
<!-- \\SmartFactory\\UserSettingsManager&#45;&gt;\\SmartFactory\\Interfaces\\ISettingsManager -->
<g id="edge16" class="edge"><title>\\SmartFactory\\UserSettingsManager&#45;&gt;\\SmartFactory\\Interfaces\\ISettingsManager</title>
<path fill="none" stroke="black" stroke-dasharray="1,5" d="M414.215,-258C385.237,-258 351.864,-258 322.876,-258"/>
<polygon fill="none" stroke="black" points="322.82,-254.5 312.82,-258 322.82,-261.5 322.82,-254.5"/>
</g>
<!-- \\SmartFactory\\XmlApiRequestHandler -->
<g id="node27" class="node"><title>\\SmartFactory\\XmlApiRequestHandler</title>
<polygon fill="none" stroke="black" points="563,-546 411,-546 411,-510 563,-510 563,-546"/>
<text text-anchor="start" x="453" y="-531.2" font-family="Courier,monospace" font-size="11.00">«abstract»</text>
<text text-anchor="start" x="419" y="-519.2" font-family="Courier,monospace" font-size="11.00">XmlApiRequestHandler</text>
</g>
<!-- \\SmartFactory\\XmlApiRequestHandler&#45;&gt;\\SmartFactory\\Interfaces\\IApiRequestHandler -->
<g id="edge17" class="edge"><title>\\SmartFactory\\XmlApiRequestHandler&#45;&gt;\\SmartFactory\\Interfaces\\IApiRequestHandler</title>
<path fill="none" stroke="black" stroke-dasharray="1,5" d="M410.663,-509.842C403.862,-507.238 397.206,-504.302 391,-501 358.143,-483.522 359.277,-465.528 327,-447 324.146,-445.362 321.176,-443.797 318.135,-442.306"/>
<polygon fill="none" stroke="black" points="319.392,-439.032 308.843,-438.053 316.479,-445.397 319.392,-439.032"/>
</g>
</g>
</svg>
