<?xml version="1.0" encoding="UTF-8" standalone="no"?>
<!DOCTYPE svg PUBLIC "-//W3C//DTD SVG 1.1//EN"
 "http://www.w3.org/Graphics/SVG/1.1/DTD/svg11.dtd">
<!-- Generated by graphviz version 2.38.0 (20140413.2041)
 -->
<!-- Title: G Pages: 1 -->
<svg width="642pt" height="1050pt"
 viewBox="0.00 0.00 642.00 1050.00" xmlns="http://www.w3.org/2000/svg" xmlns:xlink="http://www.w3.org/1999/xlink">
<g id="graph0" class="graph" transform="scale(1 1) rotate(0) translate(4 1046)">
<title>G</title>
<polygon fill="white" stroke="none" points="-4,4 -4,-1046 638,-1046 638,4 -4,4"/>
<g id="clust1" class="cluster"><title>cluster_Global</title>
<path fill="none" stroke="gray" d="M20,-8C20,-8 614,-8 614,-8 620,-8 626,-14 626,-20 626,-20 626,-1022 626,-1022 626,-1028 620,-1034 614,-1034 614,-1034 20,-1034 20,-1034 14,-1034 8,-1028 8,-1022 8,-1022 8,-20 8,-20 8,-14 14,-8 20,-8"/>
<text text-anchor="middle" x="317" y="-1021.2" font-family="Times New Roman,serif" font-size="11.00" fill="gray">Global</text>
</g>
<g id="clust2" class="cluster"><title>cluster_\SmartFactory</title>
<path fill="none" stroke="gray" d="M28,-16C28,-16 606,-16 606,-16 612,-16 618,-22 618,-28 618,-28 618,-950 618,-950 618,-956 612,-962 606,-962 606,-962 28,-962 28,-962 22,-962 16,-956 16,-950 16,-950 16,-28 16,-28 16,-22 22,-16 28,-16"/>
<text text-anchor="middle" x="317" y="-949.2" font-family="Times New Roman,serif" font-size="11.00" fill="gray">SmartFactory</text>
</g>
<g id="clust3" class="cluster"><title>cluster_\SmartFactory\DatabaseWorkers</title>
<path fill="none" stroke="gray" d="M225.5,-710C225.5,-710 565.5,-710 565.5,-710 571.5,-710 577.5,-716 577.5,-722 577.5,-722 577.5,-878 577.5,-878 577.5,-884 571.5,-890 565.5,-890 565.5,-890 225.5,-890 225.5,-890 219.5,-890 213.5,-884 213.5,-878 213.5,-878 213.5,-722 213.5,-722 213.5,-716 219.5,-710 225.5,-710"/>
<text text-anchor="middle" x="395.5" y="-877.2" font-family="Times New Roman,serif" font-size="11.00" fill="gray">DatabaseWorkers</text>
</g>
<g id="clust4" class="cluster"><title>cluster_\SmartFactory\Interfaces</title>
<path fill="none" stroke="gray" d="M36,-36C36,-36 342,-36 342,-36 348,-36 354,-42 354,-48 354,-48 354,-690 354,-690 354,-696 348,-702 342,-702 342,-702 36,-702 36,-702 30,-702 24,-696 24,-690 24,-690 24,-48 24,-48 24,-42 30,-36 36,-36"/>
<text text-anchor="middle" x="189" y="-689.2" font-family="Times New Roman,serif" font-size="11.00" fill="gray">Interfaces</text>
</g>
<!-- \\SmartFactory\\DatabaseWorkers\\DBWorker -->
<g id="node1" class="node"><title>\\SmartFactory\\DatabaseWorkers\\DBWorker</title>
<polygon fill="none" stroke="black" points="305.5,-808 221.5,-808 221.5,-772 305.5,-772 305.5,-808"/>
<text text-anchor="start" x="229.5" y="-793.2" font-family="Courier,monospace" font-size="11.00">«abstract»</text>
<text text-anchor="start" x="236" y="-781.2" font-family="Courier,monospace" font-size="11.00">DBWorker</text>
</g>
<!-- \\SmartFactory\\Interfaces\\IInitable -->
<g id="node8" class="node"><title>\\SmartFactory\\Interfaces\\IInitable</title>
<polygon fill="none" stroke="black" points="109,-377 32,-377 32,-341 109,-341 109,-377"/>
<text text-anchor="middle" x="70.5" y="-356.2" font-family="Courier,monospace" font-size="11.00">IInitable</text>
</g>
<!-- \\SmartFactory\\DatabaseWorkers\\DBWorker&#45;&gt;\\SmartFactory\\Interfaces\\IInitable -->
<g id="edge3" class="edge"><title>\\SmartFactory\\DatabaseWorkers\\DBWorker&#45;&gt;\\SmartFactory\\Interfaces\\IInitable</title>
<path fill="none" stroke="black" stroke-dasharray="1,5" d="M239.819,-771.869C221.577,-756.19 196.513,-731.999 181,-706 116.722,-598.276 86.2779,-448.884 75.8543,-387.284"/>
<polygon fill="none" stroke="black" points="79.2668,-386.466 74.1903,-377.166 72.3596,-387.602 79.2668,-386.466"/>
</g>
<!-- \\SmartFactory\\DatabaseWorkers\\MSSQL_DBWorker -->
<g id="node2" class="node"><title>\\SmartFactory\\DatabaseWorkers\\MSSQL_DBWorker</title>
<polygon fill="none" stroke="black" points="569.5,-862 458.5,-862 458.5,-826 569.5,-826 569.5,-862"/>
<text text-anchor="middle" x="514" y="-841.2" font-family="Courier,monospace" font-size="11.00">MSSQL_DBWorker</text>
</g>
<!-- \\SmartFactory\\DatabaseWorkers\\MSSQL_DBWorker&#45;&gt;\\SmartFactory\\DatabaseWorkers\\DBWorker -->
<g id="edge4" class="edge"><title>\\SmartFactory\\DatabaseWorkers\\MSSQL_DBWorker&#45;&gt;\\SmartFactory\\DatabaseWorkers\\DBWorker</title>
<path fill="none" stroke="black" d="M458.466,-832.149C415.965,-822.914 357.375,-810.182 315.738,-801.134"/>
<polygon fill="none" stroke="black" points="316.318,-797.679 305.803,-798.975 314.831,-804.519 316.318,-797.679"/>
</g>
<!-- \\SmartFactory\\DatabaseWorkers\\MySQL_DBWorker -->
<g id="node3" class="node"><title>\\SmartFactory\\DatabaseWorkers\\MySQL_DBWorker</title>
<polygon fill="none" stroke="black" points="569.5,-808 458.5,-808 458.5,-772 569.5,-772 569.5,-808"/>
<text text-anchor="middle" x="514" y="-787.2" font-family="Courier,monospace" font-size="11.00">MySQL_DBWorker</text>
</g>
<!-- \\SmartFactory\\DatabaseWorkers\\MySQL_DBWorker&#45;&gt;\\SmartFactory\\DatabaseWorkers\\DBWorker -->
<g id="edge5" class="edge"><title>\\SmartFactory\\DatabaseWorkers\\MySQL_DBWorker&#45;&gt;\\SmartFactory\\DatabaseWorkers\\DBWorker</title>
<path fill="none" stroke="black" d="M458.466,-790C416.055,-790 357.623,-790 316.002,-790"/>
<polygon fill="none" stroke="black" points="315.803,-786.5 305.803,-790 315.803,-793.5 315.803,-786.5"/>
</g>
<!-- \\SmartFactory\\DatabaseWorkers\\ShardManager -->
<g id="node4" class="node"><title>\\SmartFactory\\DatabaseWorkers\\ShardManager</title>
<polygon fill="none" stroke="black" points="563,-754 465,-754 465,-718 563,-718 563,-754"/>
<text text-anchor="middle" x="514" y="-733.2" font-family="Courier,monospace" font-size="11.00">ShardManager</text>
</g>
<!-- \\SmartFactory\\Interfaces\\IShardManager -->
<g id="node16" class="node"><title>\\SmartFactory\\Interfaces\\IShardManager</title>
<polygon fill="none" stroke="black" points="315.5,-620 211.5,-620 211.5,-584 315.5,-584 315.5,-620"/>
<text text-anchor="middle" x="263.5" y="-599.2" font-family="Courier,monospace" font-size="11.00">IShardManager</text>
</g>
<!-- \\SmartFactory\\DatabaseWorkers\\ShardManager&#45;&gt;\\SmartFactory\\Interfaces\\IShardManager -->
<g id="edge6" class="edge"><title>\\SmartFactory\\DatabaseWorkers\\ShardManager&#45;&gt;\\SmartFactory\\Interfaces\\IShardManager</title>
<path fill="none" stroke="black" stroke-dasharray="1,5" d="M464.514,-731.441C448.741,-728.278 431.768,-722.951 418,-714 378.354,-688.223 392.782,-656.059 354,-629 345.426,-623.018 335.501,-618.337 325.447,-614.681"/>
<polygon fill="none" stroke="black" points="326.401,-611.31 315.808,-611.48 324.195,-617.953 326.401,-611.31"/>
</g>
<!-- \\SmartFactory\\Interfaces\\IDebugProfiler -->
<g id="node5" class="node"><title>\\SmartFactory\\Interfaces\\IDebugProfiler</title>
<polygon fill="none" stroke="black" points="319,-404 208,-404 208,-368 319,-368 319,-404"/>
<text text-anchor="middle" x="263.5" y="-383.2" font-family="Courier,monospace" font-size="11.00">IDebugProfiler</text>
</g>
<!-- \\SmartFactory\\Interfaces\\IDebugProfiler&#45;&gt;\\SmartFactory\\Interfaces\\IInitable -->
<g id="edge17" class="edge"><title>\\SmartFactory\\Interfaces\\IDebugProfiler&#45;&gt;\\SmartFactory\\Interfaces\\IInitable</title>
<path fill="none" stroke="black" d="M207.767,-378.263C179.811,-374.311 146.118,-369.548 119.23,-365.747"/>
<polygon fill="none" stroke="black" points="119.675,-362.275 109.284,-364.341 118.695,-369.206 119.675,-362.275"/>
</g>
<!-- \\SmartFactory\\Interfaces\\IErrorHandler -->
<g id="node6" class="node"><title>\\SmartFactory\\Interfaces\\IErrorHandler</title>
<polygon fill="none" stroke="black" points="315.5,-350 211.5,-350 211.5,-314 315.5,-314 315.5,-350"/>
<text text-anchor="middle" x="263.5" y="-329.2" font-family="Courier,monospace" font-size="11.00">IErrorHandler</text>
</g>
<!-- \\SmartFactory\\Interfaces\\IErrorHandler&#45;&gt;\\SmartFactory\\Interfaces\\IInitable -->
<g id="edge18" class="edge"><title>\\SmartFactory\\Interfaces\\IErrorHandler&#45;&gt;\\SmartFactory\\Interfaces\\IInitable</title>
<path fill="none" stroke="black" d="M211.316,-339.236C182.677,-343.284 147.206,-348.298 119.158,-352.263"/>
<polygon fill="none" stroke="black" points="118.599,-348.807 109.187,-353.672 119.579,-355.738 118.599,-348.807"/>
</g>
<!-- \\SmartFactory\\Interfaces\\IEventManager -->
<g id="node7" class="node"><title>\\SmartFactory\\Interfaces\\IEventManager</title>
<polygon fill="none" stroke="black" points="315.5,-296 211.5,-296 211.5,-260 315.5,-260 315.5,-296"/>
<text text-anchor="middle" x="263.5" y="-275.2" font-family="Courier,monospace" font-size="11.00">IEventManager</text>
</g>
<!-- \\SmartFactory\\Interfaces\\IJsonApiRequestHandler -->
<g id="node9" class="node"><title>\\SmartFactory\\Interfaces\\IJsonApiRequestHandler</title>
<polygon fill="none" stroke="black" points="346,-512 181,-512 181,-476 346,-476 346,-512"/>
<text text-anchor="middle" x="263.5" y="-491.2" font-family="Courier,monospace" font-size="11.00">IJsonApiRequestHandler</text>
</g>
<!-- \\SmartFactory\\Interfaces\\ILanguageManager -->
<g id="node10" class="node"><title>\\SmartFactory\\Interfaces\\ILanguageManager</title>
<polygon fill="none" stroke="black" points="326,-242 201,-242 201,-206 326,-206 326,-242"/>
<text text-anchor="middle" x="263.5" y="-221.2" font-family="Courier,monospace" font-size="11.00">ILanguageManager</text>
</g>
<!-- \\SmartFactory\\Interfaces\\ILanguageManager&#45;&gt;\\SmartFactory\\Interfaces\\IInitable -->
<g id="edge19" class="edge"><title>\\SmartFactory\\Interfaces\\ILanguageManager&#45;&gt;\\SmartFactory\\Interfaces\\IInitable</title>
<path fill="none" stroke="black" d="M200.607,-241.112C193.782,-243.982 187.102,-247.265 181,-251 145.192,-272.915 112.065,-308.649 91.8322,-332.961"/>
<polygon fill="none" stroke="black" points="89.0992,-330.774 85.4798,-340.731 94.5188,-335.204 89.0992,-330.774"/>
</g>
<!-- \\SmartFactory\\Interfaces\\IMessageManager -->
<g id="node11" class="node"><title>\\SmartFactory\\Interfaces\\IMessageManager</title>
<polygon fill="none" stroke="black" points="322.5,-134 204.5,-134 204.5,-98 322.5,-98 322.5,-134"/>
<text text-anchor="middle" x="263.5" y="-113.2" font-family="Courier,monospace" font-size="11.00">IMessageManager</text>
</g>
<!-- \\SmartFactory\\Interfaces\\IRecordsetManager -->
<g id="node12" class="node"><title>\\SmartFactory\\Interfaces\\IRecordsetManager</title>
<polygon fill="none" stroke="black" points="329,-566 198,-566 198,-530 329,-530 329,-566"/>
<text text-anchor="middle" x="263.5" y="-545.2" font-family="Courier,monospace" font-size="11.00">IRecordsetManager</text>
</g>
<!-- \\SmartFactory\\Interfaces\\ISessionManager -->
<g id="node13" class="node"><title>\\SmartFactory\\Interfaces\\ISessionManager</title>
<polygon fill="none" stroke="black" points="322.5,-674 204.5,-674 204.5,-638 322.5,-638 322.5,-674"/>
<text text-anchor="middle" x="263.5" y="-653.2" font-family="Courier,monospace" font-size="11.00">ISessionManager</text>
</g>
<!-- \\SmartFactory\\Interfaces\\ISettingsManager -->
<g id="node14" class="node"><title>\\SmartFactory\\Interfaces\\ISettingsManager</title>
<polygon fill="none" stroke="black" points="326,-458 201,-458 201,-422 326,-422 326,-458"/>
<text text-anchor="middle" x="263.5" y="-437.2" font-family="Courier,monospace" font-size="11.00">ISettingsManager</text>
</g>
<!-- \\SmartFactory\\Interfaces\\ISettingsManager&#45;&gt;\\SmartFactory\\Interfaces\\IInitable -->
<g id="edge20" class="edge"><title>\\SmartFactory\\Interfaces\\ISettingsManager&#45;&gt;\\SmartFactory\\Interfaces\\IInitable</title>
<path fill="none" stroke="black" d="M204.698,-421.954C196.673,-419.129 188.585,-416.109 181,-413 158.482,-403.769 134.136,-391.956 114.132,-381.734"/>
<polygon fill="none" stroke="black" points="115.471,-378.486 104.979,-377.014 112.262,-384.708 115.471,-378.486"/>
</g>
<!-- \\SmartFactory\\Interfaces\\ISettingsValidator -->
<g id="node15" class="node"><title>\\SmartFactory\\Interfaces\\ISettingsValidator</title>
<polygon fill="none" stroke="black" points="332.5,-188 194.5,-188 194.5,-152 332.5,-152 332.5,-188"/>
<text text-anchor="middle" x="263.5" y="-167.2" font-family="Courier,monospace" font-size="11.00">ISettingsValidator</text>
</g>
<!-- \\SmartFactory\\Interfaces\\IXmlApiRequestHandler -->
<g id="node17" class="node"><title>\\SmartFactory\\Interfaces\\IXmlApiRequestHandler</title>
<polygon fill="none" stroke="black" points="342.5,-80 184.5,-80 184.5,-44 342.5,-44 342.5,-80"/>
<text text-anchor="middle" x="263.5" y="-59.2" font-family="Courier,monospace" font-size="11.00">IXmlApiRequestHandler</text>
</g>
<!-- \\SmartFactory\\ApplicationSettingsManager -->
<g id="node18" class="node"><title>\\SmartFactory\\ApplicationSettingsManager</title>
<polygon fill="none" stroke="black" points="610,-630 418,-630 418,-594 610,-594 610,-630"/>
<text text-anchor="middle" x="514" y="-609.2" font-family="Courier,monospace" font-size="11.00">ApplicationSettingsManager</text>
</g>
<!-- \\SmartFactory\\ApplicationSettingsManager&#45;&gt;\\SmartFactory\\Interfaces\\ISettingsManager -->
<g id="edge1" class="edge"><title>\\SmartFactory\\ApplicationSettingsManager&#45;&gt;\\SmartFactory\\Interfaces\\ISettingsManager</title>
<path fill="none" stroke="black" stroke-dasharray="1,5" d="M431.456,-593.793C426.685,-591.237 422.148,-588.323 418,-585 371.436,-547.7 400.263,-504.673 354,-467 348.588,-462.593 342.47,-458.905 336.034,-455.819"/>
<polygon fill="none" stroke="black" points="336.995,-452.423 326.424,-451.713 334.245,-458.86 336.995,-452.423"/>
</g>
<!-- \\SmartFactory\\ConfigSettingsManager -->
<g id="node19" class="node"><title>\\SmartFactory\\ConfigSettingsManager</title>
<polygon fill="none" stroke="black" points="593,-576 435,-576 435,-540 593,-540 593,-576"/>
<text text-anchor="middle" x="514" y="-555.2" font-family="Courier,monospace" font-size="11.00">ConfigSettingsManager</text>
</g>
<!-- \\SmartFactory\\ConfigSettingsManager&#45;&gt;\\SmartFactory\\Interfaces\\ISettingsManager -->
<g id="edge2" class="edge"><title>\\SmartFactory\\ConfigSettingsManager&#45;&gt;\\SmartFactory\\Interfaces\\ISettingsManager</title>
<path fill="none" stroke="black" stroke-dasharray="1,5" d="M436.371,-539.99C429.98,-537.369 423.766,-534.387 418,-531 383.316,-510.624 388.519,-487.654 354,-467 348.292,-463.585 342.118,-460.571 335.773,-457.918"/>
<polygon fill="none" stroke="black" points="336.978,-454.631 326.389,-454.283 334.45,-461.159 336.978,-454.631"/>
</g>
<!-- \\SmartFactory\\DebugProfiler -->
<g id="node20" class="node"><title>\\SmartFactory\\DebugProfiler</title>
<polygon fill="none" stroke="black" points="566,-522 462,-522 462,-486 566,-486 566,-522"/>
<text text-anchor="middle" x="514" y="-501.2" font-family="Courier,monospace" font-size="11.00">DebugProfiler</text>
</g>
<!-- \\SmartFactory\\DebugProfiler&#45;&gt;\\SmartFactory\\Interfaces\\IDebugProfiler -->
<g id="edge7" class="edge"><title>\\SmartFactory\\DebugProfiler&#45;&gt;\\SmartFactory\\Interfaces\\IDebugProfiler</title>
<path fill="none" stroke="black" stroke-dasharray="1,5" d="M461.753,-494.525C446.997,-490.474 431.305,-484.817 418,-477 383.316,-456.624 388.519,-433.654 354,-413 346.227,-408.349 337.589,-404.443 328.833,-401.177"/>
<polygon fill="none" stroke="black" points="329.915,-397.848 319.321,-397.881 327.623,-404.462 329.915,-397.848"/>
</g>
<!-- \\SmartFactory\\ErrorHandler -->
<g id="node21" class="node"><title>\\SmartFactory\\ErrorHandler</title>
<polygon fill="none" stroke="black" points="563,-306 465,-306 465,-270 563,-270 563,-306"/>
<text text-anchor="middle" x="514" y="-285.2" font-family="Courier,monospace" font-size="11.00">ErrorHandler</text>
</g>
<!-- \\SmartFactory\\ErrorHandler&#45;&gt;\\SmartFactory\\Interfaces\\IErrorHandler -->
<g id="edge8" class="edge"><title>\\SmartFactory\\ErrorHandler&#45;&gt;\\SmartFactory\\Interfaces\\IErrorHandler</title>
<path fill="none" stroke="black" stroke-dasharray="1,5" d="M464.792,-296.536C425.069,-303.569 368.498,-313.586 325.603,-321.181"/>
<polygon fill="none" stroke="black" points="324.802,-317.768 315.566,-322.958 326.023,-324.661 324.802,-317.768"/>
</g>
<!-- \\SmartFactory\\EventManager -->
<g id="node22" class="node"><title>\\SmartFactory\\EventManager</title>
<polygon fill="none" stroke="black" points="563,-252 465,-252 465,-216 563,-216 563,-252"/>
<text text-anchor="middle" x="514" y="-231.2" font-family="Courier,monospace" font-size="11.00">EventManager</text>
</g>
<!-- \\SmartFactory\\EventManager&#45;&gt;\\SmartFactory\\Interfaces\\IEventManager -->
<g id="edge9" class="edge"><title>\\SmartFactory\\EventManager&#45;&gt;\\SmartFactory\\Interfaces\\IEventManager</title>
<path fill="none" stroke="black" stroke-dasharray="1,5" d="M464.792,-242.536C425.069,-249.569 368.498,-259.586 325.603,-267.181"/>
<polygon fill="none" stroke="black" points="324.802,-263.768 315.566,-268.958 326.023,-270.661 324.802,-263.768"/>
</g>
<!-- \\SmartFactory\\FactoryBuilder -->
<g id="node23" class="node"><title>\\SmartFactory\\FactoryBuilder</title>
<polygon fill="none" stroke="black" points="569.5,-468 458.5,-468 458.5,-432 569.5,-432 569.5,-468"/>
<text text-anchor="middle" x="514" y="-447.2" font-family="Courier,monospace" font-size="11.00">FactoryBuilder</text>
</g>
<!-- \\SmartFactory\\JsonApiRequestManager -->
<g id="node24" class="node"><title>\\SmartFactory\\JsonApiRequestManager</title>
<polygon fill="none" stroke="black" points="593,-414 435,-414 435,-378 593,-378 593,-414"/>
<text text-anchor="middle" x="514" y="-393.2" font-family="Courier,monospace" font-size="11.00">JsonApiRequestManager</text>
</g>
<!-- \\SmartFactory\\LanguageManager -->
<g id="node25" class="node"><title>\\SmartFactory\\LanguageManager</title>
<polygon fill="none" stroke="black" points="573,-198 455,-198 455,-162 573,-162 573,-198"/>
<text text-anchor="middle" x="514" y="-177.2" font-family="Courier,monospace" font-size="11.00">LanguageManager</text>
</g>
<!-- \\SmartFactory\\LanguageManager&#45;&gt;\\SmartFactory\\Interfaces\\ILanguageManager -->
<g id="edge10" class="edge"><title>\\SmartFactory\\LanguageManager&#45;&gt;\\SmartFactory\\Interfaces\\ILanguageManager</title>
<path fill="none" stroke="black" stroke-dasharray="1,5" d="M454.738,-190.316C419.314,-196.588 373.809,-204.646 336.187,-211.307"/>
<polygon fill="none" stroke="black" points="335.539,-207.867 326.302,-213.057 336.76,-214.76 335.539,-207.867"/>
</g>
<!-- \\SmartFactory\\MessageManager -->
<g id="node26" class="node"><title>\\SmartFactory\\MessageManager</title>
<polygon fill="none" stroke="black" points="569.5,-129 458.5,-129 458.5,-93 569.5,-93 569.5,-129"/>
<text text-anchor="middle" x="514" y="-108.2" font-family="Courier,monospace" font-size="11.00">MessageManager</text>
</g>
<!-- \\SmartFactory\\MessageManager&#45;&gt;\\SmartFactory\\Interfaces\\IInitable -->
<g id="edge12" class="edge"><title>\\SmartFactory\\MessageManager&#45;&gt;\\SmartFactory\\Interfaces\\IInitable</title>
<path fill="none" stroke="black" stroke-dasharray="1,5" d="M458.19,-95.4207C444.75,-90.8219 430.609,-85.3037 418,-79 387.125,-63.5646 386.965,-45.2385 354,-35 280.571,-12.1938 243.469,9.82786 181,-35 83.8678,-104.702 71.7905,-265.194 71.0604,-330.539"/>
<polygon fill="none" stroke="black" points="67.5596,-330.879 71.0334,-340.888 74.5596,-330.897 67.5596,-330.879"/>
</g>
<!-- \\SmartFactory\\MessageManager&#45;&gt;\\SmartFactory\\Interfaces\\IMessageManager -->
<g id="edge11" class="edge"><title>\\SmartFactory\\MessageManager&#45;&gt;\\SmartFactory\\Interfaces\\IMessageManager</title>
<path fill="none" stroke="black" stroke-dasharray="1,5" d="M458.466,-112.097C421.534,-112.84 372.452,-113.828 332.902,-114.624"/>
<polygon fill="none" stroke="black" points="332.733,-111.126 322.805,-114.827 332.874,-118.125 332.733,-111.126"/>
</g>
<!-- \\SmartFactory\\RecordsetManager -->
<g id="node27" class="node"><title>\\SmartFactory\\RecordsetManager</title>
<polygon fill="none" stroke="black" points="576.5,-684 451.5,-684 451.5,-648 576.5,-648 576.5,-684"/>
<text text-anchor="middle" x="514" y="-663.2" font-family="Courier,monospace" font-size="11.00">RecordsetManager</text>
</g>
<!-- \\SmartFactory\\RecordsetManager&#45;&gt;\\SmartFactory\\Interfaces\\IRecordsetManager -->
<g id="edge13" class="edge"><title>\\SmartFactory\\RecordsetManager&#45;&gt;\\SmartFactory\\Interfaces\\IRecordsetManager</title>
<path fill="none" stroke="black" stroke-dasharray="1,5" d="M451.313,-653.42C439.804,-649.716 428.201,-644.993 418,-639 383.316,-618.624 388.519,-595.654 354,-575 349.213,-572.135 344.097,-569.553 338.828,-567.23"/>
<polygon fill="none" stroke="black" points="339.797,-563.845 329.215,-563.32 337.16,-570.33 339.797,-563.845"/>
</g>
<!-- \\SmartFactory\\SessionManager -->
<g id="node28" class="node"><title>\\SmartFactory\\SessionManager</title>
<polygon fill="none" stroke="black" points="569.5,-934 458.5,-934 458.5,-898 569.5,-898 569.5,-934"/>
<text text-anchor="middle" x="514" y="-913.2" font-family="Courier,monospace" font-size="11.00">SessionManager</text>
</g>
<!-- \\SmartFactory\\SessionManager&#45;&gt;\\SmartFactory\\Interfaces\\ISessionManager -->
<g id="edge15" class="edge"><title>\\SmartFactory\\SessionManager&#45;&gt;\\SmartFactory\\Interfaces\\ISessionManager</title>
<path fill="none" stroke="black" stroke-dasharray="1,5" d="M458.236,-912.921C443.729,-909.714 429.051,-903.992 418,-894 352.53,-834.803 410.505,-773.807 354,-706 344.923,-695.107 332.828,-686.152 320.473,-678.983"/>
<polygon fill="none" stroke="black" points="321.925,-675.789 311.47,-674.077 318.576,-681.935 321.925,-675.789"/>
</g>
<!-- SessionHandler -->
<g id="node31" class="node"><title>SessionHandler</title>
<ellipse fill="none" stroke="black" cx="263.5" cy="-988" rx="67.6881" ry="18"/>
<text text-anchor="middle" x="263.5" y="-984.3" font-family="Times New Roman,serif" font-size="14.00" fill="gray">SessionHandler</text>
</g>
<!-- \\SmartFactory\\SessionManager&#45;&gt;SessionHandler -->
<g id="edge14" class="edge"><title>\\SmartFactory\\SessionManager&#45;&gt;SessionHandler</title>
<path fill="none" stroke="black" d="M458.466,-931.801C417.33,-943.719 361.122,-960.005 319.801,-971.977"/>
<polygon fill="none" stroke="black" points="318.797,-968.624 310.166,-974.769 320.745,-975.348 318.797,-968.624"/>
</g>
<!-- \\SmartFactory\\UserSettingsManager -->
<g id="node29" class="node"><title>\\SmartFactory\\UserSettingsManager</title>
<polygon fill="none" stroke="black" points="586.5,-360 441.5,-360 441.5,-324 586.5,-324 586.5,-360"/>
<text text-anchor="middle" x="514" y="-339.2" font-family="Courier,monospace" font-size="11.00">UserSettingsManager</text>
</g>
<!-- \\SmartFactory\\UserSettingsManager&#45;&gt;\\SmartFactory\\Interfaces\\ISettingsManager -->
<g id="edge16" class="edge"><title>\\SmartFactory\\UserSettingsManager&#45;&gt;\\SmartFactory\\Interfaces\\ISettingsManager</title>
<path fill="none" stroke="black" stroke-dasharray="1,5" d="M441.265,-359.659C433.276,-362.425 425.37,-365.534 418,-369 386.764,-383.69 385.117,-398.059 354,-413 348.239,-415.766 342.133,-418.32 335.924,-420.662"/>
<polygon fill="none" stroke="black" points="334.357,-417.505 326.118,-424.166 336.713,-424.097 334.357,-417.505"/>
</g>
<!-- \\SmartFactory\\XmlApiRequestManager -->
<g id="node30" class="node"><title>\\SmartFactory\\XmlApiRequestManager</title>
<polygon fill="none" stroke="black" points="590,-70 438,-70 438,-34 590,-34 590,-70"/>
<text text-anchor="start" x="480" y="-55.2" font-family="Courier,monospace" font-size="11.00">«abstract»</text>
<text text-anchor="start" x="446" y="-43.2" font-family="Courier,monospace" font-size="11.00">XmlApiRequestManager</text>
</g>
</g>
</svg>
