<?xml version="1.0" encoding="UTF-8" standalone="no"?>
<!DOCTYPE svg PUBLIC "-//W3C//DTD SVG 1.1//EN"
 "http://www.w3.org/Graphics/SVG/1.1/DTD/svg11.dtd">
<!-- Generated by graphviz version 2.38.0 (20140413.2041)
 -->
<!-- Title: G Pages: 1 -->
<svg width="642pt" height="1038pt"
 viewBox="0.00 0.00 642.00 1038.00" xmlns="http://www.w3.org/2000/svg" xmlns:xlink="http://www.w3.org/1999/xlink">
<g id="graph0" class="graph" transform="scale(1 1) rotate(0) translate(4 1034)">
<title>G</title>
<polygon fill="white" stroke="none" points="-4,4 -4,-1034 638,-1034 638,4 -4,4"/>
<g id="clust1" class="cluster"><title>cluster_Global</title>
<path fill="none" stroke="gray" d="M20,-8C20,-8 614,-8 614,-8 620,-8 626,-14 626,-20 626,-20 626,-1010 626,-1010 626,-1016 620,-1022 614,-1022 614,-1022 20,-1022 20,-1022 14,-1022 8,-1016 8,-1010 8,-1010 8,-20 8,-20 8,-14 14,-8 20,-8"/>
<text text-anchor="middle" x="317" y="-1009.2" font-family="Times New Roman,serif" font-size="11.00" fill="gray">Global</text>
</g>
<g id="clust2" class="cluster"><title>cluster_\SmartFactory</title>
<path fill="none" stroke="gray" d="M28,-16C28,-16 606,-16 606,-16 612,-16 618,-22 618,-28 618,-28 618,-938 618,-938 618,-944 612,-950 606,-950 606,-950 28,-950 28,-950 22,-950 16,-944 16,-938 16,-938 16,-28 16,-28 16,-22 22,-16 28,-16"/>
<text text-anchor="middle" x="317" y="-937.2" font-family="Times New Roman,serif" font-size="11.00" fill="gray">SmartFactory</text>
</g>
<g id="clust3" class="cluster"><title>cluster_\SmartFactory\DatabaseWorkers</title>
<path fill="none" stroke="gray" d="M225.5,-698C225.5,-698 565.5,-698 565.5,-698 571.5,-698 577.5,-704 577.5,-710 577.5,-710 577.5,-866 577.5,-866 577.5,-872 571.5,-878 565.5,-878 565.5,-878 225.5,-878 225.5,-878 219.5,-878 213.5,-872 213.5,-866 213.5,-866 213.5,-710 213.5,-710 213.5,-704 219.5,-698 225.5,-698"/>
<text text-anchor="middle" x="395.5" y="-865.2" font-family="Times New Roman,serif" font-size="11.00" fill="gray">DatabaseWorkers</text>
</g>
<g id="clust4" class="cluster"><title>cluster_\SmartFactory\Interfaces</title>
<path fill="none" stroke="gray" d="M36,-24C36,-24 342,-24 342,-24 348,-24 354,-30 354,-36 354,-36 354,-678 354,-678 354,-684 348,-690 342,-690 342,-690 36,-690 36,-690 30,-690 24,-684 24,-678 24,-678 24,-36 24,-36 24,-30 30,-24 36,-24"/>
<text text-anchor="middle" x="189" y="-677.2" font-family="Times New Roman,serif" font-size="11.00" fill="gray">Interfaces</text>
</g>
<!-- \\SmartFactory\\DatabaseWorkers\\DBWorker -->
<g id="node1" class="node"><title>\\SmartFactory\\DatabaseWorkers\\DBWorker</title>
<polygon fill="none" stroke="black" points="305.5,-796 221.5,-796 221.5,-760 305.5,-760 305.5,-796"/>
<text text-anchor="start" x="229.5" y="-781.2" font-family="Courier,monospace" font-size="11.00">«abstract»</text>
<text text-anchor="start" x="236" y="-769.2" font-family="Courier,monospace" font-size="11.00">DBWorker</text>
</g>
<!-- \\SmartFactory\\Interfaces\\IInitable -->
<g id="node8" class="node"><title>\\SmartFactory\\Interfaces\\IInitable</title>
<polygon fill="none" stroke="black" points="109,-338 32,-338 32,-302 109,-302 109,-338"/>
<text text-anchor="middle" x="70.5" y="-317.2" font-family="Courier,monospace" font-size="11.00">IInitable</text>
</g>
<!-- \\SmartFactory\\DatabaseWorkers\\DBWorker&#45;&gt;\\SmartFactory\\Interfaces\\IInitable -->
<g id="edge3" class="edge"><title>\\SmartFactory\\DatabaseWorkers\\DBWorker&#45;&gt;\\SmartFactory\\Interfaces\\IInitable</title>
<path fill="none" stroke="black" stroke-dasharray="1,5" d="M239.676,-759.953C221.35,-744.324 196.242,-720.16 181,-694 112.601,-576.605 84.1309,-413.244 75.0355,-348.275"/>
<polygon fill="none" stroke="black" points="78.5038,-347.804 73.6931,-338.364 71.5671,-348.743 78.5038,-347.804"/>
</g>
<!-- \\SmartFactory\\DatabaseWorkers\\MSSQL_DBWorker -->
<g id="node2" class="node"><title>\\SmartFactory\\DatabaseWorkers\\MSSQL_DBWorker</title>
<polygon fill="none" stroke="black" points="569.5,-850 458.5,-850 458.5,-814 569.5,-814 569.5,-850"/>
<text text-anchor="middle" x="514" y="-829.2" font-family="Courier,monospace" font-size="11.00">MSSQL_DBWorker</text>
</g>
<!-- \\SmartFactory\\DatabaseWorkers\\MSSQL_DBWorker&#45;&gt;\\SmartFactory\\DatabaseWorkers\\DBWorker -->
<g id="edge4" class="edge"><title>\\SmartFactory\\DatabaseWorkers\\MSSQL_DBWorker&#45;&gt;\\SmartFactory\\DatabaseWorkers\\DBWorker</title>
<path fill="none" stroke="black" d="M458.466,-820.149C415.965,-810.914 357.375,-798.182 315.738,-789.134"/>
<polygon fill="none" stroke="black" points="316.318,-785.679 305.803,-786.975 314.831,-792.519 316.318,-785.679"/>
</g>
<!-- \\SmartFactory\\DatabaseWorkers\\MySQL_DBWorker -->
<g id="node3" class="node"><title>\\SmartFactory\\DatabaseWorkers\\MySQL_DBWorker</title>
<polygon fill="none" stroke="black" points="569.5,-796 458.5,-796 458.5,-760 569.5,-760 569.5,-796"/>
<text text-anchor="middle" x="514" y="-775.2" font-family="Courier,monospace" font-size="11.00">MySQL_DBWorker</text>
</g>
<!-- \\SmartFactory\\DatabaseWorkers\\MySQL_DBWorker&#45;&gt;\\SmartFactory\\DatabaseWorkers\\DBWorker -->
<g id="edge5" class="edge"><title>\\SmartFactory\\DatabaseWorkers\\MySQL_DBWorker&#45;&gt;\\SmartFactory\\DatabaseWorkers\\DBWorker</title>
<path fill="none" stroke="black" d="M458.466,-778C416.055,-778 357.623,-778 316.002,-778"/>
<polygon fill="none" stroke="black" points="315.803,-774.5 305.803,-778 315.803,-781.5 315.803,-774.5"/>
</g>
<!-- \\SmartFactory\\DatabaseWorkers\\ShardManager -->
<g id="node4" class="node"><title>\\SmartFactory\\DatabaseWorkers\\ShardManager</title>
<polygon fill="none" stroke="black" points="563,-742 465,-742 465,-706 563,-706 563,-742"/>
<text text-anchor="middle" x="514" y="-721.2" font-family="Courier,monospace" font-size="11.00">ShardManager</text>
</g>
<!-- \\SmartFactory\\Interfaces\\IShardManager -->
<g id="node16" class="node"><title>\\SmartFactory\\Interfaces\\IShardManager</title>
<polygon fill="none" stroke="black" points="315.5,-608 211.5,-608 211.5,-572 315.5,-572 315.5,-608"/>
<text text-anchor="middle" x="263.5" y="-587.2" font-family="Courier,monospace" font-size="11.00">IShardManager</text>
</g>
<!-- \\SmartFactory\\DatabaseWorkers\\ShardManager&#45;&gt;\\SmartFactory\\Interfaces\\IShardManager -->
<g id="edge6" class="edge"><title>\\SmartFactory\\DatabaseWorkers\\ShardManager&#45;&gt;\\SmartFactory\\Interfaces\\IShardManager</title>
<path fill="none" stroke="black" stroke-dasharray="1,5" d="M464.514,-719.441C448.741,-716.278 431.768,-710.951 418,-702 378.354,-676.223 392.782,-644.059 354,-617 345.426,-611.018 335.501,-606.337 325.447,-602.681"/>
<polygon fill="none" stroke="black" points="326.401,-599.31 315.808,-599.48 324.195,-605.953 326.401,-599.31"/>
</g>
<!-- \\SmartFactory\\Interfaces\\IDebugProfiler -->
<g id="node5" class="node"><title>\\SmartFactory\\Interfaces\\IDebugProfiler</title>
<polygon fill="none" stroke="black" points="319,-230 208,-230 208,-194 319,-194 319,-230"/>
<text text-anchor="middle" x="263.5" y="-209.2" font-family="Courier,monospace" font-size="11.00">IDebugProfiler</text>
</g>
<!-- \\SmartFactory\\Interfaces\\IDebugProfiler&#45;&gt;\\SmartFactory\\Interfaces\\IInitable -->
<g id="edge16" class="edge"><title>\\SmartFactory\\Interfaces\\IDebugProfiler&#45;&gt;\\SmartFactory\\Interfaces\\IInitable</title>
<path fill="none" stroke="black" d="M207.592,-227.528C198.505,-230.847 189.336,-234.677 181,-239 151.218,-254.444 120.815,-277.648 99.6263,-295.268"/>
<polygon fill="none" stroke="black" points="97.3647,-292.596 91.9771,-301.719 101.878,-297.947 97.3647,-292.596"/>
</g>
<!-- \\SmartFactory\\Interfaces\\IErrorHandler -->
<g id="node6" class="node"><title>\\SmartFactory\\Interfaces\\IErrorHandler</title>
<polygon fill="none" stroke="black" points="315.5,-122 211.5,-122 211.5,-86 315.5,-86 315.5,-122"/>
<text text-anchor="middle" x="263.5" y="-101.2" font-family="Courier,monospace" font-size="11.00">IErrorHandler</text>
</g>
<!-- \\SmartFactory\\Interfaces\\IErrorHandler&#45;&gt;\\SmartFactory\\Interfaces\\IInitable -->
<g id="edge17" class="edge"><title>\\SmartFactory\\Interfaces\\IErrorHandler&#45;&gt;\\SmartFactory\\Interfaces\\IInitable</title>
<path fill="none" stroke="black" d="M211.319,-114.673C200.542,-118.569 189.789,-123.852 181,-131 127.706,-174.344 95.0068,-250.981 80.4411,-292.092"/>
<polygon fill="none" stroke="black" points="77.0668,-291.142 77.1272,-301.736 83.6869,-293.416 77.0668,-291.142"/>
</g>
<!-- \\SmartFactory\\Interfaces\\IEventManager -->
<g id="node7" class="node"><title>\\SmartFactory\\Interfaces\\IEventManager</title>
<polygon fill="none" stroke="black" points="315.5,-554 211.5,-554 211.5,-518 315.5,-518 315.5,-554"/>
<text text-anchor="middle" x="263.5" y="-533.2" font-family="Courier,monospace" font-size="11.00">IEventManager</text>
</g>
<!-- \\SmartFactory\\Interfaces\\IJsonApiRequestHandler -->
<g id="node9" class="node"><title>\\SmartFactory\\Interfaces\\IJsonApiRequestHandler</title>
<polygon fill="none" stroke="black" points="346,-500 181,-500 181,-464 346,-464 346,-500"/>
<text text-anchor="middle" x="263.5" y="-479.2" font-family="Courier,monospace" font-size="11.00">IJsonApiRequestHandler</text>
</g>
<!-- \\SmartFactory\\Interfaces\\ILanguageManager -->
<g id="node10" class="node"><title>\\SmartFactory\\Interfaces\\ILanguageManager</title>
<polygon fill="none" stroke="black" points="326,-446 201,-446 201,-410 326,-410 326,-446"/>
<text text-anchor="middle" x="263.5" y="-425.2" font-family="Courier,monospace" font-size="11.00">ILanguageManager</text>
</g>
<!-- \\SmartFactory\\Interfaces\\ILanguageManager&#45;&gt;\\SmartFactory\\Interfaces\\IInitable -->
<g id="edge18" class="edge"><title>\\SmartFactory\\Interfaces\\ILanguageManager&#45;&gt;\\SmartFactory\\Interfaces\\IInitable</title>
<path fill="none" stroke="black" d="M200.668,-409.845C193.902,-407.176 187.219,-404.225 181,-401 151.218,-385.556 120.815,-362.352 99.6263,-344.732"/>
<polygon fill="none" stroke="black" points="101.878,-342.053 91.9771,-338.281 97.3647,-347.404 101.878,-342.053"/>
</g>
<!-- \\SmartFactory\\Interfaces\\IMessageManager -->
<g id="node11" class="node"><title>\\SmartFactory\\Interfaces\\IMessageManager</title>
<polygon fill="none" stroke="black" points="322.5,-392 204.5,-392 204.5,-356 322.5,-356 322.5,-392"/>
<text text-anchor="middle" x="263.5" y="-371.2" font-family="Courier,monospace" font-size="11.00">IMessageManager</text>
</g>
<!-- \\SmartFactory\\Interfaces\\IMessageManager&#45;&gt;\\SmartFactory\\Interfaces\\IInitable -->
<g id="edge19" class="edge"><title>\\SmartFactory\\Interfaces\\IMessageManager&#45;&gt;\\SmartFactory\\Interfaces\\IInitable</title>
<path fill="none" stroke="black" d="M204.416,-357.578C177.093,-349.853 144.916,-340.756 119.065,-333.448"/>
<polygon fill="none" stroke="black" points="119.706,-329.992 109.131,-330.639 117.802,-336.728 119.706,-329.992"/>
</g>
<!-- \\SmartFactory\\Interfaces\\IRecordsetManager -->
<g id="node12" class="node"><title>\\SmartFactory\\Interfaces\\IRecordsetManager</title>
<polygon fill="none" stroke="black" points="329,-338 198,-338 198,-302 329,-302 329,-338"/>
<text text-anchor="middle" x="263.5" y="-317.2" font-family="Courier,monospace" font-size="11.00">IRecordsetManager</text>
</g>
<!-- \\SmartFactory\\Interfaces\\ISessionManager -->
<g id="node13" class="node"><title>\\SmartFactory\\Interfaces\\ISessionManager</title>
<polygon fill="none" stroke="black" points="322.5,-662 204.5,-662 204.5,-626 322.5,-626 322.5,-662"/>
<text text-anchor="middle" x="263.5" y="-641.2" font-family="Courier,monospace" font-size="11.00">ISessionManager</text>
</g>
<!-- \\SmartFactory\\Interfaces\\ISettingsManager -->
<g id="node14" class="node"><title>\\SmartFactory\\Interfaces\\ISettingsManager</title>
<polygon fill="none" stroke="black" points="326,-284 201,-284 201,-248 326,-248 326,-284"/>
<text text-anchor="middle" x="263.5" y="-263.2" font-family="Courier,monospace" font-size="11.00">ISettingsManager</text>
</g>
<!-- \\SmartFactory\\Interfaces\\ISettingsManager&#45;&gt;\\SmartFactory\\Interfaces\\IInitable -->
<g id="edge20" class="edge"><title>\\SmartFactory\\Interfaces\\ISettingsManager&#45;&gt;\\SmartFactory\\Interfaces\\IInitable</title>
<path fill="none" stroke="black" d="M200.752,-283.458C174.217,-290.96 143.693,-299.589 118.973,-306.578"/>
<polygon fill="none" stroke="black" points="117.782,-303.278 109.111,-309.366 119.686,-310.014 117.782,-303.278"/>
</g>
<!-- \\SmartFactory\\Interfaces\\ISettingsValidator -->
<g id="node15" class="node"><title>\\SmartFactory\\Interfaces\\ISettingsValidator</title>
<polygon fill="none" stroke="black" points="332.5,-176 194.5,-176 194.5,-140 332.5,-140 332.5,-176"/>
<text text-anchor="middle" x="263.5" y="-155.2" font-family="Courier,monospace" font-size="11.00">ISettingsValidator</text>
</g>
<!-- \\SmartFactory\\Interfaces\\IXmlApiRequestHandler -->
<g id="node17" class="node"><title>\\SmartFactory\\Interfaces\\IXmlApiRequestHandler</title>
<polygon fill="none" stroke="black" points="342.5,-68 184.5,-68 184.5,-32 342.5,-32 342.5,-68"/>
<text text-anchor="middle" x="263.5" y="-47.2" font-family="Courier,monospace" font-size="11.00">IXmlApiRequestHandler</text>
</g>
<!-- \\SmartFactory\\ApplicationSettingsManager -->
<g id="node18" class="node"><title>\\SmartFactory\\ApplicationSettingsManager</title>
<polygon fill="none" stroke="black" points="610,-284 418,-284 418,-248 610,-248 610,-284"/>
<text text-anchor="middle" x="514" y="-263.2" font-family="Courier,monospace" font-size="11.00">ApplicationSettingsManager</text>
</g>
<!-- \\SmartFactory\\ApplicationSettingsManager&#45;&gt;\\SmartFactory\\Interfaces\\ISettingsManager -->
<g id="edge1" class="edge"><title>\\SmartFactory\\ApplicationSettingsManager&#45;&gt;\\SmartFactory\\Interfaces\\ISettingsManager</title>
<path fill="none" stroke="black" stroke-dasharray="1,5" d="M417.989,-266C390.894,-266 361.831,-266 336.363,-266"/>
<polygon fill="none" stroke="black" points="336.056,-262.5 326.056,-266 336.056,-269.5 336.056,-262.5"/>
</g>
<!-- \\SmartFactory\\ConfigSettingsManager -->
<g id="node19" class="node"><title>\\SmartFactory\\ConfigSettingsManager</title>
<polygon fill="none" stroke="black" points="593,-230 435,-230 435,-194 593,-194 593,-230"/>
<text text-anchor="middle" x="514" y="-209.2" font-family="Courier,monospace" font-size="11.00">ConfigSettingsManager</text>
</g>
<!-- \\SmartFactory\\ConfigSettingsManager&#45;&gt;\\SmartFactory\\Interfaces\\ISettingsManager -->
<g id="edge2" class="edge"><title>\\SmartFactory\\ConfigSettingsManager&#45;&gt;\\SmartFactory\\Interfaces\\ISettingsManager</title>
<path fill="none" stroke="black" stroke-dasharray="1,5" d="M434.714,-229.012C403.134,-235.874 366.943,-243.739 336.075,-250.446"/>
<polygon fill="none" stroke="black" points="335.281,-247.037 326.252,-252.581 336.768,-253.878 335.281,-247.037"/>
</g>
<!-- \\SmartFactory\\DebugProfiler -->
<g id="node20" class="node"><title>\\SmartFactory\\DebugProfiler</title>
<polygon fill="none" stroke="black" points="566,-176 462,-176 462,-140 566,-140 566,-176"/>
<text text-anchor="middle" x="514" y="-155.2" font-family="Courier,monospace" font-size="11.00">DebugProfiler</text>
</g>
<!-- \\SmartFactory\\DebugProfiler&#45;&gt;\\SmartFactory\\Interfaces\\IDebugProfiler -->
<g id="edge7" class="edge"><title>\\SmartFactory\\DebugProfiler&#45;&gt;\\SmartFactory\\Interfaces\\IDebugProfiler</title>
<path fill="none" stroke="black" stroke-dasharray="1,5" d="M461.812,-169.123C423.353,-177.481 370.411,-188.985 329.048,-197.973"/>
<polygon fill="none" stroke="black" points="328.096,-194.599 319.067,-200.142 329.583,-201.439 328.096,-194.599"/>
</g>
<!-- \\SmartFactory\\ErrorHandler -->
<g id="node21" class="node"><title>\\SmartFactory\\ErrorHandler</title>
<polygon fill="none" stroke="black" points="563,-122 465,-122 465,-86 563,-86 563,-122"/>
<text text-anchor="middle" x="514" y="-101.2" font-family="Courier,monospace" font-size="11.00">ErrorHandler</text>
</g>
<!-- \\SmartFactory\\ErrorHandler&#45;&gt;\\SmartFactory\\Interfaces\\IErrorHandler -->
<g id="edge8" class="edge"><title>\\SmartFactory\\ErrorHandler&#45;&gt;\\SmartFactory\\Interfaces\\IErrorHandler</title>
<path fill="none" stroke="black" stroke-dasharray="1,5" d="M464.792,-104C425.069,-104 368.498,-104 325.603,-104"/>
<polygon fill="none" stroke="black" points="325.566,-100.5 315.566,-104 325.566,-107.5 325.566,-100.5"/>
</g>
<!-- \\SmartFactory\\EventManager -->
<g id="node22" class="node"><title>\\SmartFactory\\EventManager</title>
<polygon fill="none" stroke="black" points="563,-662 465,-662 465,-626 563,-626 563,-662"/>
<text text-anchor="middle" x="514" y="-641.2" font-family="Courier,monospace" font-size="11.00">EventManager</text>
</g>
<!-- \\SmartFactory\\EventManager&#45;&gt;\\SmartFactory\\Interfaces\\IEventManager -->
<g id="edge9" class="edge"><title>\\SmartFactory\\EventManager&#45;&gt;\\SmartFactory\\Interfaces\\IEventManager</title>
<path fill="none" stroke="black" stroke-dasharray="1,5" d="M464.602,-634.472C449.171,-630.34 432.381,-624.65 418,-617 385.143,-599.522 386.715,-580.742 354,-563 345.119,-558.184 335.265,-554.113 325.436,-550.711"/>
<polygon fill="none" stroke="black" points="326.245,-547.293 315.653,-547.528 324.08,-553.95 326.245,-547.293"/>
</g>
<!-- \\SmartFactory\\FactoryBuilder -->
<g id="node23" class="node"><title>\\SmartFactory\\FactoryBuilder</title>
<polygon fill="none" stroke="black" points="569.5,-446 458.5,-446 458.5,-410 569.5,-410 569.5,-446"/>
<text text-anchor="middle" x="514" y="-425.2" font-family="Courier,monospace" font-size="11.00">FactoryBuilder</text>
</g>
<!-- \\SmartFactory\\JsonApiRequestManager -->
<g id="node24" class="node"><title>\\SmartFactory\\JsonApiRequestManager</title>
<polygon fill="none" stroke="black" points="593,-392 435,-392 435,-356 593,-356 593,-392"/>
<text text-anchor="middle" x="514" y="-371.2" font-family="Courier,monospace" font-size="11.00">JsonApiRequestManager</text>
</g>
<!-- \\SmartFactory\\LanguageManager -->
<g id="node25" class="node"><title>\\SmartFactory\\LanguageManager</title>
<polygon fill="none" stroke="black" points="573,-608 455,-608 455,-572 573,-572 573,-608"/>
<text text-anchor="middle" x="514" y="-587.2" font-family="Courier,monospace" font-size="11.00">LanguageManager</text>
</g>
<!-- \\SmartFactory\\LanguageManager&#45;&gt;\\SmartFactory\\Interfaces\\ILanguageManager -->
<g id="edge10" class="edge"><title>\\SmartFactory\\LanguageManager&#45;&gt;\\SmartFactory\\Interfaces\\ILanguageManager</title>
<path fill="none" stroke="black" stroke-dasharray="1,5" d="M454.946,-580.981C441.886,-577.002 428.731,-571.266 418,-563 373.799,-528.951 397.926,-489.403 354,-455 348.506,-450.697 342.332,-447.078 335.862,-444.034"/>
<polygon fill="none" stroke="black" points="336.791,-440.627 326.216,-439.973 334.075,-447.079 336.791,-440.627"/>
</g>
<!-- \\SmartFactory\\MessageManager -->
<g id="node26" class="node"><title>\\SmartFactory\\MessageManager</title>
<polygon fill="none" stroke="black" points="569.5,-554 458.5,-554 458.5,-518 569.5,-518 569.5,-554"/>
<text text-anchor="middle" x="514" y="-533.2" font-family="Courier,monospace" font-size="11.00">MessageManager</text>
</g>
<!-- \\SmartFactory\\MessageManager&#45;&gt;\\SmartFactory\\Interfaces\\IMessageManager -->
<g id="edge11" class="edge"><title>\\SmartFactory\\MessageManager&#45;&gt;\\SmartFactory\\Interfaces\\IMessageManager</title>
<path fill="none" stroke="black" stroke-dasharray="1,5" d="M458.414,-527.999C444.236,-523.998 429.682,-517.999 418,-509 373.799,-474.951 397.926,-435.403 354,-401 347.55,-395.949 340.165,-391.84 332.463,-388.498"/>
<polygon fill="none" stroke="black" points="333.541,-385.161 322.953,-384.79 330.998,-391.683 333.541,-385.161"/>
</g>
<!-- \\SmartFactory\\RecordsetManager -->
<g id="node27" class="node"><title>\\SmartFactory\\RecordsetManager</title>
<polygon fill="none" stroke="black" points="576.5,-338 451.5,-338 451.5,-302 576.5,-302 576.5,-338"/>
<text text-anchor="middle" x="514" y="-317.2" font-family="Courier,monospace" font-size="11.00">RecordsetManager</text>
</g>
<!-- \\SmartFactory\\RecordsetManager&#45;&gt;\\SmartFactory\\Interfaces\\IRecordsetManager -->
<g id="edge12" class="edge"><title>\\SmartFactory\\RecordsetManager&#45;&gt;\\SmartFactory\\Interfaces\\IRecordsetManager</title>
<path fill="none" stroke="black" stroke-dasharray="1,5" d="M451.254,-320C417.5,-320 375.425,-320 339.761,-320"/>
<polygon fill="none" stroke="black" points="339.401,-316.5 329.401,-320 339.401,-323.5 339.401,-316.5"/>
</g>
<!-- \\SmartFactory\\SessionManager -->
<g id="node28" class="node"><title>\\SmartFactory\\SessionManager</title>
<polygon fill="none" stroke="black" points="569.5,-922 458.5,-922 458.5,-886 569.5,-886 569.5,-922"/>
<text text-anchor="middle" x="514" y="-901.2" font-family="Courier,monospace" font-size="11.00">SessionManager</text>
</g>
<!-- \\SmartFactory\\SessionManager&#45;&gt;\\SmartFactory\\Interfaces\\ISessionManager -->
<g id="edge14" class="edge"><title>\\SmartFactory\\SessionManager&#45;&gt;\\SmartFactory\\Interfaces\\ISessionManager</title>
<path fill="none" stroke="black" stroke-dasharray="1,5" d="M458.236,-900.921C443.729,-897.714 429.051,-891.992 418,-882 352.53,-822.803 410.505,-761.807 354,-694 344.923,-683.107 332.828,-674.152 320.473,-666.983"/>
<polygon fill="none" stroke="black" points="321.925,-663.789 311.47,-662.077 318.576,-669.935 321.925,-663.789"/>
</g>
<!-- SessionHandler -->
<g id="node31" class="node"><title>SessionHandler</title>
<ellipse fill="none" stroke="black" cx="263.5" cy="-976" rx="67.6881" ry="18"/>
<text text-anchor="middle" x="263.5" y="-972.3" font-family="Times New Roman,serif" font-size="14.00" fill="gray">SessionHandler</text>
</g>
<!-- \\SmartFactory\\SessionManager&#45;&gt;SessionHandler -->
<g id="edge13" class="edge"><title>\\SmartFactory\\SessionManager&#45;&gt;SessionHandler</title>
<path fill="none" stroke="black" d="M458.466,-919.801C417.33,-931.719 361.122,-948.005 319.801,-959.977"/>
<polygon fill="none" stroke="black" points="318.797,-956.624 310.166,-962.769 320.745,-963.348 318.797,-956.624"/>
</g>
<!-- \\SmartFactory\\UserSettingsManager -->
<g id="node29" class="node"><title>\\SmartFactory\\UserSettingsManager</title>
<polygon fill="none" stroke="black" points="586.5,-500 441.5,-500 441.5,-464 586.5,-464 586.5,-500"/>
<text text-anchor="middle" x="514" y="-479.2" font-family="Courier,monospace" font-size="11.00">UserSettingsManager</text>
</g>
<!-- \\SmartFactory\\UserSettingsManager&#45;&gt;\\SmartFactory\\Interfaces\\ISettingsManager -->
<g id="edge15" class="edge"><title>\\SmartFactory\\UserSettingsManager&#45;&gt;\\SmartFactory\\Interfaces\\ISettingsManager</title>
<path fill="none" stroke="black" stroke-dasharray="1,5" d="M441.238,-469.498C432.756,-465.83 424.737,-461.099 418,-455 360.609,-403.044 410.971,-345.415 354,-293 348.58,-288.014 342.27,-283.947 335.556,-280.63"/>
<polygon fill="none" stroke="black" points="336.76,-277.337 326.194,-276.556 333.967,-283.756 336.76,-277.337"/>
</g>
<!-- \\SmartFactory\\XmlApiRequestManager -->
<g id="node30" class="node"><title>\\SmartFactory\\XmlApiRequestManager</title>
<polygon fill="none" stroke="black" points="590,-64 438,-64 438,-28 590,-28 590,-64"/>
<text text-anchor="start" x="480" y="-49.2" font-family="Courier,monospace" font-size="11.00">«abstract»</text>
<text text-anchor="start" x="446" y="-37.2" font-family="Courier,monospace" font-size="11.00">XmlApiRequestManager</text>
</g>
</g>
</svg>
