<?xml version="1.0" encoding="UTF-8" standalone="no"?>
<!DOCTYPE svg PUBLIC "-//W3C//DTD SVG 1.1//EN"
 "http://www.w3.org/Graphics/SVG/1.1/DTD/svg11.dtd">
<!-- Generated by graphviz version 2.38.0 (20140413.2041)
 -->
<!-- Title: G Pages: 1 -->
<svg width="642pt" height="960pt"
 viewBox="0.00 0.00 642.00 960.00" xmlns="http://www.w3.org/2000/svg" xmlns:xlink="http://www.w3.org/1999/xlink">
<g id="graph0" class="graph" transform="scale(1 1) rotate(0) translate(4 956)">
<title>G</title>
<polygon fill="white" stroke="none" points="-4,4 -4,-956 638,-956 638,4 -4,4"/>
<g id="clust1" class="cluster"><title>cluster_Global</title>
<path fill="none" stroke="gray" d="M20,-8C20,-8 614,-8 614,-8 620,-8 626,-14 626,-20 626,-20 626,-932 626,-932 626,-938 620,-944 614,-944 614,-944 20,-944 20,-944 14,-944 8,-938 8,-932 8,-932 8,-20 8,-20 8,-14 14,-8 20,-8"/>
<text text-anchor="middle" x="317" y="-931.2" font-family="Times New Roman,serif" font-size="11.00" fill="gray">Global</text>
</g>
<g id="clust2" class="cluster"><title>cluster_\SmartFactory</title>
<path fill="none" stroke="gray" d="M28,-16C28,-16 606,-16 606,-16 612,-16 618,-22 618,-28 618,-28 618,-860 618,-860 618,-866 612,-872 606,-872 606,-872 28,-872 28,-872 22,-872 16,-866 16,-860 16,-860 16,-28 16,-28 16,-22 22,-16 28,-16"/>
<text text-anchor="middle" x="317" y="-859.2" font-family="Times New Roman,serif" font-size="11.00" fill="gray">SmartFactory</text>
</g>
<g id="clust3" class="cluster"><title>cluster_\SmartFactory\DatabaseWorkers</title>
<path fill="none" stroke="gray" d="M225.5,-718C225.5,-718 565.5,-718 565.5,-718 571.5,-718 577.5,-724 577.5,-730 577.5,-730 577.5,-832 577.5,-832 577.5,-838 571.5,-844 565.5,-844 565.5,-844 225.5,-844 225.5,-844 219.5,-844 213.5,-838 213.5,-832 213.5,-832 213.5,-730 213.5,-730 213.5,-724 219.5,-718 225.5,-718"/>
<text text-anchor="middle" x="395.5" y="-831.2" font-family="Times New Roman,serif" font-size="11.00" fill="gray">DatabaseWorkers</text>
</g>
<g id="clust4" class="cluster"><title>cluster_\SmartFactory\Interfaces</title>
<path fill="none" stroke="gray" d="M36,-98C36,-98 342,-98 342,-98 348,-98 354,-104 354,-110 354,-110 354,-698 354,-698 354,-704 348,-710 342,-710 342,-710 36,-710 36,-710 30,-710 24,-704 24,-698 24,-698 24,-110 24,-110 24,-104 30,-98 36,-98"/>
<text text-anchor="middle" x="189" y="-697.2" font-family="Times New Roman,serif" font-size="11.00" fill="gray">Interfaces</text>
</g>
<!-- \\SmartFactory\\DatabaseWorkers\\DBWorker -->
<g id="node1" class="node"><title>\\SmartFactory\\DatabaseWorkers\\DBWorker</title>
<polygon fill="none" stroke="black" points="305.5,-762 221.5,-762 221.5,-726 305.5,-726 305.5,-762"/>
<text text-anchor="start" x="229.5" y="-747.2" font-family="Courier,monospace" font-size="11.00">«abstract»</text>
<text text-anchor="start" x="236" y="-735.2" font-family="Courier,monospace" font-size="11.00">DBWorker</text>
</g>
<!-- \\SmartFactory\\Interfaces\\IInitable -->
<g id="node7" class="node"><title>\\SmartFactory\\Interfaces\\IInitable</title>
<polygon fill="none" stroke="black" points="109,-439 32,-439 32,-403 109,-403 109,-439"/>
<text text-anchor="middle" x="70.5" y="-418.2" font-family="Courier,monospace" font-size="11.00">IInitable</text>
</g>
<!-- \\SmartFactory\\DatabaseWorkers\\DBWorker&#45;&gt;\\SmartFactory\\Interfaces\\IInitable -->
<g id="edge3" class="edge"><title>\\SmartFactory\\DatabaseWorkers\\DBWorker&#45;&gt;\\SmartFactory\\Interfaces\\IInitable</title>
<path fill="none" stroke="black" stroke-dasharray="1,5" d="M221.34,-736.269C207.054,-731.814 191.901,-724.848 181,-714 105.6,-638.972 81.4776,-507.224 74.3057,-449.478"/>
<polygon fill="none" stroke="black" points="77.7506,-448.8 73.1211,-439.27 70.7973,-449.607 77.7506,-448.8"/>
</g>
<!-- \\SmartFactory\\DatabaseWorkers\\MSSQL_DBWorker -->
<g id="node2" class="node"><title>\\SmartFactory\\DatabaseWorkers\\MSSQL_DBWorker</title>
<polygon fill="none" stroke="black" points="569.5,-816 458.5,-816 458.5,-780 569.5,-780 569.5,-816"/>
<text text-anchor="middle" x="514" y="-795.2" font-family="Courier,monospace" font-size="11.00">MSSQL_DBWorker</text>
</g>
<!-- \\SmartFactory\\DatabaseWorkers\\MSSQL_DBWorker&#45;&gt;\\SmartFactory\\DatabaseWorkers\\DBWorker -->
<g id="edge4" class="edge"><title>\\SmartFactory\\DatabaseWorkers\\MSSQL_DBWorker&#45;&gt;\\SmartFactory\\DatabaseWorkers\\DBWorker</title>
<path fill="none" stroke="black" d="M458.466,-786.149C415.965,-776.914 357.375,-764.182 315.738,-755.134"/>
<polygon fill="none" stroke="black" points="316.318,-751.679 305.803,-752.975 314.831,-758.519 316.318,-751.679"/>
</g>
<!-- \\SmartFactory\\DatabaseWorkers\\MySQL_DBWorker -->
<g id="node3" class="node"><title>\\SmartFactory\\DatabaseWorkers\\MySQL_DBWorker</title>
<polygon fill="none" stroke="black" points="569.5,-762 458.5,-762 458.5,-726 569.5,-726 569.5,-762"/>
<text text-anchor="middle" x="514" y="-741.2" font-family="Courier,monospace" font-size="11.00">MySQL_DBWorker</text>
</g>
<!-- \\SmartFactory\\DatabaseWorkers\\MySQL_DBWorker&#45;&gt;\\SmartFactory\\DatabaseWorkers\\DBWorker -->
<g id="edge5" class="edge"><title>\\SmartFactory\\DatabaseWorkers\\MySQL_DBWorker&#45;&gt;\\SmartFactory\\DatabaseWorkers\\DBWorker</title>
<path fill="none" stroke="black" d="M458.466,-744C416.055,-744 357.623,-744 316.002,-744"/>
<polygon fill="none" stroke="black" points="315.803,-740.5 305.803,-744 315.803,-747.5 315.803,-740.5"/>
</g>
<!-- \\SmartFactory\\Interfaces\\IDebugProfiler -->
<g id="node4" class="node"><title>\\SmartFactory\\Interfaces\\IDebugProfiler</title>
<polygon fill="none" stroke="black" points="319,-412 208,-412 208,-376 319,-376 319,-412"/>
<text text-anchor="middle" x="263.5" y="-391.2" font-family="Courier,monospace" font-size="11.00">IDebugProfiler</text>
</g>
<!-- \\SmartFactory\\Interfaces\\IDebugProfiler&#45;&gt;\\SmartFactory\\Interfaces\\IInitable -->
<g id="edge16" class="edge"><title>\\SmartFactory\\Interfaces\\IDebugProfiler&#45;&gt;\\SmartFactory\\Interfaces\\IInitable</title>
<path fill="none" stroke="black" d="M207.767,-401.737C179.811,-405.689 146.118,-410.452 119.23,-414.253"/>
<polygon fill="none" stroke="black" points="118.695,-410.794 109.284,-415.659 119.675,-417.725 118.695,-410.794"/>
</g>
<!-- \\SmartFactory\\Interfaces\\IErrorHandler -->
<g id="node5" class="node"><title>\\SmartFactory\\Interfaces\\IErrorHandler</title>
<polygon fill="none" stroke="black" points="315.5,-358 211.5,-358 211.5,-322 315.5,-322 315.5,-358"/>
<text text-anchor="middle" x="263.5" y="-337.2" font-family="Courier,monospace" font-size="11.00">IErrorHandler</text>
</g>
<!-- \\SmartFactory\\Interfaces\\IErrorHandler&#45;&gt;\\SmartFactory\\Interfaces\\IInitable -->
<g id="edge17" class="edge"><title>\\SmartFactory\\Interfaces\\IErrorHandler&#45;&gt;\\SmartFactory\\Interfaces\\IInitable</title>
<path fill="none" stroke="black" d="M211.238,-355.78C201.122,-359.231 190.654,-363.043 181,-367 158.482,-376.231 134.136,-388.044 114.132,-398.266"/>
<polygon fill="none" stroke="black" points="112.262,-395.292 104.979,-402.986 115.471,-401.514 112.262,-395.292"/>
</g>
<!-- \\SmartFactory\\Interfaces\\IEventManager -->
<g id="node6" class="node"><title>\\SmartFactory\\Interfaces\\IEventManager</title>
<polygon fill="none" stroke="black" points="315.5,-304 211.5,-304 211.5,-268 315.5,-268 315.5,-304"/>
<text text-anchor="middle" x="263.5" y="-283.2" font-family="Courier,monospace" font-size="11.00">IEventManager</text>
</g>
<!-- \\SmartFactory\\Interfaces\\IJsonApiRequestHandler -->
<g id="node8" class="node"><title>\\SmartFactory\\Interfaces\\IJsonApiRequestHandler</title>
<polygon fill="none" stroke="black" points="346,-520 181,-520 181,-484 346,-484 346,-520"/>
<text text-anchor="middle" x="263.5" y="-499.2" font-family="Courier,monospace" font-size="11.00">IJsonApiRequestHandler</text>
</g>
<!-- \\SmartFactory\\Interfaces\\ILanguageManager -->
<g id="node9" class="node"><title>\\SmartFactory\\Interfaces\\ILanguageManager</title>
<polygon fill="none" stroke="black" points="326,-628 201,-628 201,-592 326,-592 326,-628"/>
<text text-anchor="middle" x="263.5" y="-607.2" font-family="Courier,monospace" font-size="11.00">ILanguageManager</text>
</g>
<!-- \\SmartFactory\\Interfaces\\ILanguageManager&#45;&gt;\\SmartFactory\\Interfaces\\IInitable -->
<g id="edge18" class="edge"><title>\\SmartFactory\\Interfaces\\ILanguageManager&#45;&gt;\\SmartFactory\\Interfaces\\IInitable</title>
<path fill="none" stroke="black" d="M200.654,-594.428C193.671,-591.271 186.941,-587.499 181,-583 133.629,-547.126 99.8443,-484.57 83.2138,-448.593"/>
<polygon fill="none" stroke="black" points="86.2789,-446.876 78.981,-439.195 79.8963,-449.75 86.2789,-446.876"/>
</g>
<!-- \\SmartFactory\\Interfaces\\IMessageManager -->
<g id="node10" class="node"><title>\\SmartFactory\\Interfaces\\IMessageManager</title>
<polygon fill="none" stroke="black" points="322.5,-250 204.5,-250 204.5,-214 322.5,-214 322.5,-250"/>
<text text-anchor="middle" x="263.5" y="-229.2" font-family="Courier,monospace" font-size="11.00">IMessageManager</text>
</g>
<!-- \\SmartFactory\\Interfaces\\IRecordsetManager -->
<g id="node11" class="node"><title>\\SmartFactory\\Interfaces\\IRecordsetManager</title>
<polygon fill="none" stroke="black" points="329,-574 198,-574 198,-538 329,-538 329,-574"/>
<text text-anchor="middle" x="263.5" y="-553.2" font-family="Courier,monospace" font-size="11.00">IRecordsetManager</text>
</g>
<!-- \\SmartFactory\\Interfaces\\ISessionManager -->
<g id="node12" class="node"><title>\\SmartFactory\\Interfaces\\ISessionManager</title>
<polygon fill="none" stroke="black" points="322.5,-682 204.5,-682 204.5,-646 322.5,-646 322.5,-682"/>
<text text-anchor="middle" x="263.5" y="-661.2" font-family="Courier,monospace" font-size="11.00">ISessionManager</text>
</g>
<!-- \\SmartFactory\\Interfaces\\ISettingsManager -->
<g id="node13" class="node"><title>\\SmartFactory\\Interfaces\\ISettingsManager</title>
<polygon fill="none" stroke="black" points="326,-466 201,-466 201,-430 326,-430 326,-466"/>
<text text-anchor="middle" x="263.5" y="-445.2" font-family="Courier,monospace" font-size="11.00">ISettingsManager</text>
</g>
<!-- \\SmartFactory\\Interfaces\\ISettingsManager&#45;&gt;\\SmartFactory\\Interfaces\\IInitable -->
<g id="edge19" class="edge"><title>\\SmartFactory\\Interfaces\\ISettingsManager&#45;&gt;\\SmartFactory\\Interfaces\\IInitable</title>
<path fill="none" stroke="black" d="M200.752,-439.271C174.335,-435.537 143.964,-431.244 119.303,-427.757"/>
<polygon fill="none" stroke="black" points="119.503,-424.251 109.111,-426.317 118.523,-431.182 119.503,-424.251"/>
</g>
<!-- \\SmartFactory\\Interfaces\\ISettingsValidator -->
<g id="node14" class="node"><title>\\SmartFactory\\Interfaces\\ISettingsValidator</title>
<polygon fill="none" stroke="black" points="332.5,-196 194.5,-196 194.5,-160 332.5,-160 332.5,-196"/>
<text text-anchor="middle" x="263.5" y="-175.2" font-family="Courier,monospace" font-size="11.00">ISettingsValidator</text>
</g>
<!-- \\SmartFactory\\Interfaces\\IXmlApiRequestHandler -->
<g id="node15" class="node"><title>\\SmartFactory\\Interfaces\\IXmlApiRequestHandler</title>
<polygon fill="none" stroke="black" points="342.5,-142 184.5,-142 184.5,-106 342.5,-106 342.5,-142"/>
<text text-anchor="middle" x="263.5" y="-121.2" font-family="Courier,monospace" font-size="11.00">IXmlApiRequestHandler</text>
</g>
<!-- \\SmartFactory\\ApplicationSettingsManager -->
<g id="node16" class="node"><title>\\SmartFactory\\ApplicationSettingsManager</title>
<polygon fill="none" stroke="black" points="610,-492 418,-492 418,-456 610,-456 610,-492"/>
<text text-anchor="middle" x="514" y="-471.2" font-family="Courier,monospace" font-size="11.00">ApplicationSettingsManager</text>
</g>
<!-- \\SmartFactory\\ApplicationSettingsManager&#45;&gt;\\SmartFactory\\Interfaces\\ISettingsManager -->
<g id="edge1" class="edge"><title>\\SmartFactory\\ApplicationSettingsManager&#45;&gt;\\SmartFactory\\Interfaces\\ISettingsManager</title>
<path fill="none" stroke="black" stroke-dasharray="1,5" d="M417.989,-464.059C390.773,-461.212 361.573,-458.157 336.024,-455.483"/>
<polygon fill="none" stroke="black" points="336.366,-452 326.056,-454.44 335.637,-458.962 336.366,-452"/>
</g>
<!-- \\SmartFactory\\ConfigSettingsManager -->
<g id="node17" class="node"><title>\\SmartFactory\\ConfigSettingsManager</title>
<polygon fill="none" stroke="black" points="593,-330 435,-330 435,-294 593,-294 593,-330"/>
<text text-anchor="middle" x="514" y="-309.2" font-family="Courier,monospace" font-size="11.00">ConfigSettingsManager</text>
</g>
<!-- \\SmartFactory\\ConfigSettingsManager&#45;&gt;\\SmartFactory\\Interfaces\\ISettingsManager -->
<g id="edge2" class="edge"><title>\\SmartFactory\\ConfigSettingsManager&#45;&gt;\\SmartFactory\\Interfaces\\ISettingsManager</title>
<path fill="none" stroke="black" stroke-dasharray="1,5" d="M434.934,-329.693C428.989,-332.375 423.263,-335.457 418,-339 379.649,-364.816 392.142,-394.876 354,-421 348.332,-424.882 342.092,-428.218 335.623,-431.083"/>
<polygon fill="none" stroke="black" points="333.99,-427.968 326.023,-434.953 336.606,-434.461 333.99,-427.968"/>
</g>
<!-- \\SmartFactory\\DebugProfiler -->
<g id="node18" class="node"><title>\\SmartFactory\\DebugProfiler</title>
<polygon fill="none" stroke="black" points="566,-276 462,-276 462,-240 566,-240 566,-276"/>
<text text-anchor="middle" x="514" y="-255.2" font-family="Courier,monospace" font-size="11.00">DebugProfiler</text>
</g>
<!-- \\SmartFactory\\DebugProfiler&#45;&gt;\\SmartFactory\\Interfaces\\IDebugProfiler -->
<g id="edge6" class="edge"><title>\\SmartFactory\\DebugProfiler&#45;&gt;\\SmartFactory\\Interfaces\\IDebugProfiler</title>
<path fill="none" stroke="black" stroke-dasharray="1,5" d="M461.609,-266.332C446.689,-270.357 430.944,-276.287 418,-285 379.649,-310.816 392.142,-340.876 354,-367 346.428,-372.186 337.835,-376.398 329.04,-379.814"/>
<polygon fill="none" stroke="black" points="327.71,-376.572 319.457,-383.216 330.052,-383.169 327.71,-376.572"/>
</g>
<!-- \\SmartFactory\\ErrorHandler -->
<g id="node19" class="node"><title>\\SmartFactory\\ErrorHandler</title>
<polygon fill="none" stroke="black" points="563,-222 465,-222 465,-186 563,-186 563,-222"/>
<text text-anchor="middle" x="514" y="-201.2" font-family="Courier,monospace" font-size="11.00">ErrorHandler</text>
</g>
<!-- \\SmartFactory\\ErrorHandler&#45;&gt;\\SmartFactory\\Interfaces\\IErrorHandler -->
<g id="edge7" class="edge"><title>\\SmartFactory\\ErrorHandler&#45;&gt;\\SmartFactory\\Interfaces\\IErrorHandler</title>
<path fill="none" stroke="black" stroke-dasharray="1,5" d="M464.548,-211.56C448.778,-215.587 431.797,-221.712 418,-231 379.649,-256.816 392.142,-286.876 354,-313 345.375,-318.908 335.424,-323.552 325.36,-327.194"/>
<polygon fill="none" stroke="black" points="324.109,-323.921 315.717,-330.388 326.31,-330.566 324.109,-323.921"/>
</g>
<!-- \\SmartFactory\\EventManager -->
<g id="node20" class="node"><title>\\SmartFactory\\EventManager</title>
<polygon fill="none" stroke="black" points="563,-168 465,-168 465,-132 563,-132 563,-168"/>
<text text-anchor="middle" x="514" y="-147.2" font-family="Courier,monospace" font-size="11.00">EventManager</text>
</g>
<!-- \\SmartFactory\\EventManager&#45;&gt;\\SmartFactory\\Interfaces\\IEventManager -->
<g id="edge8" class="edge"><title>\\SmartFactory\\EventManager&#45;&gt;\\SmartFactory\\Interfaces\\IEventManager</title>
<path fill="none" stroke="black" stroke-dasharray="1,5" d="M464.548,-157.56C448.778,-161.587 431.797,-167.712 418,-177 379.649,-202.816 392.142,-232.876 354,-259 345.375,-264.908 335.424,-269.552 325.36,-273.194"/>
<polygon fill="none" stroke="black" points="324.109,-269.921 315.717,-276.388 326.31,-276.566 324.109,-269.921"/>
</g>
<!-- \\SmartFactory\\FactoryBuilder -->
<g id="node21" class="node"><title>\\SmartFactory\\FactoryBuilder</title>
<polygon fill="none" stroke="black" points="569.5,-438 458.5,-438 458.5,-402 569.5,-402 569.5,-438"/>
<text text-anchor="middle" x="514" y="-417.2" font-family="Courier,monospace" font-size="11.00">FactoryBuilder</text>
</g>
<!-- \\SmartFactory\\JsonApiRequestManager -->
<g id="node22" class="node"><title>\\SmartFactory\\JsonApiRequestManager</title>
<polygon fill="none" stroke="black" points="593,-384 435,-384 435,-348 593,-348 593,-384"/>
<text text-anchor="middle" x="514" y="-363.2" font-family="Courier,monospace" font-size="11.00">JsonApiRequestManager</text>
</g>
<!-- \\SmartFactory\\LanguageManager -->
<g id="node23" class="node"><title>\\SmartFactory\\LanguageManager</title>
<polygon fill="none" stroke="black" points="573,-654 455,-654 455,-618 573,-618 573,-654"/>
<text text-anchor="middle" x="514" y="-633.2" font-family="Courier,monospace" font-size="11.00">LanguageManager</text>
</g>
<!-- \\SmartFactory\\LanguageManager&#45;&gt;\\SmartFactory\\Interfaces\\ILanguageManager -->
<g id="edge9" class="edge"><title>\\SmartFactory\\LanguageManager&#45;&gt;\\SmartFactory\\Interfaces\\ILanguageManager</title>
<path fill="none" stroke="black" stroke-dasharray="1,5" d="M454.738,-629.904C419.465,-626.214 374.196,-621.477 336.667,-617.551"/>
<polygon fill="none" stroke="black" points="336.612,-614.026 326.302,-616.466 335.884,-620.988 336.612,-614.026"/>
</g>
<!-- \\SmartFactory\\MessageManager -->
<g id="node24" class="node"><title>\\SmartFactory\\MessageManager</title>
<polygon fill="none" stroke="black" points="569.5,-114 458.5,-114 458.5,-78 569.5,-78 569.5,-114"/>
<text text-anchor="middle" x="514" y="-93.2" font-family="Courier,monospace" font-size="11.00">MessageManager</text>
</g>
<!-- \\SmartFactory\\MessageManager&#45;&gt;\\SmartFactory\\Interfaces\\IInitable -->
<g id="edge11" class="edge"><title>\\SmartFactory\\MessageManager&#45;&gt;\\SmartFactory\\Interfaces\\IInitable</title>
<path fill="none" stroke="black" stroke-dasharray="1,5" d="M458.188,-88.721C375.477,-78.9509 223.861,-66.145 181,-97 83.9729,-166.849 71.8353,-327.257 71.0748,-392.559"/>
<polygon fill="none" stroke="black" points="67.5738,-392.891 71.0428,-402.901 74.5738,-392.912 67.5738,-392.891"/>
</g>
<!-- \\SmartFactory\\MessageManager&#45;&gt;\\SmartFactory\\Interfaces\\IMessageManager -->
<g id="edge10" class="edge"><title>\\SmartFactory\\MessageManager&#45;&gt;\\SmartFactory\\Interfaces\\IMessageManager</title>
<path fill="none" stroke="black" stroke-dasharray="1,5" d="M458.153,-105.295C444.283,-109.285 429.948,-114.957 418,-123 379.649,-148.816 392.142,-178.876 354,-205 347.336,-209.564 339.881,-213.374 332.194,-216.551"/>
<polygon fill="none" stroke="black" points="330.86,-213.313 322.74,-220.119 333.332,-219.862 330.86,-213.313"/>
</g>
<!-- \\SmartFactory\\RecordsetManager -->
<g id="node25" class="node"><title>\\SmartFactory\\RecordsetManager</title>
<polygon fill="none" stroke="black" points="576.5,-600 451.5,-600 451.5,-564 576.5,-564 576.5,-600"/>
<text text-anchor="middle" x="514" y="-579.2" font-family="Courier,monospace" font-size="11.00">RecordsetManager</text>
</g>
<!-- \\SmartFactory\\RecordsetManager&#45;&gt;\\SmartFactory\\Interfaces\\IRecordsetManager -->
<g id="edge12" class="edge"><title>\\SmartFactory\\RecordsetManager&#45;&gt;\\SmartFactory\\Interfaces\\IRecordsetManager</title>
<path fill="none" stroke="black" stroke-dasharray="1,5" d="M451.254,-575.54C417.5,-572.008 375.425,-567.606 339.761,-563.874"/>
<polygon fill="none" stroke="black" points="339.711,-560.35 329.401,-562.79 338.983,-567.312 339.711,-560.35"/>
</g>
<!-- \\SmartFactory\\SessionManager -->
<g id="node26" class="node"><title>\\SmartFactory\\SessionManager</title>
<polygon fill="none" stroke="black" points="569.5,-708 458.5,-708 458.5,-672 569.5,-672 569.5,-708"/>
<text text-anchor="middle" x="514" y="-687.2" font-family="Courier,monospace" font-size="11.00">SessionManager</text>
</g>
<!-- \\SmartFactory\\SessionManager&#45;&gt;\\SmartFactory\\Interfaces\\ISessionManager -->
<g id="edge14" class="edge"><title>\\SmartFactory\\SessionManager&#45;&gt;\\SmartFactory\\Interfaces\\ISessionManager</title>
<path fill="none" stroke="black" stroke-dasharray="1,5" d="M458.466,-684.294C421.534,-680.43 372.452,-675.295 332.902,-671.157"/>
<polygon fill="none" stroke="black" points="333.115,-667.66 322.805,-670.1 332.387,-674.622 333.115,-667.66"/>
</g>
<!-- SessionHandler -->
<g id="node29" class="node"><title>SessionHandler</title>
<ellipse fill="none" stroke="black" cx="263.5" cy="-898" rx="67.6881" ry="18"/>
<text text-anchor="middle" x="263.5" y="-894.3" font-family="Times New Roman,serif" font-size="14.00" fill="gray">SessionHandler</text>
</g>
<!-- \\SmartFactory\\SessionManager&#45;&gt;SessionHandler -->
<g id="edge13" class="edge"><title>\\SmartFactory\\SessionManager&#45;&gt;SessionHandler</title>
<path fill="none" stroke="black" d="M458.427,-695.307C444.088,-698.845 429.449,-704.621 418,-714 366.944,-755.824 399.154,-799.864 354,-848 342.202,-860.577 326.514,-870.797 311.57,-878.641"/>
<polygon fill="none" stroke="black" points="309.787,-875.619 302.404,-883.218 312.914,-881.882 309.787,-875.619"/>
</g>
<!-- \\SmartFactory\\UserSettingsManager -->
<g id="node27" class="node"><title>\\SmartFactory\\UserSettingsManager</title>
<polygon fill="none" stroke="black" points="586.5,-546 441.5,-546 441.5,-510 586.5,-510 586.5,-546"/>
<text text-anchor="middle" x="514" y="-525.2" font-family="Courier,monospace" font-size="11.00">UserSettingsManager</text>
</g>
<!-- \\SmartFactory\\UserSettingsManager&#45;&gt;\\SmartFactory\\Interfaces\\ISettingsManager -->
<g id="edge15" class="edge"><title>\\SmartFactory\\UserSettingsManager&#45;&gt;\\SmartFactory\\Interfaces\\ISettingsManager</title>
<path fill="none" stroke="black" stroke-dasharray="1,5" d="M446.018,-509.955C436.56,-507.119 426.998,-504.096 418,-501 388.968,-491.011 382.95,-485.222 354,-475 348.175,-472.943 342.104,-470.901 335.988,-468.915"/>
<polygon fill="none" stroke="black" points="336.961,-465.551 326.37,-465.845 334.833,-472.22 336.961,-465.551"/>
</g>
<!-- \\SmartFactory\\XmlApiRequestManager -->
<g id="node28" class="node"><title>\\SmartFactory\\XmlApiRequestManager</title>
<polygon fill="none" stroke="black" points="590,-60 438,-60 438,-24 590,-24 590,-60"/>
<text text-anchor="start" x="480" y="-45.2" font-family="Courier,monospace" font-size="11.00">«abstract»</text>
<text text-anchor="start" x="446" y="-33.2" font-family="Courier,monospace" font-size="11.00">XmlApiRequestManager</text>
</g>
</g>
</svg>
