<?xml version="1.0" encoding="UTF-8" standalone="no"?>
<!DOCTYPE svg PUBLIC "-//W3C//DTD SVG 1.1//EN"
 "http://www.w3.org/Graphics/SVG/1.1/DTD/svg11.dtd">
<!-- Generated by graphviz version 2.38.0 (20140413.2041)
 -->
<!-- Title: G Pages: 1 -->
<svg width="642pt" height="1146pt"
 viewBox="0.00 0.00 642.00 1146.00" xmlns="http://www.w3.org/2000/svg" xmlns:xlink="http://www.w3.org/1999/xlink">
<g id="graph0" class="graph" transform="scale(1 1) rotate(0) translate(4 1142)">
<title>G</title>
<polygon fill="white" stroke="none" points="-4,4 -4,-1142 638,-1142 638,4 -4,4"/>
<g id="clust1" class="cluster"><title>cluster_Global</title>
<path fill="none" stroke="gray" d="M20,-8C20,-8 614,-8 614,-8 620,-8 626,-14 626,-20 626,-20 626,-1118 626,-1118 626,-1124 620,-1130 614,-1130 614,-1130 20,-1130 20,-1130 14,-1130 8,-1124 8,-1118 8,-1118 8,-20 8,-20 8,-14 14,-8 20,-8"/>
<text text-anchor="middle" x="317" y="-1117.2" font-family="Times New Roman,serif" font-size="11.00" fill="gray">Global</text>
</g>
<g id="clust2" class="cluster"><title>cluster_\SmartFactory</title>
<path fill="none" stroke="gray" d="M28,-16C28,-16 606,-16 606,-16 612,-16 618,-22 618,-28 618,-28 618,-992 618,-992 618,-998 612,-1004 606,-1004 606,-1004 28,-1004 28,-1004 22,-1004 16,-998 16,-992 16,-992 16,-28 16,-28 16,-22 22,-16 28,-16"/>
<text text-anchor="middle" x="317" y="-991.2" font-family="Times New Roman,serif" font-size="11.00" fill="gray">SmartFactory</text>
</g>
<g id="clust3" class="cluster"><title>cluster_\SmartFactory\DatabaseWorkers</title>
<path fill="none" stroke="gray" d="M225.5,-698C225.5,-698 565.5,-698 565.5,-698 571.5,-698 577.5,-704 577.5,-710 577.5,-710 577.5,-866 577.5,-866 577.5,-872 571.5,-878 565.5,-878 565.5,-878 225.5,-878 225.5,-878 219.5,-878 213.5,-872 213.5,-866 213.5,-866 213.5,-710 213.5,-710 213.5,-704 219.5,-698 225.5,-698"/>
<text text-anchor="middle" x="395.5" y="-865.2" font-family="Times New Roman,serif" font-size="11.00" fill="gray">DatabaseWorkers</text>
</g>
<g id="clust4" class="cluster"><title>cluster_\SmartFactory\Interfaces</title>
<path fill="none" stroke="gray" d="M36,-24C36,-24 342,-24 342,-24 348,-24 354,-30 354,-36 354,-36 354,-678 354,-678 354,-684 348,-690 342,-690 342,-690 36,-690 36,-690 30,-690 24,-684 24,-678 24,-678 24,-36 24,-36 24,-30 30,-24 36,-24"/>
<text text-anchor="middle" x="189" y="-677.2" font-family="Times New Roman,serif" font-size="11.00" fill="gray">Interfaces</text>
</g>
<!-- \\SmartFactory\\DatabaseWorkers\\DBWorker -->
<g id="node1" class="node"><title>\\SmartFactory\\DatabaseWorkers\\DBWorker</title>
<polygon fill="none" stroke="black" points="305.5,-796 221.5,-796 221.5,-760 305.5,-760 305.5,-796"/>
<text text-anchor="start" x="229.5" y="-781.2" font-family="Courier,monospace" font-size="11.00">«abstract»</text>
<text text-anchor="start" x="236" y="-769.2" font-family="Courier,monospace" font-size="11.00">DBWorker</text>
</g>
<!-- \\SmartFactory\\Interfaces\\IInitable -->
<g id="node8" class="node"><title>\\SmartFactory\\Interfaces\\IInitable</title>
<polygon fill="none" stroke="black" points="109,-365 32,-365 32,-329 109,-329 109,-365"/>
<text text-anchor="middle" x="70.5" y="-344.2" font-family="Courier,monospace" font-size="11.00">IInitable</text>
</g>
<!-- \\SmartFactory\\DatabaseWorkers\\DBWorker&#45;&gt;\\SmartFactory\\Interfaces\\IInitable -->
<g id="edge3" class="edge"><title>\\SmartFactory\\DatabaseWorkers\\DBWorker&#45;&gt;\\SmartFactory\\Interfaces\\IInitable</title>
<path fill="none" stroke="black" stroke-dasharray="1,5" d="M239.819,-759.869C221.577,-744.19 196.513,-719.999 181,-694 116.722,-586.276 86.2779,-436.884 75.8543,-375.284"/>
<polygon fill="none" stroke="black" points="79.2668,-374.466 74.1903,-365.166 72.3596,-375.602 79.2668,-374.466"/>
</g>
<!-- \\SmartFactory\\DatabaseWorkers\\MSSQL_DBWorker -->
<g id="node2" class="node"><title>\\SmartFactory\\DatabaseWorkers\\MSSQL_DBWorker</title>
<polygon fill="none" stroke="black" points="569.5,-850 458.5,-850 458.5,-814 569.5,-814 569.5,-850"/>
<text text-anchor="middle" x="514" y="-829.2" font-family="Courier,monospace" font-size="11.00">MSSQL_DBWorker</text>
</g>
<!-- \\SmartFactory\\DatabaseWorkers\\MSSQL_DBWorker&#45;&gt;\\SmartFactory\\DatabaseWorkers\\DBWorker -->
<g id="edge4" class="edge"><title>\\SmartFactory\\DatabaseWorkers\\MSSQL_DBWorker&#45;&gt;\\SmartFactory\\DatabaseWorkers\\DBWorker</title>
<path fill="none" stroke="black" d="M458.466,-820.149C415.965,-810.914 357.375,-798.182 315.738,-789.134"/>
<polygon fill="none" stroke="black" points="316.318,-785.679 305.803,-786.975 314.831,-792.519 316.318,-785.679"/>
</g>
<!-- \\SmartFactory\\DatabaseWorkers\\MySQL_DBWorker -->
<g id="node3" class="node"><title>\\SmartFactory\\DatabaseWorkers\\MySQL_DBWorker</title>
<polygon fill="none" stroke="black" points="569.5,-796 458.5,-796 458.5,-760 569.5,-760 569.5,-796"/>
<text text-anchor="middle" x="514" y="-775.2" font-family="Courier,monospace" font-size="11.00">MySQL_DBWorker</text>
</g>
<!-- \\SmartFactory\\DatabaseWorkers\\MySQL_DBWorker&#45;&gt;\\SmartFactory\\DatabaseWorkers\\DBWorker -->
<g id="edge5" class="edge"><title>\\SmartFactory\\DatabaseWorkers\\MySQL_DBWorker&#45;&gt;\\SmartFactory\\DatabaseWorkers\\DBWorker</title>
<path fill="none" stroke="black" d="M458.466,-778C416.055,-778 357.623,-778 316.002,-778"/>
<polygon fill="none" stroke="black" points="315.803,-774.5 305.803,-778 315.803,-781.5 315.803,-774.5"/>
</g>
<!-- \\SmartFactory\\DatabaseWorkers\\ShardManager -->
<g id="node4" class="node"><title>\\SmartFactory\\DatabaseWorkers\\ShardManager</title>
<polygon fill="none" stroke="black" points="563,-742 465,-742 465,-706 563,-706 563,-742"/>
<text text-anchor="middle" x="514" y="-721.2" font-family="Courier,monospace" font-size="11.00">ShardManager</text>
</g>
<!-- \\SmartFactory\\Interfaces\\IShardManager -->
<g id="node16" class="node"><title>\\SmartFactory\\Interfaces\\IShardManager</title>
<polygon fill="none" stroke="black" points="315.5,-608 211.5,-608 211.5,-572 315.5,-572 315.5,-608"/>
<text text-anchor="middle" x="263.5" y="-587.2" font-family="Courier,monospace" font-size="11.00">IShardManager</text>
</g>
<!-- \\SmartFactory\\DatabaseWorkers\\ShardManager&#45;&gt;\\SmartFactory\\Interfaces\\IShardManager -->
<g id="edge6" class="edge"><title>\\SmartFactory\\DatabaseWorkers\\ShardManager&#45;&gt;\\SmartFactory\\Interfaces\\IShardManager</title>
<path fill="none" stroke="black" stroke-dasharray="1,5" d="M464.514,-719.441C448.741,-716.278 431.768,-710.951 418,-702 378.354,-676.223 392.782,-644.059 354,-617 345.426,-611.018 335.501,-606.337 325.447,-602.681"/>
<polygon fill="none" stroke="black" points="326.401,-599.31 315.808,-599.48 324.195,-605.953 326.401,-599.31"/>
</g>
<!-- \\SmartFactory\\Interfaces\\IDebugProfiler -->
<g id="node5" class="node"><title>\\SmartFactory\\Interfaces\\IDebugProfiler</title>
<polygon fill="none" stroke="black" points="319,-554 208,-554 208,-518 319,-518 319,-554"/>
<text text-anchor="middle" x="263.5" y="-533.2" font-family="Courier,monospace" font-size="11.00">IDebugProfiler</text>
</g>
<!-- \\SmartFactory\\Interfaces\\IDebugProfiler&#45;&gt;\\SmartFactory\\Interfaces\\IInitable -->
<g id="edge17" class="edge"><title>\\SmartFactory\\Interfaces\\IDebugProfiler&#45;&gt;\\SmartFactory\\Interfaces\\IInitable</title>
<path fill="none" stroke="black" d="M207.844,-523.439C198.338,-519.752 188.961,-515.029 181,-509 133.629,-473.126 99.8443,-410.57 83.2138,-374.593"/>
<polygon fill="none" stroke="black" points="86.2789,-372.876 78.981,-365.195 79.8963,-375.75 86.2789,-372.876"/>
</g>
<!-- \\SmartFactory\\Interfaces\\IErrorHandler -->
<g id="node6" class="node"><title>\\SmartFactory\\Interfaces\\IErrorHandler</title>
<polygon fill="none" stroke="black" points="315.5,-446 211.5,-446 211.5,-410 315.5,-410 315.5,-446"/>
<text text-anchor="middle" x="263.5" y="-425.2" font-family="Courier,monospace" font-size="11.00">IErrorHandler</text>
</g>
<!-- \\SmartFactory\\Interfaces\\IErrorHandler&#45;&gt;\\SmartFactory\\Interfaces\\IInitable -->
<g id="edge18" class="edge"><title>\\SmartFactory\\Interfaces\\IErrorHandler&#45;&gt;\\SmartFactory\\Interfaces\\IInitable</title>
<path fill="none" stroke="black" d="M211.238,-412.22C201.122,-408.769 190.654,-404.957 181,-401 158.482,-391.769 134.136,-379.956 114.132,-369.734"/>
<polygon fill="none" stroke="black" points="115.471,-366.486 104.979,-365.014 112.262,-372.708 115.471,-366.486"/>
</g>
<!-- \\SmartFactory\\Interfaces\\IEventManager -->
<g id="node7" class="node"><title>\\SmartFactory\\Interfaces\\IEventManager</title>
<polygon fill="none" stroke="black" points="315.5,-392 211.5,-392 211.5,-356 315.5,-356 315.5,-392"/>
<text text-anchor="middle" x="263.5" y="-371.2" font-family="Courier,monospace" font-size="11.00">IEventManager</text>
</g>
<!-- \\SmartFactory\\Interfaces\\IJsonApiRequestHandler -->
<g id="node9" class="node"><title>\\SmartFactory\\Interfaces\\IJsonApiRequestHandler</title>
<polygon fill="none" stroke="black" points="346,-500 181,-500 181,-464 346,-464 346,-500"/>
<text text-anchor="middle" x="263.5" y="-479.2" font-family="Courier,monospace" font-size="11.00">IJsonApiRequestHandler</text>
</g>
<!-- \\SmartFactory\\Interfaces\\ILanguageManager -->
<g id="node10" class="node"><title>\\SmartFactory\\Interfaces\\ILanguageManager</title>
<polygon fill="none" stroke="black" points="326,-284 201,-284 201,-248 326,-248 326,-284"/>
<text text-anchor="middle" x="263.5" y="-263.2" font-family="Courier,monospace" font-size="11.00">ILanguageManager</text>
</g>
<!-- \\SmartFactory\\Interfaces\\ILanguageManager&#45;&gt;\\SmartFactory\\Interfaces\\IInitable -->
<g id="edge19" class="edge"><title>\\SmartFactory\\Interfaces\\ILanguageManager&#45;&gt;\\SmartFactory\\Interfaces\\IInitable</title>
<path fill="none" stroke="black" d="M204.698,-284.046C196.673,-286.871 188.585,-289.891 181,-293 158.482,-302.231 134.136,-314.044 114.132,-324.266"/>
<polygon fill="none" stroke="black" points="112.262,-321.292 104.979,-328.986 115.471,-327.514 112.262,-321.292"/>
</g>
<!-- \\SmartFactory\\Interfaces\\IMessageManager -->
<g id="node11" class="node"><title>\\SmartFactory\\Interfaces\\IMessageManager</title>
<polygon fill="none" stroke="black" points="322.5,-230 204.5,-230 204.5,-194 322.5,-194 322.5,-230"/>
<text text-anchor="middle" x="263.5" y="-209.2" font-family="Courier,monospace" font-size="11.00">IMessageManager</text>
</g>
<!-- \\SmartFactory\\Interfaces\\IMessageManager&#45;&gt;\\SmartFactory\\Interfaces\\IInitable -->
<g id="edge20" class="edge"><title>\\SmartFactory\\Interfaces\\IMessageManager&#45;&gt;\\SmartFactory\\Interfaces\\IInitable</title>
<path fill="none" stroke="black" d="M204.459,-227.541C196.307,-230.766 188.247,-234.565 181,-239 145.192,-260.915 112.065,-296.649 91.8322,-320.961"/>
<polygon fill="none" stroke="black" points="89.0992,-318.774 85.4798,-328.731 94.5188,-323.204 89.0992,-318.774"/>
</g>
<!-- \\SmartFactory\\Interfaces\\IRecordsetManager -->
<g id="node12" class="node"><title>\\SmartFactory\\Interfaces\\IRecordsetManager</title>
<polygon fill="none" stroke="black" points="329,-338 198,-338 198,-302 329,-302 329,-338"/>
<text text-anchor="middle" x="263.5" y="-317.2" font-family="Courier,monospace" font-size="11.00">IRecordsetManager</text>
</g>
<!-- \\SmartFactory\\Interfaces\\ISessionManager -->
<g id="node13" class="node"><title>\\SmartFactory\\Interfaces\\ISessionManager</title>
<polygon fill="none" stroke="black" points="322.5,-662 204.5,-662 204.5,-626 322.5,-626 322.5,-662"/>
<text text-anchor="middle" x="263.5" y="-641.2" font-family="Courier,monospace" font-size="11.00">ISessionManager</text>
</g>
<!-- \\SmartFactory\\Interfaces\\ISettingsManager -->
<g id="node14" class="node"><title>\\SmartFactory\\Interfaces\\ISettingsManager</title>
<polygon fill="none" stroke="black" points="326,-122 201,-122 201,-86 326,-86 326,-122"/>
<text text-anchor="middle" x="263.5" y="-101.2" font-family="Courier,monospace" font-size="11.00">ISettingsManager</text>
</g>
<!-- \\SmartFactory\\Interfaces\\ISettingsManager&#45;&gt;\\SmartFactory\\Interfaces\\IInitable -->
<g id="edge21" class="edge"><title>\\SmartFactory\\Interfaces\\ISettingsManager&#45;&gt;\\SmartFactory\\Interfaces\\IInitable</title>
<path fill="none" stroke="black" d="M200.912,-118.477C193.725,-121.827 186.874,-125.943 181,-131 121.731,-182.022 90.7812,-272.936 78.2883,-318.834"/>
<polygon fill="none" stroke="black" points="74.8522,-318.139 75.7002,-328.7 81.6231,-319.915 74.8522,-318.139"/>
</g>
<!-- \\SmartFactory\\Interfaces\\ISettingsValidator -->
<g id="node15" class="node"><title>\\SmartFactory\\Interfaces\\ISettingsValidator</title>
<polygon fill="none" stroke="black" points="332.5,-176 194.5,-176 194.5,-140 332.5,-140 332.5,-176"/>
<text text-anchor="middle" x="263.5" y="-155.2" font-family="Courier,monospace" font-size="11.00">ISettingsValidator</text>
</g>
<!-- \\SmartFactory\\Interfaces\\IXmlApiRequestHandler -->
<g id="node17" class="node"><title>\\SmartFactory\\Interfaces\\IXmlApiRequestHandler</title>
<polygon fill="none" stroke="black" points="342.5,-68 184.5,-68 184.5,-32 342.5,-32 342.5,-68"/>
<text text-anchor="middle" x="263.5" y="-47.2" font-family="Courier,monospace" font-size="11.00">IXmlApiRequestHandler</text>
</g>
<!-- \\SmartFactory\\ApplicationSettingsManager -->
<g id="node18" class="node"><title>\\SmartFactory\\ApplicationSettingsManager</title>
<polygon fill="none" stroke="black" points="610,-114 418,-114 418,-78 610,-78 610,-114"/>
<text text-anchor="middle" x="514" y="-93.2" font-family="Courier,monospace" font-size="11.00">ApplicationSettingsManager</text>
</g>
<!-- \\SmartFactory\\ApplicationSettingsManager&#45;&gt;\\SmartFactory\\Interfaces\\ISettingsManager -->
<g id="edge1" class="edge"><title>\\SmartFactory\\ApplicationSettingsManager&#45;&gt;\\SmartFactory\\Interfaces\\ISettingsManager</title>
<path fill="none" stroke="black" stroke-dasharray="1,5" d="M417.989,-99.0587C390.894,-99.931 361.831,-100.867 336.363,-101.686"/>
<polygon fill="none" stroke="black" points="335.938,-98.1983 326.056,-102.018 336.163,-105.195 335.938,-98.1983"/>
</g>
<!-- \\SmartFactory\\ConfigSettingsManager -->
<g id="node19" class="node"><title>\\SmartFactory\\ConfigSettingsManager</title>
<polygon fill="none" stroke="black" points="593,-222 435,-222 435,-186 593,-186 593,-222"/>
<text text-anchor="middle" x="514" y="-201.2" font-family="Courier,monospace" font-size="11.00">ConfigSettingsManager</text>
</g>
<!-- \\SmartFactory\\ConfigSettingsManager&#45;&gt;\\SmartFactory\\Interfaces\\ISettingsManager -->
<g id="edge2" class="edge"><title>\\SmartFactory\\ConfigSettingsManager&#45;&gt;\\SmartFactory\\Interfaces\\ISettingsManager</title>
<path fill="none" stroke="black" stroke-dasharray="1,5" d="M439.682,-185.961C432.223,-183.3 424.87,-180.319 418,-177 386.459,-161.762 385.418,-146.491 354,-131 348.268,-128.174 342.183,-125.578 335.987,-123.209"/>
<polygon fill="none" stroke="black" points="336.791,-119.778 326.196,-119.673 334.412,-126.362 336.791,-119.778"/>
</g>
<!-- \\SmartFactory\\DebugProfiler -->
<g id="node20" class="node"><title>\\SmartFactory\\DebugProfiler</title>
<polygon fill="none" stroke="black" points="566,-654 462,-654 462,-618 566,-618 566,-654"/>
<text text-anchor="middle" x="514" y="-633.2" font-family="Courier,monospace" font-size="11.00">DebugProfiler</text>
</g>
<!-- \\SmartFactory\\DebugProfiler&#45;&gt;\\SmartFactory\\Interfaces\\IDebugProfiler -->
<g id="edge7" class="edge"><title>\\SmartFactory\\DebugProfiler&#45;&gt;\\SmartFactory\\Interfaces\\IDebugProfiler</title>
<path fill="none" stroke="black" stroke-dasharray="1,5" d="M461.512,-624.858C447.057,-620.805 431.586,-615.564 418,-609 386.459,-593.762 385.418,-578.491 354,-563 346.068,-559.089 337.457,-555.619 328.817,-552.581"/>
<polygon fill="none" stroke="black" points="329.677,-549.178 319.083,-549.333 327.461,-555.818 329.677,-549.178"/>
</g>
<!-- \\SmartFactory\\ErrorHandler -->
<g id="node21" class="node"><title>\\SmartFactory\\ErrorHandler</title>
<polygon fill="none" stroke="black" points="563,-600 465,-600 465,-564 563,-564 563,-600"/>
<text text-anchor="middle" x="514" y="-579.2" font-family="Courier,monospace" font-size="11.00">ErrorHandler</text>
</g>
<!-- \\SmartFactory\\ErrorHandler&#45;&gt;\\SmartFactory\\Interfaces\\IErrorHandler -->
<g id="edge8" class="edge"><title>\\SmartFactory\\ErrorHandler&#45;&gt;\\SmartFactory\\Interfaces\\IErrorHandler</title>
<path fill="none" stroke="black" stroke-dasharray="1,5" d="M464.518,-575.296C448.569,-571.33 431.486,-565.024 418,-555 375.65,-523.522 396.095,-486.818 354,-455 345.562,-448.622 335.62,-443.742 325.486,-440.01"/>
<polygon fill="none" stroke="black" points="326.348,-436.608 315.754,-436.772 324.138,-443.25 326.348,-436.608"/>
</g>
<!-- \\SmartFactory\\EventManager -->
<g id="node22" class="node"><title>\\SmartFactory\\EventManager</title>
<polygon fill="none" stroke="black" points="563,-546 465,-546 465,-510 563,-510 563,-546"/>
<text text-anchor="middle" x="514" y="-525.2" font-family="Courier,monospace" font-size="11.00">EventManager</text>
</g>
<!-- \\SmartFactory\\EventManager&#45;&gt;\\SmartFactory\\Interfaces\\IEventManager -->
<g id="edge9" class="edge"><title>\\SmartFactory\\EventManager&#45;&gt;\\SmartFactory\\Interfaces\\IEventManager</title>
<path fill="none" stroke="black" stroke-dasharray="1,5" d="M464.518,-521.296C448.569,-517.33 431.486,-511.024 418,-501 375.65,-469.522 396.095,-432.818 354,-401 345.562,-394.622 335.62,-389.742 325.486,-386.01"/>
<polygon fill="none" stroke="black" points="326.348,-382.608 315.754,-382.772 324.138,-389.25 326.348,-382.608"/>
</g>
<!-- \\SmartFactory\\FactoryBuilder -->
<g id="node23" class="node"><title>\\SmartFactory\\FactoryBuilder</title>
<polygon fill="none" stroke="black" points="569.5,-492 458.5,-492 458.5,-456 569.5,-456 569.5,-492"/>
<text text-anchor="middle" x="514" y="-471.2" font-family="Courier,monospace" font-size="11.00">FactoryBuilder</text>
</g>
<!-- \\SmartFactory\\JsonApiRequestManager -->
<g id="node24" class="node"><title>\\SmartFactory\\JsonApiRequestManager</title>
<polygon fill="none" stroke="black" points="593,-438 435,-438 435,-402 593,-402 593,-438"/>
<text text-anchor="middle" x="514" y="-417.2" font-family="Courier,monospace" font-size="11.00">JsonApiRequestManager</text>
</g>
<!-- \\SmartFactory\\LanguageManager -->
<g id="node25" class="node"><title>\\SmartFactory\\LanguageManager</title>
<polygon fill="none" stroke="black" points="573,-330 455,-330 455,-294 573,-294 573,-330"/>
<text text-anchor="middle" x="514" y="-309.2" font-family="Courier,monospace" font-size="11.00">LanguageManager</text>
</g>
<!-- \\SmartFactory\\LanguageManager&#45;&gt;\\SmartFactory\\Interfaces\\ILanguageManager -->
<g id="edge10" class="edge"><title>\\SmartFactory\\LanguageManager&#45;&gt;\\SmartFactory\\Interfaces\\ILanguageManager</title>
<path fill="none" stroke="black" stroke-dasharray="1,5" d="M454.738,-301.215C419.314,-294.658 373.809,-286.234 336.187,-279.27"/>
<polygon fill="none" stroke="black" points="336.772,-275.819 326.302,-277.44 335.498,-282.702 336.772,-275.819"/>
</g>
<!-- \\SmartFactory\\MessageManager -->
<g id="node26" class="node"><title>\\SmartFactory\\MessageManager</title>
<polygon fill="none" stroke="black" points="569.5,-276 458.5,-276 458.5,-240 569.5,-240 569.5,-276"/>
<text text-anchor="middle" x="514" y="-255.2" font-family="Courier,monospace" font-size="11.00">MessageManager</text>
</g>
<!-- \\SmartFactory\\MessageManager&#45;&gt;\\SmartFactory\\Interfaces\\IMessageManager -->
<g id="edge11" class="edge"><title>\\SmartFactory\\MessageManager&#45;&gt;\\SmartFactory\\Interfaces\\IMessageManager</title>
<path fill="none" stroke="black" stroke-dasharray="1,5" d="M458.466,-247.905C421.455,-241.054 372.243,-231.944 332.651,-224.615"/>
<polygon fill="none" stroke="black" points="333.275,-221.172 322.805,-222.793 332.001,-228.055 333.275,-221.172"/>
</g>
<!-- \\SmartFactory\\RecordsetManager -->
<g id="node27" class="node"><title>\\SmartFactory\\RecordsetManager</title>
<polygon fill="none" stroke="black" points="576.5,-384 451.5,-384 451.5,-348 576.5,-348 576.5,-384"/>
<text text-anchor="middle" x="514" y="-363.2" font-family="Courier,monospace" font-size="11.00">RecordsetManager</text>
</g>
<!-- \\SmartFactory\\RecordsetManager&#45;&gt;\\SmartFactory\\Interfaces\\IRecordsetManager -->
<g id="edge12" class="edge"><title>\\SmartFactory\\RecordsetManager&#45;&gt;\\SmartFactory\\Interfaces\\IRecordsetManager</title>
<path fill="none" stroke="black" stroke-dasharray="1,5" d="M451.254,-354.57C417.355,-348.295 375.063,-340.466 339.302,-333.847"/>
<polygon fill="none" stroke="black" points="339.871,-330.393 329.401,-332.014 338.597,-337.276 339.871,-330.393"/>
</g>
<!-- \\SmartFactory\\SessionManager -->
<g id="node28" class="node"><title>\\SmartFactory\\SessionManager</title>
<polygon fill="none" stroke="black" points="569.5,-922 458.5,-922 458.5,-886 569.5,-886 569.5,-922"/>
<text text-anchor="middle" x="514" y="-901.2" font-family="Courier,monospace" font-size="11.00">SessionManager</text>
</g>
<!-- \\SmartFactory\\SessionManager&#45;&gt;\\SmartFactory\\Interfaces\\ISessionManager -->
<g id="edge14" class="edge"><title>\\SmartFactory\\SessionManager&#45;&gt;\\SmartFactory\\Interfaces\\ISessionManager</title>
<path fill="none" stroke="black" stroke-dasharray="1,5" d="M458.236,-900.921C443.729,-897.714 429.051,-891.992 418,-882 352.53,-822.803 410.505,-761.807 354,-694 344.923,-683.107 332.828,-674.152 320.473,-666.983"/>
<polygon fill="none" stroke="black" points="321.925,-663.789 311.47,-662.077 318.576,-669.935 321.925,-663.789"/>
</g>
<!-- SessionHandler -->
<g id="node32" class="node"><title>SessionHandler</title>
<ellipse fill="none" stroke="black" cx="263.5" cy="-1030" rx="67.6881" ry="18"/>
<text text-anchor="middle" x="263.5" y="-1026.3" font-family="Times New Roman,serif" font-size="14.00" fill="gray">SessionHandler</text>
</g>
<!-- \\SmartFactory\\SessionManager&#45;&gt;SessionHandler -->
<g id="edge13" class="edge"><title>\\SmartFactory\\SessionManager&#45;&gt;SessionHandler</title>
<path fill="none" stroke="black" d="M458.253,-916.576C444.811,-920.47 430.654,-925.275 418,-931 372.245,-951.701 324.357,-984.676 294.485,-1006.82"/>
<polygon fill="none" stroke="black" points="292.089,-1004.24 286.184,-1013.04 296.286,-1009.84 292.089,-1004.24"/>
</g>
<!-- \\SmartFactory\\SmartException -->
<g id="node29" class="node"><title>\\SmartFactory\\SmartException</title>
<polygon fill="none" stroke="black" points="569.5,-976 458.5,-976 458.5,-940 569.5,-940 569.5,-976"/>
<text text-anchor="middle" x="514" y="-955.2" font-family="Courier,monospace" font-size="11.00">SmartException</text>
</g>
<!-- Exception -->
<g id="node33" class="node"><title>Exception</title>
<ellipse fill="none" stroke="black" cx="263.5" cy="-1084" rx="47.3916" ry="18"/>
<text text-anchor="middle" x="263.5" y="-1080.3" font-family="Times New Roman,serif" font-size="14.00" fill="gray">Exception</text>
</g>
<!-- \\SmartFactory\\SmartException&#45;&gt;Exception -->
<g id="edge15" class="edge"><title>\\SmartFactory\\SmartException&#45;&gt;Exception</title>
<path fill="none" stroke="black" d="M488.543,-976.104C458.269,-997.818 404.512,-1034.14 354,-1057 341.392,-1062.71 327.254,-1067.61 314.004,-1071.6"/>
<polygon fill="none" stroke="black" points="312.712,-1068.33 304.085,-1074.48 314.664,-1075.06 312.712,-1068.33"/>
</g>
<!-- \\SmartFactory\\UserSettingsManager -->
<g id="node30" class="node"><title>\\SmartFactory\\UserSettingsManager</title>
<polygon fill="none" stroke="black" points="586.5,-168 441.5,-168 441.5,-132 586.5,-132 586.5,-168"/>
<text text-anchor="middle" x="514" y="-147.2" font-family="Courier,monospace" font-size="11.00">UserSettingsManager</text>
</g>
<!-- \\SmartFactory\\UserSettingsManager&#45;&gt;\\SmartFactory\\Interfaces\\ISettingsManager -->
<g id="edge16" class="edge"><title>\\SmartFactory\\UserSettingsManager&#45;&gt;\\SmartFactory\\Interfaces\\ISettingsManager</title>
<path fill="none" stroke="black" stroke-dasharray="1,5" d="M441.457,-136.757C408.452,-130.647 369.356,-123.41 336.318,-117.294"/>
<polygon fill="none" stroke="black" points="336.743,-113.813 326.272,-115.435 335.468,-120.697 336.743,-113.813"/>
</g>
<!-- \\SmartFactory\\XmlApiRequestManager -->
<g id="node31" class="node"><title>\\SmartFactory\\XmlApiRequestManager</title>
<polygon fill="none" stroke="black" points="590,-60 438,-60 438,-24 590,-24 590,-60"/>
<text text-anchor="start" x="480" y="-45.2" font-family="Courier,monospace" font-size="11.00">«abstract»</text>
<text text-anchor="start" x="446" y="-33.2" font-family="Courier,monospace" font-size="11.00">XmlApiRequestManager</text>
</g>
</g>
</svg>
