<?xml version="1.0" encoding="UTF-8" standalone="no"?>
<!DOCTYPE svg PUBLIC "-//W3C//DTD SVG 1.1//EN"
 "http://www.w3.org/Graphics/SVG/1.1/DTD/svg11.dtd">
<!-- Generated by graphviz version 2.38.0 (20140413.2041)
 -->
<!-- Title: G Pages: 1 -->
<svg width="615pt" height="1038pt"
 viewBox="0.00 0.00 615.00 1038.00" xmlns="http://www.w3.org/2000/svg" xmlns:xlink="http://www.w3.org/1999/xlink">
<g id="graph0" class="graph" transform="scale(1 1) rotate(0) translate(4 1034)">
<title>G</title>
<polygon fill="white" stroke="none" points="-4,4 -4,-1034 611,-1034 611,4 -4,4"/>
<g id="clust1" class="cluster"><title>cluster_Global</title>
<path fill="none" stroke="gray" d="M20,-8C20,-8 587,-8 587,-8 593,-8 599,-14 599,-20 599,-20 599,-1010 599,-1010 599,-1016 593,-1022 587,-1022 587,-1022 20,-1022 20,-1022 14,-1022 8,-1016 8,-1010 8,-1010 8,-20 8,-20 8,-14 14,-8 20,-8"/>
<text text-anchor="middle" x="303.5" y="-1009.2" font-family="Times New Roman,serif" font-size="11.00" fill="gray">Global</text>
</g>
<g id="clust2" class="cluster"><title>cluster_\SmartFactory</title>
<path fill="none" stroke="gray" d="M28,-16C28,-16 579,-16 579,-16 585,-16 591,-22 591,-28 591,-28 591,-938 591,-938 591,-944 585,-950 579,-950 579,-950 28,-950 28,-950 22,-950 16,-944 16,-938 16,-938 16,-28 16,-28 16,-22 22,-16 28,-16"/>
<text text-anchor="middle" x="303.5" y="-937.2" font-family="Times New Roman,serif" font-size="11.00" fill="gray">SmartFactory</text>
</g>
<g id="clust3" class="cluster"><title>cluster_\SmartFactory\DatabaseWorkers</title>
<path fill="none" stroke="gray" d="M225.5,-698C225.5,-698 552,-698 552,-698 558,-698 564,-704 564,-710 564,-710 564,-866 564,-866 564,-872 558,-878 552,-878 552,-878 225.5,-878 225.5,-878 219.5,-878 213.5,-872 213.5,-866 213.5,-866 213.5,-710 213.5,-710 213.5,-704 219.5,-698 225.5,-698"/>
<text text-anchor="middle" x="388.75" y="-865.2" font-family="Times New Roman,serif" font-size="11.00" fill="gray">DatabaseWorkers</text>
</g>
<g id="clust4" class="cluster"><title>cluster_\SmartFactory\Interfaces</title>
<path fill="none" stroke="gray" d="M36,-24C36,-24 342,-24 342,-24 348,-24 354,-30 354,-36 354,-36 354,-678 354,-678 354,-684 348,-690 342,-690 342,-690 36,-690 36,-690 30,-690 24,-684 24,-678 24,-678 24,-36 24,-36 24,-30 30,-24 36,-24"/>
<text text-anchor="middle" x="189" y="-677.2" font-family="Times New Roman,serif" font-size="11.00" fill="gray">Interfaces</text>
</g>
<!-- \\SmartFactory\\DatabaseWorkers\\DBWorker -->
<g id="node1" class="node"><title>\\SmartFactory\\DatabaseWorkers\\DBWorker</title>
<polygon fill="none" stroke="black" points="305.5,-796 221.5,-796 221.5,-760 305.5,-760 305.5,-796"/>
<text text-anchor="start" x="229.5" y="-781.2" font-family="Courier,monospace" font-size="11.00">«abstract»</text>
<text text-anchor="start" x="236" y="-769.2" font-family="Courier,monospace" font-size="11.00">DBWorker</text>
</g>
<!-- \\SmartFactory\\Interfaces\\IInitable -->
<g id="node8" class="node"><title>\\SmartFactory\\Interfaces\\IInitable</title>
<polygon fill="none" stroke="black" points="109,-392 32,-392 32,-356 109,-356 109,-392"/>
<text text-anchor="middle" x="70.5" y="-371.2" font-family="Courier,monospace" font-size="11.00">IInitable</text>
</g>
<!-- \\SmartFactory\\DatabaseWorkers\\DBWorker&#45;&gt;\\SmartFactory\\Interfaces\\IInitable -->
<g id="edge2" class="edge"><title>\\SmartFactory\\DatabaseWorkers\\DBWorker&#45;&gt;\\SmartFactory\\Interfaces\\IInitable</title>
<path fill="none" stroke="black" stroke-dasharray="1,5" d="M239.982,-759.771C221.837,-744.032 196.825,-719.811 181,-694 120.759,-595.743 88.5227,-460.039 76.7613,-402.074"/>
<polygon fill="none" stroke="black" points="80.1783,-401.311 74.8014,-392.182 73.3118,-402.672 80.1783,-401.311"/>
</g>
<!-- \\SmartFactory\\DatabaseWorkers\\MSSQL_DBWorker -->
<g id="node2" class="node"><title>\\SmartFactory\\DatabaseWorkers\\MSSQL_DBWorker</title>
<polygon fill="none" stroke="black" points="556,-850 445,-850 445,-814 556,-814 556,-850"/>
<text text-anchor="middle" x="500.5" y="-829.2" font-family="Courier,monospace" font-size="11.00">MSSQL_DBWorker</text>
</g>
<!-- \\SmartFactory\\DatabaseWorkers\\MSSQL_DBWorker&#45;&gt;\\SmartFactory\\DatabaseWorkers\\DBWorker -->
<g id="edge3" class="edge"><title>\\SmartFactory\\DatabaseWorkers\\MSSQL_DBWorker&#45;&gt;\\SmartFactory\\DatabaseWorkers\\DBWorker</title>
<path fill="none" stroke="black" d="M444.996,-819.476C405.913,-810.495 353.629,-798.481 315.395,-789.695"/>
<polygon fill="none" stroke="black" points="316.031,-786.25 305.501,-787.422 314.463,-793.072 316.031,-786.25"/>
</g>
<!-- \\SmartFactory\\DatabaseWorkers\\MySQL_DBWorker -->
<g id="node3" class="node"><title>\\SmartFactory\\DatabaseWorkers\\MySQL_DBWorker</title>
<polygon fill="none" stroke="black" points="556,-796 445,-796 445,-760 556,-760 556,-796"/>
<text text-anchor="middle" x="500.5" y="-775.2" font-family="Courier,monospace" font-size="11.00">MySQL_DBWorker</text>
</g>
<!-- \\SmartFactory\\DatabaseWorkers\\MySQL_DBWorker&#45;&gt;\\SmartFactory\\DatabaseWorkers\\DBWorker -->
<g id="edge4" class="edge"><title>\\SmartFactory\\DatabaseWorkers\\MySQL_DBWorker&#45;&gt;\\SmartFactory\\DatabaseWorkers\\DBWorker</title>
<path fill="none" stroke="black" d="M444.996,-778C406.08,-778 354.074,-778 315.884,-778"/>
<polygon fill="none" stroke="black" points="315.501,-774.5 305.501,-778 315.501,-781.5 315.501,-774.5"/>
</g>
<!-- \\SmartFactory\\DatabaseWorkers\\ShardManager -->
<g id="node4" class="node"><title>\\SmartFactory\\DatabaseWorkers\\ShardManager</title>
<polygon fill="none" stroke="black" points="549.5,-742 451.5,-742 451.5,-706 549.5,-706 549.5,-742"/>
<text text-anchor="middle" x="500.5" y="-721.2" font-family="Courier,monospace" font-size="11.00">ShardManager</text>
</g>
<!-- \\SmartFactory\\Interfaces\\IShardManager -->
<g id="node16" class="node"><title>\\SmartFactory\\Interfaces\\IShardManager</title>
<polygon fill="none" stroke="black" points="315.5,-608 211.5,-608 211.5,-572 315.5,-572 315.5,-608"/>
<text text-anchor="middle" x="263.5" y="-587.2" font-family="Courier,monospace" font-size="11.00">IShardManager</text>
</g>
<!-- \\SmartFactory\\DatabaseWorkers\\ShardManager&#45;&gt;\\SmartFactory\\Interfaces\\IShardManager -->
<g id="edge5" class="edge"><title>\\SmartFactory\\DatabaseWorkers\\ShardManager&#45;&gt;\\SmartFactory\\Interfaces\\IShardManager</title>
<path fill="none" stroke="black" stroke-dasharray="1,5" d="M451.101,-716.535C439.604,-713.293 427.834,-708.649 418,-702 378.825,-675.512 392.782,-644.059 354,-617 345.426,-611.018 335.501,-606.337 325.447,-602.681"/>
<polygon fill="none" stroke="black" points="326.401,-599.31 315.808,-599.48 324.195,-605.953 326.401,-599.31"/>
</g>
<!-- \\SmartFactory\\Interfaces\\IDebugProfiler -->
<g id="node5" class="node"><title>\\SmartFactory\\Interfaces\\IDebugProfiler</title>
<polygon fill="none" stroke="black" points="319,-284 208,-284 208,-248 319,-248 319,-284"/>
<text text-anchor="middle" x="263.5" y="-263.2" font-family="Courier,monospace" font-size="11.00">IDebugProfiler</text>
</g>
<!-- \\SmartFactory\\Interfaces\\IDebugProfiler&#45;&gt;\\SmartFactory\\Interfaces\\IInitable -->
<g id="edge16" class="edge"><title>\\SmartFactory\\Interfaces\\IDebugProfiler&#45;&gt;\\SmartFactory\\Interfaces\\IInitable</title>
<path fill="none" stroke="black" d="M207.592,-281.528C198.505,-284.847 189.336,-288.677 181,-293 151.218,-308.444 120.815,-331.648 99.6263,-349.268"/>
<polygon fill="none" stroke="black" points="97.3647,-346.596 91.9771,-355.719 101.878,-351.947 97.3647,-346.596"/>
</g>
<!-- \\SmartFactory\\Interfaces\\IErrorHandler -->
<g id="node6" class="node"><title>\\SmartFactory\\Interfaces\\IErrorHandler</title>
<polygon fill="none" stroke="black" points="315.5,-230 211.5,-230 211.5,-194 315.5,-194 315.5,-230"/>
<text text-anchor="middle" x="263.5" y="-209.2" font-family="Courier,monospace" font-size="11.00">IErrorHandler</text>
</g>
<!-- \\SmartFactory\\Interfaces\\IErrorHandler&#45;&gt;\\SmartFactory\\Interfaces\\IInitable -->
<g id="edge17" class="edge"><title>\\SmartFactory\\Interfaces\\IErrorHandler&#45;&gt;\\SmartFactory\\Interfaces\\IInitable</title>
<path fill="none" stroke="black" d="M211.253,-224.029C200.713,-227.829 190.075,-232.73 181,-239 139.374,-267.761 105.305,-316.752 86.749,-347.14"/>
<polygon fill="none" stroke="black" points="83.6213,-345.551 81.4969,-355.931 89.6305,-349.141 83.6213,-345.551"/>
</g>
<!-- \\SmartFactory\\Interfaces\\IEventManager -->
<g id="node7" class="node"><title>\\SmartFactory\\Interfaces\\IEventManager</title>
<polygon fill="none" stroke="black" points="315.5,-122 211.5,-122 211.5,-86 315.5,-86 315.5,-122"/>
<text text-anchor="middle" x="263.5" y="-101.2" font-family="Courier,monospace" font-size="11.00">IEventManager</text>
</g>
<!-- \\SmartFactory\\Interfaces\\IJsonApiRequestHandler -->
<g id="node9" class="node"><title>\\SmartFactory\\Interfaces\\IJsonApiRequestHandler</title>
<polygon fill="none" stroke="black" points="346,-500 181,-500 181,-464 346,-464 346,-500"/>
<text text-anchor="middle" x="263.5" y="-479.2" font-family="Courier,monospace" font-size="11.00">IJsonApiRequestHandler</text>
</g>
<!-- \\SmartFactory\\Interfaces\\ILanguageManager -->
<g id="node10" class="node"><title>\\SmartFactory\\Interfaces\\ILanguageManager</title>
<polygon fill="none" stroke="black" points="326,-554 201,-554 201,-518 326,-518 326,-554"/>
<text text-anchor="middle" x="263.5" y="-533.2" font-family="Courier,monospace" font-size="11.00">ILanguageManager</text>
</g>
<!-- \\SmartFactory\\Interfaces\\ILanguageManager&#45;&gt;\\SmartFactory\\Interfaces\\IInitable -->
<g id="edge18" class="edge"><title>\\SmartFactory\\Interfaces\\ILanguageManager&#45;&gt;\\SmartFactory\\Interfaces\\IInitable</title>
<path fill="none" stroke="black" d="M200.601,-519.732C193.703,-516.703 187.009,-513.152 181,-509 139.374,-480.239 105.305,-431.248 86.749,-400.86"/>
<polygon fill="none" stroke="black" points="89.6305,-398.859 81.4969,-392.069 83.6213,-402.449 89.6305,-398.859"/>
</g>
<!-- \\SmartFactory\\Interfaces\\IMessageManager -->
<g id="node11" class="node"><title>\\SmartFactory\\Interfaces\\IMessageManager</title>
<polygon fill="none" stroke="black" points="322.5,-446 204.5,-446 204.5,-410 322.5,-410 322.5,-446"/>
<text text-anchor="middle" x="263.5" y="-425.2" font-family="Courier,monospace" font-size="11.00">IMessageManager</text>
</g>
<!-- \\SmartFactory\\Interfaces\\IMessageManager&#45;&gt;\\SmartFactory\\Interfaces\\IInitable -->
<g id="edge19" class="edge"><title>\\SmartFactory\\Interfaces\\IMessageManager&#45;&gt;\\SmartFactory\\Interfaces\\IInitable</title>
<path fill="none" stroke="black" d="M204.416,-411.578C177.093,-403.853 144.916,-394.756 119.065,-387.448"/>
<polygon fill="none" stroke="black" points="119.706,-383.992 109.131,-384.639 117.802,-390.728 119.706,-383.992"/>
</g>
<!-- \\SmartFactory\\Interfaces\\IRecordsetManager -->
<g id="node12" class="node"><title>\\SmartFactory\\Interfaces\\IRecordsetManager</title>
<polygon fill="none" stroke="black" points="329,-392 198,-392 198,-356 329,-356 329,-392"/>
<text text-anchor="middle" x="263.5" y="-371.2" font-family="Courier,monospace" font-size="11.00">IRecordsetManager</text>
</g>
<!-- \\SmartFactory\\Interfaces\\ISessionManager -->
<g id="node13" class="node"><title>\\SmartFactory\\Interfaces\\ISessionManager</title>
<polygon fill="none" stroke="black" points="322.5,-662 204.5,-662 204.5,-626 322.5,-626 322.5,-662"/>
<text text-anchor="middle" x="263.5" y="-641.2" font-family="Courier,monospace" font-size="11.00">ISessionManager</text>
</g>
<!-- \\SmartFactory\\Interfaces\\ISettingsManager -->
<g id="node14" class="node"><title>\\SmartFactory\\Interfaces\\ISettingsManager</title>
<polygon fill="none" stroke="black" points="326,-338 201,-338 201,-302 326,-302 326,-338"/>
<text text-anchor="middle" x="263.5" y="-317.2" font-family="Courier,monospace" font-size="11.00">ISettingsManager</text>
</g>
<!-- \\SmartFactory\\Interfaces\\ISettingsManager&#45;&gt;\\SmartFactory\\Interfaces\\IInitable -->
<g id="edge20" class="edge"><title>\\SmartFactory\\Interfaces\\ISettingsManager&#45;&gt;\\SmartFactory\\Interfaces\\IInitable</title>
<path fill="none" stroke="black" d="M200.752,-337.458C174.217,-344.96 143.693,-353.589 118.973,-360.578"/>
<polygon fill="none" stroke="black" points="117.782,-357.278 109.111,-363.366 119.686,-364.014 117.782,-357.278"/>
</g>
<!-- \\SmartFactory\\Interfaces\\ISettingsValidator -->
<g id="node15" class="node"><title>\\SmartFactory\\Interfaces\\ISettingsValidator</title>
<polygon fill="none" stroke="black" points="332.5,-176 194.5,-176 194.5,-140 332.5,-140 332.5,-176"/>
<text text-anchor="middle" x="263.5" y="-155.2" font-family="Courier,monospace" font-size="11.00">ISettingsValidator</text>
</g>
<!-- \\SmartFactory\\Interfaces\\IXmlApiRequestHandler -->
<g id="node17" class="node"><title>\\SmartFactory\\Interfaces\\IXmlApiRequestHandler</title>
<polygon fill="none" stroke="black" points="342.5,-68 184.5,-68 184.5,-32 342.5,-32 342.5,-68"/>
<text text-anchor="middle" x="263.5" y="-47.2" font-family="Courier,monospace" font-size="11.00">IXmlApiRequestHandler</text>
</g>
<!-- \\SmartFactory\\ConfigSettingsManager -->
<g id="node18" class="node"><title>\\SmartFactory\\ConfigSettingsManager</title>
<polygon fill="none" stroke="black" points="579.5,-276 421.5,-276 421.5,-240 579.5,-240 579.5,-276"/>
<text text-anchor="middle" x="500.5" y="-255.2" font-family="Courier,monospace" font-size="11.00">ConfigSettingsManager</text>
</g>
<!-- \\SmartFactory\\ConfigSettingsManager&#45;&gt;\\SmartFactory\\Interfaces\\ISettingsManager -->
<g id="edge1" class="edge"><title>\\SmartFactory\\ConfigSettingsManager&#45;&gt;\\SmartFactory\\Interfaces\\ISettingsManager</title>
<path fill="none" stroke="black" stroke-dasharray="1,5" d="M431.213,-276.016C401.383,-283.886 366.389,-293.119 336.184,-301.088"/>
<polygon fill="none" stroke="black" points="334.915,-297.803 326.139,-303.738 336.701,-304.571 334.915,-297.803"/>
</g>
<!-- \\SmartFactory\\DebugProfiler -->
<g id="node19" class="node"><title>\\SmartFactory\\DebugProfiler</title>
<polygon fill="none" stroke="black" points="552.5,-222 448.5,-222 448.5,-186 552.5,-186 552.5,-222"/>
<text text-anchor="middle" x="500.5" y="-201.2" font-family="Courier,monospace" font-size="11.00">DebugProfiler</text>
</g>
<!-- \\SmartFactory\\DebugProfiler&#45;&gt;\\SmartFactory\\Interfaces\\IDebugProfiler -->
<g id="edge6" class="edge"><title>\\SmartFactory\\DebugProfiler&#45;&gt;\\SmartFactory\\Interfaces\\IDebugProfiler</title>
<path fill="none" stroke="black" stroke-dasharray="1,5" d="M448.219,-217.53C413.258,-226.753 366.686,-239.04 329.18,-248.936"/>
<polygon fill="none" stroke="black" points="328.133,-245.592 319.357,-251.527 329.919,-252.36 328.133,-245.592"/>
</g>
<!-- \\SmartFactory\\ErrorHandler -->
<g id="node20" class="node"><title>\\SmartFactory\\ErrorHandler</title>
<polygon fill="none" stroke="black" points="549.5,-168 451.5,-168 451.5,-132 549.5,-132 549.5,-168"/>
<text text-anchor="middle" x="500.5" y="-147.2" font-family="Courier,monospace" font-size="11.00">ErrorHandler</text>
</g>
<!-- \\SmartFactory\\ErrorHandler&#45;&gt;\\SmartFactory\\Interfaces\\IErrorHandler -->
<g id="edge7" class="edge"><title>\\SmartFactory\\ErrorHandler&#45;&gt;\\SmartFactory\\Interfaces\\IErrorHandler</title>
<path fill="none" stroke="black" stroke-dasharray="1,5" d="M451.377,-162.696C414.983,-172.298 364.753,-185.55 325.534,-195.897"/>
<polygon fill="none" stroke="black" points="324.592,-192.526 315.815,-198.461 326.377,-199.295 324.592,-192.526"/>
</g>
<!-- \\SmartFactory\\EventManager -->
<g id="node21" class="node"><title>\\SmartFactory\\EventManager</title>
<polygon fill="none" stroke="black" points="549.5,-114 451.5,-114 451.5,-78 549.5,-78 549.5,-114"/>
<text text-anchor="middle" x="500.5" y="-93.2" font-family="Courier,monospace" font-size="11.00">EventManager</text>
</g>
<!-- \\SmartFactory\\EventManager&#45;&gt;\\SmartFactory\\Interfaces\\IEventManager -->
<g id="edge8" class="edge"><title>\\SmartFactory\\EventManager&#45;&gt;\\SmartFactory\\Interfaces\\IEventManager</title>
<path fill="none" stroke="black" stroke-dasharray="1,5" d="M451.377,-97.6382C415.137,-98.8719 365.178,-100.573 326.033,-101.905"/>
<polygon fill="none" stroke="black" points="325.69,-98.4148 315.815,-102.253 325.929,-105.411 325.69,-98.4148"/>
</g>
<!-- \\SmartFactory\\JsonApiRequestManager -->
<g id="node22" class="node"><title>\\SmartFactory\\JsonApiRequestManager</title>
<polygon fill="none" stroke="black" points="579.5,-492 421.5,-492 421.5,-456 579.5,-456 579.5,-492"/>
<text text-anchor="middle" x="500.5" y="-471.2" font-family="Courier,monospace" font-size="11.00">JsonApiRequestManager</text>
</g>
<!-- \\SmartFactory\\LanguageManager -->
<g id="node23" class="node"><title>\\SmartFactory\\LanguageManager</title>
<polygon fill="none" stroke="black" points="559.5,-654 441.5,-654 441.5,-618 559.5,-618 559.5,-654"/>
<text text-anchor="middle" x="500.5" y="-633.2" font-family="Courier,monospace" font-size="11.00">LanguageManager</text>
</g>
<!-- \\SmartFactory\\LanguageManager&#45;&gt;\\SmartFactory\\Interfaces\\ILanguageManager -->
<g id="edge9" class="edge"><title>\\SmartFactory\\LanguageManager&#45;&gt;\\SmartFactory\\Interfaces\\ILanguageManager</title>
<path fill="none" stroke="black" stroke-dasharray="1,5" d="M441.176,-619.091C433.23,-616.094 425.303,-612.724 418,-609 386.794,-593.087 385.418,-578.491 354,-563 348.268,-560.174 342.183,-557.578 335.987,-555.209"/>
<polygon fill="none" stroke="black" points="336.791,-551.778 326.196,-551.673 334.412,-558.362 336.791,-551.778"/>
</g>
<!-- \\SmartFactory\\MessageManager -->
<g id="node24" class="node"><title>\\SmartFactory\\MessageManager</title>
<polygon fill="none" stroke="black" points="556,-600 445,-600 445,-564 556,-564 556,-600"/>
<text text-anchor="middle" x="500.5" y="-579.2" font-family="Courier,monospace" font-size="11.00">MessageManager</text>
</g>
<!-- \\SmartFactory\\MessageManager&#45;&gt;\\SmartFactory\\Interfaces\\IMessageManager -->
<g id="edge10" class="edge"><title>\\SmartFactory\\MessageManager&#45;&gt;\\SmartFactory\\Interfaces\\IMessageManager</title>
<path fill="none" stroke="black" stroke-dasharray="1,5" d="M444.719,-569.601C435.225,-565.899 425.885,-561.129 418,-555 376.337,-522.618 396.095,-486.818 354,-455 347.465,-450.06 340.027,-446.019 332.297,-442.713"/>
<polygon fill="none" stroke="black" points="333.353,-439.369 322.764,-439.036 330.834,-445.9 333.353,-439.369"/>
</g>
<!-- \\SmartFactory\\ObjectFactory -->
<g id="node25" class="node"><title>\\SmartFactory\\ObjectFactory</title>
<polygon fill="none" stroke="black" points="552.5,-330 448.5,-330 448.5,-294 552.5,-294 552.5,-330"/>
<text text-anchor="middle" x="500.5" y="-309.2" font-family="Courier,monospace" font-size="11.00">ObjectFactory</text>
</g>
<!-- \\SmartFactory\\RecordsetManager -->
<g id="node26" class="node"><title>\\SmartFactory\\RecordsetManager</title>
<polygon fill="none" stroke="black" points="563,-438 438,-438 438,-402 563,-402 563,-438"/>
<text text-anchor="middle" x="500.5" y="-417.2" font-family="Courier,monospace" font-size="11.00">RecordsetManager</text>
</g>
<!-- \\SmartFactory\\RecordsetManager&#45;&gt;\\SmartFactory\\Interfaces\\IRecordsetManager -->
<g id="edge11" class="edge"><title>\\SmartFactory\\RecordsetManager&#45;&gt;\\SmartFactory\\Interfaces\\IRecordsetManager</title>
<path fill="none" stroke="black" stroke-dasharray="1,5" d="M437.757,-407.914C407.57,-402.005 370.992,-394.845 339.239,-388.63"/>
<polygon fill="none" stroke="black" points="339.599,-385.134 329.113,-386.648 338.254,-392.004 339.599,-385.134"/>
</g>
<!-- \\SmartFactory\\RuntimeSettingsManager -->
<g id="node27" class="node"><title>\\SmartFactory\\RuntimeSettingsManager</title>
<polygon fill="none" stroke="black" points="583,-384 418,-384 418,-348 583,-348 583,-384"/>
<text text-anchor="middle" x="500.5" y="-363.2" font-family="Courier,monospace" font-size="11.00">RuntimeSettingsManager</text>
</g>
<!-- \\SmartFactory\\RuntimeSettingsManager&#45;&gt;\\SmartFactory\\Interfaces\\ISettingsManager -->
<g id="edge12" class="edge"><title>\\SmartFactory\\RuntimeSettingsManager&#45;&gt;\\SmartFactory\\Interfaces\\ISettingsManager</title>
<path fill="none" stroke="black" stroke-dasharray="1,5" d="M417.968,-350.041C391.402,-344.84 362.121,-339.109 336.321,-334.059"/>
<polygon fill="none" stroke="black" points="336.731,-330.572 326.245,-332.086 335.386,-337.442 336.731,-330.572"/>
</g>
<!-- \\SmartFactory\\SessionManager -->
<g id="node28" class="node"><title>\\SmartFactory\\SessionManager</title>
<polygon fill="none" stroke="black" points="556,-922 445,-922 445,-886 556,-886 556,-922"/>
<text text-anchor="middle" x="500.5" y="-901.2" font-family="Courier,monospace" font-size="11.00">SessionManager</text>
</g>
<!-- \\SmartFactory\\SessionManager&#45;&gt;\\SmartFactory\\Interfaces\\ISessionManager -->
<g id="edge14" class="edge"><title>\\SmartFactory\\SessionManager&#45;&gt;\\SmartFactory\\Interfaces\\ISessionManager</title>
<path fill="none" stroke="black" stroke-dasharray="1,5" d="M444.801,-897.147C434.969,-893.841 425.484,-889.017 418,-882 353.609,-821.631 410.505,-761.807 354,-694 344.923,-683.107 332.828,-674.152 320.473,-666.983"/>
<polygon fill="none" stroke="black" points="321.925,-663.789 311.47,-662.077 318.576,-669.935 321.925,-663.789"/>
</g>
<!-- SessionHandler -->
<g id="node31" class="node"><title>SessionHandler</title>
<ellipse fill="none" stroke="black" cx="263.5" cy="-976" rx="67.6881" ry="18"/>
<text text-anchor="middle" x="263.5" y="-972.3" font-family="Times New Roman,serif" font-size="14.00" fill="gray">SessionHandler</text>
</g>
<!-- \\SmartFactory\\SessionManager&#45;&gt;SessionHandler -->
<g id="edge13" class="edge"><title>\\SmartFactory\\SessionManager&#45;&gt;SessionHandler</title>
<path fill="none" stroke="black" d="M444.996,-920.699C406.909,-932.368 356.285,-947.879 318.344,-959.503"/>
<polygon fill="none" stroke="black" points="317.031,-956.245 308.495,-962.521 319.082,-962.938 317.031,-956.245"/>
</g>
<!-- \\SmartFactory\\UserSettingsManager -->
<g id="node29" class="node"><title>\\SmartFactory\\UserSettingsManager</title>
<polygon fill="none" stroke="black" points="573,-546 428,-546 428,-510 573,-510 573,-546"/>
<text text-anchor="middle" x="500.5" y="-525.2" font-family="Courier,monospace" font-size="11.00">UserSettingsManager</text>
</g>
<!-- \\SmartFactory\\UserSettingsManager&#45;&gt;\\SmartFactory\\Interfaces\\ISettingsManager -->
<g id="edge15" class="edge"><title>\\SmartFactory\\UserSettingsManager&#45;&gt;\\SmartFactory\\Interfaces\\ISettingsManager</title>
<path fill="none" stroke="black" stroke-dasharray="1,5" d="M429.919,-509.85C425.634,-507.28 421.604,-504.347 418,-501 363.688,-450.563 408.986,-396.702 354,-347 348.537,-342.062 342.198,-338.026 335.467,-334.728"/>
<polygon fill="none" stroke="black" points="336.657,-331.429 326.089,-330.672 333.878,-337.854 336.657,-331.429"/>
</g>
<!-- \\SmartFactory\\XmlApiRequestManager -->
<g id="node30" class="node"><title>\\SmartFactory\\XmlApiRequestManager</title>
<polygon fill="none" stroke="black" points="576.5,-60 424.5,-60 424.5,-24 576.5,-24 576.5,-60"/>
<text text-anchor="start" x="466.5" y="-45.2" font-family="Courier,monospace" font-size="11.00">«abstract»</text>
<text text-anchor="start" x="432.5" y="-33.2" font-family="Courier,monospace" font-size="11.00">XmlApiRequestManager</text>
</g>
</g>
</svg>
