<?xml version="1.0" encoding="UTF-8" standalone="no"?>
<!DOCTYPE svg PUBLIC "-//W3C//DTD SVG 1.1//EN"
 "http://www.w3.org/Graphics/SVG/1.1/DTD/svg11.dtd">
<!-- Generated by graphviz version 2.38.0 (20140413.2041)
 -->
<!-- Title: G Pages: 1 -->
<svg width="615pt" height="1038pt"
 viewBox="0.00 0.00 615.00 1038.00" xmlns="http://www.w3.org/2000/svg" xmlns:xlink="http://www.w3.org/1999/xlink">
<g id="graph0" class="graph" transform="scale(1 1) rotate(0) translate(4 1034)">
<title>G</title>
<polygon fill="white" stroke="none" points="-4,4 -4,-1034 611,-1034 611,4 -4,4"/>
<g id="clust1" class="cluster"><title>cluster_Global</title>
<path fill="none" stroke="gray" d="M20,-8C20,-8 587,-8 587,-8 593,-8 599,-14 599,-20 599,-20 599,-1010 599,-1010 599,-1016 593,-1022 587,-1022 587,-1022 20,-1022 20,-1022 14,-1022 8,-1016 8,-1010 8,-1010 8,-20 8,-20 8,-14 14,-8 20,-8"/>
<text text-anchor="middle" x="303.5" y="-1009.2" font-family="Times New Roman,serif" font-size="11.00" fill="gray">Global</text>
</g>
<g id="clust2" class="cluster"><title>cluster_\SmartFactory</title>
<path fill="none" stroke="gray" d="M28,-16C28,-16 579,-16 579,-16 585,-16 591,-22 591,-28 591,-28 591,-938 591,-938 591,-944 585,-950 579,-950 579,-950 28,-950 28,-950 22,-950 16,-944 16,-938 16,-938 16,-28 16,-28 16,-22 22,-16 28,-16"/>
<text text-anchor="middle" x="303.5" y="-937.2" font-family="Times New Roman,serif" font-size="11.00" fill="gray">SmartFactory</text>
</g>
<g id="clust3" class="cluster"><title>cluster_\SmartFactory\DatabaseWorkers</title>
<path fill="none" stroke="gray" d="M225.5,-698C225.5,-698 552,-698 552,-698 558,-698 564,-704 564,-710 564,-710 564,-866 564,-866 564,-872 558,-878 552,-878 552,-878 225.5,-878 225.5,-878 219.5,-878 213.5,-872 213.5,-866 213.5,-866 213.5,-710 213.5,-710 213.5,-704 219.5,-698 225.5,-698"/>
<text text-anchor="middle" x="388.75" y="-865.2" font-family="Times New Roman,serif" font-size="11.00" fill="gray">DatabaseWorkers</text>
</g>
<g id="clust4" class="cluster"><title>cluster_\SmartFactory\Interfaces</title>
<path fill="none" stroke="gray" d="M36,-24C36,-24 342,-24 342,-24 348,-24 354,-30 354,-36 354,-36 354,-678 354,-678 354,-684 348,-690 342,-690 342,-690 36,-690 36,-690 30,-690 24,-684 24,-678 24,-678 24,-36 24,-36 24,-30 30,-24 36,-24"/>
<text text-anchor="middle" x="189" y="-677.2" font-family="Times New Roman,serif" font-size="11.00" fill="gray">Interfaces</text>
</g>
<!-- \\SmartFactory\\DatabaseWorkers\\DBWorker -->
<g id="node1" class="node"><title>\\SmartFactory\\DatabaseWorkers\\DBWorker</title>
<polygon fill="none" stroke="black" points="305.5,-796 221.5,-796 221.5,-760 305.5,-760 305.5,-796"/>
<text text-anchor="start" x="229.5" y="-781.2" font-family="Courier,monospace" font-size="11.00">«abstract»</text>
<text text-anchor="start" x="236" y="-769.2" font-family="Courier,monospace" font-size="11.00">DBWorker</text>
</g>
<!-- \\SmartFactory\\Interfaces\\IInitable -->
<g id="node8" class="node"><title>\\SmartFactory\\Interfaces\\IInitable</title>
<polygon fill="none" stroke="black" points="109,-392 32,-392 32,-356 109,-356 109,-392"/>
<text text-anchor="middle" x="70.5" y="-371.2" font-family="Courier,monospace" font-size="11.00">IInitable</text>
</g>
<!-- \\SmartFactory\\DatabaseWorkers\\DBWorker&#45;&gt;\\SmartFactory\\Interfaces\\IInitable -->
<g id="edge2" class="edge"><title>\\SmartFactory\\DatabaseWorkers\\DBWorker&#45;&gt;\\SmartFactory\\Interfaces\\IInitable</title>
<path fill="none" stroke="black" stroke-dasharray="1,5" d="M239.982,-759.771C221.837,-744.032 196.825,-719.811 181,-694 120.759,-595.743 88.5227,-460.039 76.7613,-402.074"/>
<polygon fill="none" stroke="black" points="80.1783,-401.311 74.8014,-392.182 73.3118,-402.672 80.1783,-401.311"/>
</g>
<!-- \\SmartFactory\\DatabaseWorkers\\MSSQL_DBWorker -->
<g id="node2" class="node"><title>\\SmartFactory\\DatabaseWorkers\\MSSQL_DBWorker</title>
<polygon fill="none" stroke="black" points="556,-850 445,-850 445,-814 556,-814 556,-850"/>
<text text-anchor="middle" x="500.5" y="-829.2" font-family="Courier,monospace" font-size="11.00">MSSQL_DBWorker</text>
</g>
<!-- \\SmartFactory\\DatabaseWorkers\\MSSQL_DBWorker&#45;&gt;\\SmartFactory\\DatabaseWorkers\\DBWorker -->
<g id="edge3" class="edge"><title>\\SmartFactory\\DatabaseWorkers\\MSSQL_DBWorker&#45;&gt;\\SmartFactory\\DatabaseWorkers\\DBWorker</title>
<path fill="none" stroke="black" d="M444.996,-819.476C405.913,-810.495 353.629,-798.481 315.395,-789.695"/>
<polygon fill="none" stroke="black" points="316.031,-786.25 305.501,-787.422 314.463,-793.072 316.031,-786.25"/>
</g>
<!-- \\SmartFactory\\DatabaseWorkers\\MySQL_DBWorker -->
<g id="node3" class="node"><title>\\SmartFactory\\DatabaseWorkers\\MySQL_DBWorker</title>
<polygon fill="none" stroke="black" points="556,-796 445,-796 445,-760 556,-760 556,-796"/>
<text text-anchor="middle" x="500.5" y="-775.2" font-family="Courier,monospace" font-size="11.00">MySQL_DBWorker</text>
</g>
<!-- \\SmartFactory\\DatabaseWorkers\\MySQL_DBWorker&#45;&gt;\\SmartFactory\\DatabaseWorkers\\DBWorker -->
<g id="edge4" class="edge"><title>\\SmartFactory\\DatabaseWorkers\\MySQL_DBWorker&#45;&gt;\\SmartFactory\\DatabaseWorkers\\DBWorker</title>
<path fill="none" stroke="black" d="M444.996,-778C406.08,-778 354.074,-778 315.884,-778"/>
<polygon fill="none" stroke="black" points="315.501,-774.5 305.501,-778 315.501,-781.5 315.501,-774.5"/>
</g>
<!-- \\SmartFactory\\DatabaseWorkers\\ShardManager -->
<g id="node4" class="node"><title>\\SmartFactory\\DatabaseWorkers\\ShardManager</title>
<polygon fill="none" stroke="black" points="549.5,-742 451.5,-742 451.5,-706 549.5,-706 549.5,-742"/>
<text text-anchor="middle" x="500.5" y="-721.2" font-family="Courier,monospace" font-size="11.00">ShardManager</text>
</g>
<!-- \\SmartFactory\\Interfaces\\IShardManager -->
<g id="node16" class="node"><title>\\SmartFactory\\Interfaces\\IShardManager</title>
<polygon fill="none" stroke="black" points="315.5,-608 211.5,-608 211.5,-572 315.5,-572 315.5,-608"/>
<text text-anchor="middle" x="263.5" y="-587.2" font-family="Courier,monospace" font-size="11.00">IShardManager</text>
</g>
<!-- \\SmartFactory\\DatabaseWorkers\\ShardManager&#45;&gt;\\SmartFactory\\Interfaces\\IShardManager -->
<g id="edge5" class="edge"><title>\\SmartFactory\\DatabaseWorkers\\ShardManager&#45;&gt;\\SmartFactory\\Interfaces\\IShardManager</title>
<path fill="none" stroke="black" stroke-dasharray="1,5" d="M451.101,-716.535C439.604,-713.293 427.834,-708.649 418,-702 378.825,-675.512 392.782,-644.059 354,-617 345.426,-611.018 335.501,-606.337 325.447,-602.681"/>
<polygon fill="none" stroke="black" points="326.401,-599.31 315.808,-599.48 324.195,-605.953 326.401,-599.31"/>
</g>
<!-- \\SmartFactory\\Interfaces\\IDebugProfiler -->
<g id="node5" class="node"><title>\\SmartFactory\\Interfaces\\IDebugProfiler</title>
<polygon fill="none" stroke="black" points="319,-554 208,-554 208,-518 319,-518 319,-554"/>
<text text-anchor="middle" x="263.5" y="-533.2" font-family="Courier,monospace" font-size="11.00">IDebugProfiler</text>
</g>
<!-- \\SmartFactory\\Interfaces\\IDebugProfiler&#45;&gt;\\SmartFactory\\Interfaces\\IInitable -->
<g id="edge16" class="edge"><title>\\SmartFactory\\Interfaces\\IDebugProfiler&#45;&gt;\\SmartFactory\\Interfaces\\IInitable</title>
<path fill="none" stroke="black" d="M207.833,-522.7C198.431,-519.095 189.094,-514.592 181,-509 139.374,-480.239 105.305,-431.248 86.749,-400.86"/>
<polygon fill="none" stroke="black" points="89.6305,-398.859 81.4969,-392.069 83.6213,-402.449 89.6305,-398.859"/>
</g>
<!-- \\SmartFactory\\Interfaces\\IErrorHandler -->
<g id="node6" class="node"><title>\\SmartFactory\\Interfaces\\IErrorHandler</title>
<polygon fill="none" stroke="black" points="315.5,-446 211.5,-446 211.5,-410 315.5,-410 315.5,-446"/>
<text text-anchor="middle" x="263.5" y="-425.2" font-family="Courier,monospace" font-size="11.00">IErrorHandler</text>
</g>
<!-- \\SmartFactory\\Interfaces\\IErrorHandler&#45;&gt;\\SmartFactory\\Interfaces\\IInitable -->
<g id="edge17" class="edge"><title>\\SmartFactory\\Interfaces\\IErrorHandler&#45;&gt;\\SmartFactory\\Interfaces\\IInitable</title>
<path fill="none" stroke="black" d="M211.316,-413.529C182.677,-405.432 147.206,-395.404 119.158,-387.474"/>
<polygon fill="none" stroke="black" points="119.762,-384.008 109.187,-384.655 117.858,-390.744 119.762,-384.008"/>
</g>
<!-- \\SmartFactory\\Interfaces\\IEventManager -->
<g id="node7" class="node"><title>\\SmartFactory\\Interfaces\\IEventManager</title>
<polygon fill="none" stroke="black" points="315.5,-392 211.5,-392 211.5,-356 315.5,-356 315.5,-392"/>
<text text-anchor="middle" x="263.5" y="-371.2" font-family="Courier,monospace" font-size="11.00">IEventManager</text>
</g>
<!-- \\SmartFactory\\Interfaces\\IJsonApiRequestHandler -->
<g id="node9" class="node"><title>\\SmartFactory\\Interfaces\\IJsonApiRequestHandler</title>
<polygon fill="none" stroke="black" points="346,-500 181,-500 181,-464 346,-464 346,-500"/>
<text text-anchor="middle" x="263.5" y="-479.2" font-family="Courier,monospace" font-size="11.00">IJsonApiRequestHandler</text>
</g>
<!-- \\SmartFactory\\Interfaces\\ILanguageManager -->
<g id="node10" class="node"><title>\\SmartFactory\\Interfaces\\ILanguageManager</title>
<polygon fill="none" stroke="black" points="326,-284 201,-284 201,-248 326,-248 326,-284"/>
<text text-anchor="middle" x="263.5" y="-263.2" font-family="Courier,monospace" font-size="11.00">ILanguageManager</text>
</g>
<!-- \\SmartFactory\\Interfaces\\ILanguageManager&#45;&gt;\\SmartFactory\\Interfaces\\IInitable -->
<g id="edge18" class="edge"><title>\\SmartFactory\\Interfaces\\ILanguageManager&#45;&gt;\\SmartFactory\\Interfaces\\IInitable</title>
<path fill="none" stroke="black" d="M200.668,-284.155C193.902,-286.824 187.219,-289.775 181,-293 151.218,-308.444 120.815,-331.648 99.6263,-349.268"/>
<polygon fill="none" stroke="black" points="97.3647,-346.596 91.9771,-355.719 101.878,-351.947 97.3647,-346.596"/>
</g>
<!-- \\SmartFactory\\Interfaces\\IMessageManager -->
<g id="node11" class="node"><title>\\SmartFactory\\Interfaces\\IMessageManager</title>
<polygon fill="none" stroke="black" points="322.5,-230 204.5,-230 204.5,-194 322.5,-194 322.5,-230"/>
<text text-anchor="middle" x="263.5" y="-209.2" font-family="Courier,monospace" font-size="11.00">IMessageManager</text>
</g>
<!-- \\SmartFactory\\Interfaces\\IMessageManager&#45;&gt;\\SmartFactory\\Interfaces\\IInitable -->
<g id="edge19" class="edge"><title>\\SmartFactory\\Interfaces\\IMessageManager&#45;&gt;\\SmartFactory\\Interfaces\\IInitable</title>
<path fill="none" stroke="black" d="M204.419,-226.651C196.186,-230.012 188.113,-234.086 181,-239 139.374,-267.761 105.305,-316.752 86.749,-347.14"/>
<polygon fill="none" stroke="black" points="83.6213,-345.551 81.4969,-355.931 89.6305,-349.141 83.6213,-345.551"/>
</g>
<!-- \\SmartFactory\\Interfaces\\IRecordsetManager -->
<g id="node12" class="node"><title>\\SmartFactory\\Interfaces\\IRecordsetManager</title>
<polygon fill="none" stroke="black" points="329,-122 198,-122 198,-86 329,-86 329,-122"/>
<text text-anchor="middle" x="263.5" y="-101.2" font-family="Courier,monospace" font-size="11.00">IRecordsetManager</text>
</g>
<!-- \\SmartFactory\\Interfaces\\ISessionManager -->
<g id="node13" class="node"><title>\\SmartFactory\\Interfaces\\ISessionManager</title>
<polygon fill="none" stroke="black" points="322.5,-662 204.5,-662 204.5,-626 322.5,-626 322.5,-662"/>
<text text-anchor="middle" x="263.5" y="-641.2" font-family="Courier,monospace" font-size="11.00">ISessionManager</text>
</g>
<!-- \\SmartFactory\\Interfaces\\ISettingsManager -->
<g id="node14" class="node"><title>\\SmartFactory\\Interfaces\\ISettingsManager</title>
<polygon fill="none" stroke="black" points="326,-338 201,-338 201,-302 326,-302 326,-338"/>
<text text-anchor="middle" x="263.5" y="-317.2" font-family="Courier,monospace" font-size="11.00">ISettingsManager</text>
</g>
<!-- \\SmartFactory\\Interfaces\\ISettingsManager&#45;&gt;\\SmartFactory\\Interfaces\\IInitable -->
<g id="edge20" class="edge"><title>\\SmartFactory\\Interfaces\\ISettingsManager&#45;&gt;\\SmartFactory\\Interfaces\\IInitable</title>
<path fill="none" stroke="black" d="M200.752,-337.458C174.217,-344.96 143.693,-353.589 118.973,-360.578"/>
<polygon fill="none" stroke="black" points="117.782,-357.278 109.111,-363.366 119.686,-364.014 117.782,-357.278"/>
</g>
<!-- \\SmartFactory\\Interfaces\\ISettingsValidator -->
<g id="node15" class="node"><title>\\SmartFactory\\Interfaces\\ISettingsValidator</title>
<polygon fill="none" stroke="black" points="332.5,-176 194.5,-176 194.5,-140 332.5,-140 332.5,-176"/>
<text text-anchor="middle" x="263.5" y="-155.2" font-family="Courier,monospace" font-size="11.00">ISettingsValidator</text>
</g>
<!-- \\SmartFactory\\Interfaces\\IXmlApiRequestHandler -->
<g id="node17" class="node"><title>\\SmartFactory\\Interfaces\\IXmlApiRequestHandler</title>
<polygon fill="none" stroke="black" points="342.5,-68 184.5,-68 184.5,-32 342.5,-32 342.5,-68"/>
<text text-anchor="middle" x="263.5" y="-47.2" font-family="Courier,monospace" font-size="11.00">IXmlApiRequestHandler</text>
</g>
<!-- \\SmartFactory\\ConfigSettingsManager -->
<g id="node18" class="node"><title>\\SmartFactory\\ConfigSettingsManager</title>
<polygon fill="none" stroke="black" points="579.5,-554 421.5,-554 421.5,-518 579.5,-518 579.5,-554"/>
<text text-anchor="middle" x="500.5" y="-533.2" font-family="Courier,monospace" font-size="11.00">ConfigSettingsManager</text>
</g>
<!-- \\SmartFactory\\ConfigSettingsManager&#45;&gt;\\SmartFactory\\Interfaces\\ISettingsManager -->
<g id="edge1" class="edge"><title>\\SmartFactory\\ConfigSettingsManager&#45;&gt;\\SmartFactory\\Interfaces\\ISettingsManager</title>
<path fill="none" stroke="black" stroke-dasharray="1,5" d="M429.851,-517.922C425.582,-515.335 421.575,-512.379 418,-509 361.739,-455.823 410.971,-399.415 354,-347 348.58,-342.014 342.27,-337.947 335.556,-334.63"/>
<polygon fill="none" stroke="black" points="336.76,-331.337 326.194,-330.556 333.967,-337.756 336.76,-331.337"/>
</g>
<!-- \\SmartFactory\\DebugProfiler -->
<g id="node19" class="node"><title>\\SmartFactory\\DebugProfiler</title>
<polygon fill="none" stroke="black" points="552.5,-662 448.5,-662 448.5,-626 552.5,-626 552.5,-662"/>
<text text-anchor="middle" x="500.5" y="-641.2" font-family="Courier,monospace" font-size="11.00">DebugProfiler</text>
</g>
<!-- \\SmartFactory\\DebugProfiler&#45;&gt;\\SmartFactory\\Interfaces\\IDebugProfiler -->
<g id="edge6" class="edge"><title>\\SmartFactory\\DebugProfiler&#45;&gt;\\SmartFactory\\Interfaces\\IDebugProfiler</title>
<path fill="none" stroke="black" stroke-dasharray="1,5" d="M448.227,-630.331C437.908,-626.672 427.364,-622.243 418,-617 385.526,-598.819 386.715,-580.742 354,-563 346.226,-558.784 337.706,-555.139 329.11,-552.014"/>
<polygon fill="none" stroke="black" points="330.003,-548.621 319.409,-548.703 327.742,-555.245 330.003,-548.621"/>
</g>
<!-- \\SmartFactory\\ErrorHandler -->
<g id="node20" class="node"><title>\\SmartFactory\\ErrorHandler</title>
<polygon fill="none" stroke="black" points="549.5,-608 451.5,-608 451.5,-572 549.5,-572 549.5,-608"/>
<text text-anchor="middle" x="500.5" y="-587.2" font-family="Courier,monospace" font-size="11.00">ErrorHandler</text>
</g>
<!-- \\SmartFactory\\ErrorHandler&#45;&gt;\\SmartFactory\\Interfaces\\IErrorHandler -->
<g id="edge7" class="edge"><title>\\SmartFactory\\ErrorHandler&#45;&gt;\\SmartFactory\\Interfaces\\IErrorHandler</title>
<path fill="none" stroke="black" stroke-dasharray="1,5" d="M451.348,-580.304C439.591,-576.325 427.636,-570.759 418,-563 374.541,-528.009 397.926,-489.403 354,-455 345.673,-448.478 335.785,-443.527 325.671,-439.769"/>
<polygon fill="none" stroke="black" points="326.542,-436.37 315.948,-436.52 324.323,-443.009 326.542,-436.37"/>
</g>
<!-- \\SmartFactory\\EventManager -->
<g id="node21" class="node"><title>\\SmartFactory\\EventManager</title>
<polygon fill="none" stroke="black" points="549.5,-392 451.5,-392 451.5,-356 549.5,-356 549.5,-392"/>
<text text-anchor="middle" x="500.5" y="-371.2" font-family="Courier,monospace" font-size="11.00">EventManager</text>
</g>
<!-- \\SmartFactory\\EventManager&#45;&gt;\\SmartFactory\\Interfaces\\IEventManager -->
<g id="edge8" class="edge"><title>\\SmartFactory\\EventManager&#45;&gt;\\SmartFactory\\Interfaces\\IEventManager</title>
<path fill="none" stroke="black" stroke-dasharray="1,5" d="M451.377,-374C415.137,-374 365.178,-374 326.033,-374"/>
<polygon fill="none" stroke="black" points="325.815,-370.5 315.815,-374 325.815,-377.5 325.815,-370.5"/>
</g>
<!-- \\SmartFactory\\FactoryBuilder -->
<g id="node22" class="node"><title>\\SmartFactory\\FactoryBuilder</title>
<polygon fill="none" stroke="black" points="556,-500 445,-500 445,-464 556,-464 556,-500"/>
<text text-anchor="middle" x="500.5" y="-479.2" font-family="Courier,monospace" font-size="11.00">FactoryBuilder</text>
</g>
<!-- \\SmartFactory\\JsonApiRequestManager -->
<g id="node23" class="node"><title>\\SmartFactory\\JsonApiRequestManager</title>
<polygon fill="none" stroke="black" points="579.5,-446 421.5,-446 421.5,-410 579.5,-410 579.5,-446"/>
<text text-anchor="middle" x="500.5" y="-425.2" font-family="Courier,monospace" font-size="11.00">JsonApiRequestManager</text>
</g>
<!-- \\SmartFactory\\LanguageManager -->
<g id="node24" class="node"><title>\\SmartFactory\\LanguageManager</title>
<polygon fill="none" stroke="black" points="559.5,-230 441.5,-230 441.5,-194 559.5,-194 559.5,-230"/>
<text text-anchor="middle" x="500.5" y="-209.2" font-family="Courier,monospace" font-size="11.00">LanguageManager</text>
</g>
<!-- \\SmartFactory\\LanguageManager&#45;&gt;\\SmartFactory\\Interfaces\\ILanguageManager -->
<g id="edge9" class="edge"><title>\\SmartFactory\\LanguageManager&#45;&gt;\\SmartFactory\\Interfaces\\ILanguageManager</title>
<path fill="none" stroke="black" stroke-dasharray="1,5" d="M441.41,-225.348C409.494,-232.682 369.641,-241.84 335.845,-249.606"/>
<polygon fill="none" stroke="black" points="334.99,-246.211 326.028,-251.862 336.557,-253.033 334.99,-246.211"/>
</g>
<!-- \\SmartFactory\\MessageManager -->
<g id="node25" class="node"><title>\\SmartFactory\\MessageManager</title>
<polygon fill="none" stroke="black" points="556,-176 445,-176 445,-140 556,-140 556,-176"/>
<text text-anchor="middle" x="500.5" y="-155.2" font-family="Courier,monospace" font-size="11.00">MessageManager</text>
</g>
<!-- \\SmartFactory\\MessageManager&#45;&gt;\\SmartFactory\\Interfaces\\IMessageManager -->
<g id="edge10" class="edge"><title>\\SmartFactory\\MessageManager&#45;&gt;\\SmartFactory\\Interfaces\\IMessageManager</title>
<path fill="none" stroke="black" stroke-dasharray="1,5" d="M444.996,-170.524C411.533,-178.214 368.392,-188.127 332.678,-196.334"/>
<polygon fill="none" stroke="black" points="331.778,-192.949 322.816,-198.6 333.346,-199.771 331.778,-192.949"/>
</g>
<!-- \\SmartFactory\\RecordsetManager -->
<g id="node26" class="node"><title>\\SmartFactory\\RecordsetManager</title>
<polygon fill="none" stroke="black" points="563,-122 438,-122 438,-86 563,-86 563,-122"/>
<text text-anchor="middle" x="500.5" y="-101.2" font-family="Courier,monospace" font-size="11.00">RecordsetManager</text>
</g>
<!-- \\SmartFactory\\RecordsetManager&#45;&gt;\\SmartFactory\\Interfaces\\IRecordsetManager -->
<g id="edge11" class="edge"><title>\\SmartFactory\\RecordsetManager&#45;&gt;\\SmartFactory\\Interfaces\\IRecordsetManager</title>
<path fill="none" stroke="black" stroke-dasharray="1,5" d="M437.757,-104C407.57,-104 370.992,-104 339.239,-104"/>
<polygon fill="none" stroke="black" points="339.113,-100.5 329.113,-104 339.113,-107.5 339.113,-100.5"/>
</g>
<!-- \\SmartFactory\\RuntimeSettingsManager -->
<g id="node27" class="node"><title>\\SmartFactory\\RuntimeSettingsManager</title>
<polygon fill="none" stroke="black" points="583,-284 418,-284 418,-248 583,-248 583,-284"/>
<text text-anchor="middle" x="500.5" y="-263.2" font-family="Courier,monospace" font-size="11.00">RuntimeSettingsManager</text>
</g>
<!-- \\SmartFactory\\RuntimeSettingsManager&#45;&gt;\\SmartFactory\\Interfaces\\ISettingsManager -->
<g id="edge12" class="edge"><title>\\SmartFactory\\RuntimeSettingsManager&#45;&gt;\\SmartFactory\\Interfaces\\ISettingsManager</title>
<path fill="none" stroke="black" stroke-dasharray="1,5" d="M420.922,-284.056C393.591,-290.337 363.093,-297.345 336.336,-303.493"/>
<polygon fill="none" stroke="black" points="335.241,-300.153 326.279,-305.804 336.809,-306.976 335.241,-300.153"/>
</g>
<!-- \\SmartFactory\\SessionManager -->
<g id="node28" class="node"><title>\\SmartFactory\\SessionManager</title>
<polygon fill="none" stroke="black" points="556,-922 445,-922 445,-886 556,-886 556,-922"/>
<text text-anchor="middle" x="500.5" y="-901.2" font-family="Courier,monospace" font-size="11.00">SessionManager</text>
</g>
<!-- \\SmartFactory\\SessionManager&#45;&gt;\\SmartFactory\\Interfaces\\ISessionManager -->
<g id="edge14" class="edge"><title>\\SmartFactory\\SessionManager&#45;&gt;\\SmartFactory\\Interfaces\\ISessionManager</title>
<path fill="none" stroke="black" stroke-dasharray="1,5" d="M444.801,-897.147C434.969,-893.841 425.484,-889.017 418,-882 353.609,-821.631 410.505,-761.807 354,-694 344.923,-683.107 332.828,-674.152 320.473,-666.983"/>
<polygon fill="none" stroke="black" points="321.925,-663.789 311.47,-662.077 318.576,-669.935 321.925,-663.789"/>
</g>
<!-- SessionHandler -->
<g id="node31" class="node"><title>SessionHandler</title>
<ellipse fill="none" stroke="black" cx="263.5" cy="-976" rx="67.6881" ry="18"/>
<text text-anchor="middle" x="263.5" y="-972.3" font-family="Times New Roman,serif" font-size="14.00" fill="gray">SessionHandler</text>
</g>
<!-- \\SmartFactory\\SessionManager&#45;&gt;SessionHandler -->
<g id="edge13" class="edge"><title>\\SmartFactory\\SessionManager&#45;&gt;SessionHandler</title>
<path fill="none" stroke="black" d="M444.996,-920.699C406.909,-932.368 356.285,-947.879 318.344,-959.503"/>
<polygon fill="none" stroke="black" points="317.031,-956.245 308.495,-962.521 319.082,-962.938 317.031,-956.245"/>
</g>
<!-- \\SmartFactory\\UserSettingsManager -->
<g id="node29" class="node"><title>\\SmartFactory\\UserSettingsManager</title>
<polygon fill="none" stroke="black" points="573,-338 428,-338 428,-302 573,-302 573,-338"/>
<text text-anchor="middle" x="500.5" y="-317.2" font-family="Courier,monospace" font-size="11.00">UserSettingsManager</text>
</g>
<!-- \\SmartFactory\\UserSettingsManager&#45;&gt;\\SmartFactory\\Interfaces\\ISettingsManager -->
<g id="edge15" class="edge"><title>\\SmartFactory\\UserSettingsManager&#45;&gt;\\SmartFactory\\Interfaces\\ISettingsManager</title>
<path fill="none" stroke="black" stroke-dasharray="1,5" d="M427.715,-320C398.737,-320 365.364,-320 336.376,-320"/>
<polygon fill="none" stroke="black" points="336.32,-316.5 326.32,-320 336.32,-323.5 336.32,-316.5"/>
</g>
<!-- \\SmartFactory\\XmlApiRequestManager -->
<g id="node30" class="node"><title>\\SmartFactory\\XmlApiRequestManager</title>
<polygon fill="none" stroke="black" points="576.5,-64 424.5,-64 424.5,-28 576.5,-28 576.5,-64"/>
<text text-anchor="start" x="466.5" y="-49.2" font-family="Courier,monospace" font-size="11.00">«abstract»</text>
<text text-anchor="start" x="432.5" y="-37.2" font-family="Courier,monospace" font-size="11.00">XmlApiRequestManager</text>
</g>
</g>
</svg>
