<?xml version="1.0" encoding="UTF-8" standalone="no"?>
<!DOCTYPE svg PUBLIC "-//W3C//DTD SVG 1.1//EN"
 "http://www.w3.org/Graphics/SVG/1.1/DTD/svg11.dtd">
<!-- Generated by graphviz version 2.38.0 (20140413.2041)
 -->
<!-- Title: G Pages: 1 -->
<svg width="588pt" height="1112pt"
 viewBox="0.00 0.00 588.00 1112.00" xmlns="http://www.w3.org/2000/svg" xmlns:xlink="http://www.w3.org/1999/xlink">
<g id="graph0" class="graph" transform="scale(1 1) rotate(0) translate(4 1108)">
<title>G</title>
<polygon fill="white" stroke="none" points="-4,4 -4,-1108 584,-1108 584,4 -4,4"/>
<g id="clust1" class="cluster"><title>cluster_Global</title>
<path fill="none" stroke="gray" d="M20,-8C20,-8 560,-8 560,-8 566,-8 572,-14 572,-20 572,-20 572,-1084 572,-1084 572,-1090 566,-1096 560,-1096 560,-1096 20,-1096 20,-1096 14,-1096 8,-1090 8,-1084 8,-1084 8,-20 8,-20 8,-14 14,-8 20,-8"/>
<text text-anchor="middle" x="290" y="-1083.2" font-family="Times New Roman,serif" font-size="11.00" fill="gray">Global</text>
</g>
<g id="clust2" class="cluster"><title>cluster_\SmartFactory</title>
<path fill="none" stroke="gray" d="M28,-16C28,-16 552,-16 552,-16 558,-16 564,-22 564,-28 564,-28 564,-958 564,-958 564,-964 558,-970 552,-970 552,-970 28,-970 28,-970 22,-970 16,-964 16,-958 16,-958 16,-28 16,-28 16,-22 22,-16 28,-16"/>
<text text-anchor="middle" x="290" y="-957.2" font-family="Times New Roman,serif" font-size="11.00" fill="gray">SmartFactory</text>
</g>
<g id="clust3" class="cluster"><title>cluster_\SmartFactory\DatabaseWorkers</title>
<path fill="none" stroke="gray" d="M212,-664C212,-664 525,-664 525,-664 531,-664 537,-670 537,-676 537,-676 537,-832 537,-832 537,-838 531,-844 525,-844 525,-844 212,-844 212,-844 206,-844 200,-838 200,-832 200,-832 200,-676 200,-676 200,-670 206,-664 212,-664"/>
<text text-anchor="middle" x="368.5" y="-831.2" font-family="Times New Roman,serif" font-size="11.00" fill="gray">DatabaseWorkers</text>
</g>
<g id="clust4" class="cluster"><title>cluster_\SmartFactory\Interfaces</title>
<path fill="none" stroke="gray" d="M36,-44C36,-44 315,-44 315,-44 321,-44 327,-50 327,-56 327,-56 327,-644 327,-644 327,-650 321,-656 315,-656 315,-656 36,-656 36,-656 30,-656 24,-650 24,-644 24,-644 24,-56 24,-56 24,-50 30,-44 36,-44"/>
<text text-anchor="middle" x="175.5" y="-643.2" font-family="Times New Roman,serif" font-size="11.00" fill="gray">Interfaces</text>
</g>
<!-- \\SmartFactory\\DatabaseWorkers\\DBWorker -->
<g id="node1" class="node"><title>\\SmartFactory\\DatabaseWorkers\\DBWorker</title>
<polygon fill="none" stroke="black" points="292,-762 208,-762 208,-726 292,-726 292,-762"/>
<text text-anchor="start" x="216" y="-747.2" font-family="Courier,monospace" font-size="11.00">«abstract»</text>
<text text-anchor="start" x="222.5" y="-735.2" font-family="Courier,monospace" font-size="11.00">DBWorker</text>
</g>
<!-- \\SmartFactory\\Interfaces\\IInitable -->
<g id="node8" class="node"><title>\\SmartFactory\\Interfaces\\IInitable</title>
<polygon fill="none" stroke="black" points="109,-412 32,-412 32,-376 109,-376 109,-412"/>
<text text-anchor="middle" x="70.5" y="-391.2" font-family="Courier,monospace" font-size="11.00">IInitable</text>
</g>
<!-- \\SmartFactory\\DatabaseWorkers\\DBWorker&#45;&gt;\\SmartFactory\\Interfaces\\IInitable -->
<g id="edge2" class="edge"><title>\\SmartFactory\\DatabaseWorkers\\DBWorker&#45;&gt;\\SmartFactory\\Interfaces\\IInitable</title>
<path fill="none" stroke="black" stroke-dasharray="1,5" d="M231.656,-725.818C216.797,-709.541 195.553,-684.527 181,-660 132.703,-578.603 95.9031,-471.94 80.047,-422.031"/>
<polygon fill="none" stroke="black" points="83.3182,-420.765 76.9848,-412.272 76.6392,-422.861 83.3182,-420.765"/>
</g>
<!-- \\SmartFactory\\DatabaseWorkers\\MSSQL_DBWorker -->
<g id="node2" class="node"><title>\\SmartFactory\\DatabaseWorkers\\MSSQL_DBWorker</title>
<polygon fill="none" stroke="black" points="529,-816 418,-816 418,-780 529,-780 529,-816"/>
<text text-anchor="middle" x="473.5" y="-795.2" font-family="Courier,monospace" font-size="11.00">MSSQL_DBWorker</text>
</g>
<!-- \\SmartFactory\\DatabaseWorkers\\MSSQL_DBWorker&#45;&gt;\\SmartFactory\\DatabaseWorkers\\DBWorker -->
<g id="edge3" class="edge"><title>\\SmartFactory\\DatabaseWorkers\\MSSQL_DBWorker&#45;&gt;\\SmartFactory\\DatabaseWorkers\\DBWorker</title>
<path fill="none" stroke="black" d="M417.747,-784.652C382.417,-776.039 336.77,-764.91 302.17,-756.475"/>
<polygon fill="none" stroke="black" points="302.811,-753.029 292.267,-754.061 301.153,-759.83 302.811,-753.029"/>
</g>
<!-- \\SmartFactory\\DatabaseWorkers\\MySQL_DBWorker -->
<g id="node3" class="node"><title>\\SmartFactory\\DatabaseWorkers\\MySQL_DBWorker</title>
<polygon fill="none" stroke="black" points="529,-762 418,-762 418,-726 529,-726 529,-762"/>
<text text-anchor="middle" x="473.5" y="-741.2" font-family="Courier,monospace" font-size="11.00">MySQL_DBWorker</text>
</g>
<!-- \\SmartFactory\\DatabaseWorkers\\MySQL_DBWorker&#45;&gt;\\SmartFactory\\DatabaseWorkers\\DBWorker -->
<g id="edge4" class="edge"><title>\\SmartFactory\\DatabaseWorkers\\MySQL_DBWorker&#45;&gt;\\SmartFactory\\DatabaseWorkers\\DBWorker</title>
<path fill="none" stroke="black" d="M417.747,-744C382.569,-744 337.162,-744 302.616,-744"/>
<polygon fill="none" stroke="black" points="302.267,-740.5 292.267,-744 302.267,-747.5 302.267,-740.5"/>
</g>
<!-- \\SmartFactory\\DatabaseWorkers\\ShardManager -->
<g id="node4" class="node"><title>\\SmartFactory\\DatabaseWorkers\\ShardManager</title>
<polygon fill="none" stroke="black" points="522.5,-708 424.5,-708 424.5,-672 522.5,-672 522.5,-708"/>
<text text-anchor="middle" x="473.5" y="-687.2" font-family="Courier,monospace" font-size="11.00">ShardManager</text>
</g>
<!-- \\SmartFactory\\Interfaces\\IShardManager -->
<g id="node16" class="node"><title>\\SmartFactory\\Interfaces\\IShardManager</title>
<polygon fill="none" stroke="black" points="302,-574 198,-574 198,-538 302,-538 302,-574"/>
<text text-anchor="middle" x="250" y="-553.2" font-family="Courier,monospace" font-size="11.00">IShardManager</text>
</g>
<!-- \\SmartFactory\\DatabaseWorkers\\ShardManager&#45;&gt;\\SmartFactory\\Interfaces\\IShardManager -->
<g id="edge5" class="edge"><title>\\SmartFactory\\DatabaseWorkers\\ShardManager&#45;&gt;\\SmartFactory\\Interfaces\\IShardManager</title>
<path fill="none" stroke="black" stroke-dasharray="1,5" d="M424.101,-682.535C412.604,-679.293 400.834,-674.649 391,-668 351.825,-641.512 365.116,-610.989 327,-583 322.228,-579.496 316.959,-576.413 311.488,-573.707"/>
<polygon fill="none" stroke="black" points="312.696,-570.413 302.141,-569.502 309.825,-576.797 312.696,-570.413"/>
</g>
<!-- \\SmartFactory\\Interfaces\\IDebugProfiler -->
<g id="node5" class="node"><title>\\SmartFactory\\Interfaces\\IDebugProfiler</title>
<polygon fill="none" stroke="black" points="305.5,-520 194.5,-520 194.5,-484 305.5,-484 305.5,-520"/>
<text text-anchor="middle" x="250" y="-499.2" font-family="Courier,monospace" font-size="11.00">IDebugProfiler</text>
</g>
<!-- \\SmartFactory\\Interfaces\\IDebugProfiler&#45;&gt;\\SmartFactory\\Interfaces\\IInitable -->
<g id="edge19" class="edge"><title>\\SmartFactory\\Interfaces\\IDebugProfiler&#45;&gt;\\SmartFactory\\Interfaces\\IInitable</title>
<path fill="none" stroke="black" d="M198.913,-483.844C192.767,-481.113 186.662,-478.148 181,-475 151.991,-458.871 121.873,-436.077 100.584,-418.777"/>
<polygon fill="none" stroke="black" points="102.542,-415.856 92.596,-412.206 98.0954,-421.262 102.542,-415.856"/>
</g>
<!-- \\SmartFactory\\Interfaces\\IErrorHandler -->
<g id="node6" class="node"><title>\\SmartFactory\\Interfaces\\IErrorHandler</title>
<polygon fill="none" stroke="black" points="302,-466 198,-466 198,-430 302,-430 302,-466"/>
<text text-anchor="middle" x="250" y="-445.2" font-family="Courier,monospace" font-size="11.00">IErrorHandler</text>
</g>
<!-- \\SmartFactory\\Interfaces\\IErrorHandler&#45;&gt;\\SmartFactory\\Interfaces\\IInitable -->
<g id="edge20" class="edge"><title>\\SmartFactory\\Interfaces\\IErrorHandler&#45;&gt;\\SmartFactory\\Interfaces\\IInitable</title>
<path fill="none" stroke="black" d="M197.66,-432.381C172.823,-424.825 143.201,-415.813 118.904,-408.421"/>
<polygon fill="none" stroke="black" points="119.776,-405.029 109.191,-405.466 117.739,-411.726 119.776,-405.029"/>
</g>
<!-- \\SmartFactory\\Interfaces\\IEventManager -->
<g id="node7" class="node"><title>\\SmartFactory\\Interfaces\\IEventManager</title>
<polygon fill="none" stroke="black" points="302,-412 198,-412 198,-376 302,-376 302,-412"/>
<text text-anchor="middle" x="250" y="-391.2" font-family="Courier,monospace" font-size="11.00">IEventManager</text>
</g>
<!-- \\SmartFactory\\Interfaces\\ILanguageManager -->
<g id="node9" class="node"><title>\\SmartFactory\\Interfaces\\ILanguageManager</title>
<polygon fill="none" stroke="black" points="312.5,-358 187.5,-358 187.5,-322 312.5,-322 312.5,-358"/>
<text text-anchor="middle" x="250" y="-337.2" font-family="Courier,monospace" font-size="11.00">ILanguageManager</text>
</g>
<!-- \\SmartFactory\\Interfaces\\ILanguageManager&#45;&gt;\\SmartFactory\\Interfaces\\IInitable -->
<g id="edge21" class="edge"><title>\\SmartFactory\\Interfaces\\ILanguageManager&#45;&gt;\\SmartFactory\\Interfaces\\IInitable</title>
<path fill="none" stroke="black" d="M189.401,-358.131C166.431,-365.119 140.531,-372.999 118.868,-379.589"/>
<polygon fill="none" stroke="black" points="117.787,-376.26 109.239,-382.519 119.825,-382.957 117.787,-376.26"/>
</g>
<!-- \\SmartFactory\\Interfaces\\IMessageManager -->
<g id="node10" class="node"><title>\\SmartFactory\\Interfaces\\IMessageManager</title>
<polygon fill="none" stroke="black" points="309,-250 191,-250 191,-214 309,-214 309,-250"/>
<text text-anchor="middle" x="250" y="-229.2" font-family="Courier,monospace" font-size="11.00">IMessageManager</text>
</g>
<!-- \\SmartFactory\\Interfaces\\IMessageManager&#45;&gt;\\SmartFactory\\Interfaces\\IInitable -->
<g id="edge22" class="edge"><title>\\SmartFactory\\Interfaces\\IMessageManager&#45;&gt;\\SmartFactory\\Interfaces\\IInitable</title>
<path fill="none" stroke="black" d="M195.602,-250.073C190.469,-252.722 185.504,-255.691 181,-259 140.447,-288.795 106.265,-337.053 87.3604,-367.08"/>
<polygon fill="none" stroke="black" points="84.2688,-365.425 81.9937,-375.773 90.2251,-369.102 84.2688,-365.425"/>
</g>
<!-- \\SmartFactory\\Interfaces\\IRecordsetManager -->
<g id="node11" class="node"><title>\\SmartFactory\\Interfaces\\IRecordsetManager</title>
<polygon fill="none" stroke="black" points="315.5,-196 184.5,-196 184.5,-160 315.5,-160 315.5,-196"/>
<text text-anchor="middle" x="250" y="-175.2" font-family="Courier,monospace" font-size="11.00">IRecordsetManager</text>
</g>
<!-- \\SmartFactory\\Interfaces\\IRequestHandler -->
<g id="node12" class="node"><title>\\SmartFactory\\Interfaces\\IRequestHandler</title>
<polygon fill="none" stroke="black" points="309,-304 191,-304 191,-268 309,-268 309,-304"/>
<text text-anchor="middle" x="250" y="-283.2" font-family="Courier,monospace" font-size="11.00">IRequestHandler</text>
</g>
<!-- \\SmartFactory\\Interfaces\\ISessionManager -->
<g id="node13" class="node"><title>\\SmartFactory\\Interfaces\\ISessionManager</title>
<polygon fill="none" stroke="black" points="309,-628 191,-628 191,-592 309,-592 309,-628"/>
<text text-anchor="middle" x="250" y="-607.2" font-family="Courier,monospace" font-size="11.00">ISessionManager</text>
</g>
<!-- \\SmartFactory\\Interfaces\\ISettingsManager -->
<g id="node14" class="node"><title>\\SmartFactory\\Interfaces\\ISettingsManager</title>
<polygon fill="none" stroke="black" points="312.5,-88 187.5,-88 187.5,-52 312.5,-52 312.5,-88"/>
<text text-anchor="middle" x="250" y="-67.2" font-family="Courier,monospace" font-size="11.00">ISettingsManager</text>
</g>
<!-- \\SmartFactory\\Interfaces\\ISettingsManager&#45;&gt;\\SmartFactory\\Interfaces\\IInitable -->
<g id="edge23" class="edge"><title>\\SmartFactory\\Interfaces\\ISettingsManager&#45;&gt;\\SmartFactory\\Interfaces\\IInitable</title>
<path fill="none" stroke="black" d="M192.056,-88.0852C188.036,-90.6802 184.282,-93.6359 181,-97 105.651,-174.237 81.4703,-307.707 74.2922,-365.716"/>
<polygon fill="none" stroke="black" points="70.78,-365.621 73.1071,-375.957 77.7336,-366.425 70.78,-365.621"/>
</g>
<!-- \\SmartFactory\\Interfaces\\ISettingsValidator -->
<g id="node15" class="node"><title>\\SmartFactory\\Interfaces\\ISettingsValidator</title>
<polygon fill="none" stroke="black" points="319,-142 181,-142 181,-106 319,-106 319,-142"/>
<text text-anchor="middle" x="250" y="-121.2" font-family="Courier,monospace" font-size="11.00">ISettingsValidator</text>
</g>
<!-- \\SmartFactory\\ConfigSettingsManager -->
<g id="node17" class="node"><title>\\SmartFactory\\ConfigSettingsManager</title>
<polygon fill="none" stroke="black" points="552.5,-168 394.5,-168 394.5,-132 552.5,-132 552.5,-168"/>
<text text-anchor="middle" x="473.5" y="-147.2" font-family="Courier,monospace" font-size="11.00">ConfigSettingsManager</text>
</g>
<!-- \\SmartFactory\\ConfigSettingsManager&#45;&gt;\\SmartFactory\\Interfaces\\ISettingsManager -->
<g id="edge1" class="edge"><title>\\SmartFactory\\ConfigSettingsManager&#45;&gt;\\SmartFactory\\Interfaces\\ISettingsManager</title>
<path fill="none" stroke="black" stroke-dasharray="1,5" d="M416.213,-131.892C407.732,-129.008 399.112,-125.988 391,-123 362.19,-112.389 355.695,-107.919 327,-97 322.295,-95.2095 317.412,-93.3894 312.495,-91.5833"/>
<polygon fill="none" stroke="black" points="313.627,-88.2708 303.033,-88.1388 311.233,-94.8485 313.627,-88.2708"/>
</g>
<!-- \\SmartFactory\\DebugProfiler -->
<g id="node18" class="node"><title>\\SmartFactory\\DebugProfiler</title>
<polygon fill="none" stroke="black" points="525.5,-654 421.5,-654 421.5,-618 525.5,-618 525.5,-654"/>
<text text-anchor="middle" x="473.5" y="-633.2" font-family="Courier,monospace" font-size="11.00">DebugProfiler</text>
</g>
<!-- \\SmartFactory\\DebugProfiler&#45;&gt;\\SmartFactory\\Interfaces\\IDebugProfiler -->
<g id="edge6" class="edge"><title>\\SmartFactory\\DebugProfiler&#45;&gt;\\SmartFactory\\Interfaces\\IDebugProfiler</title>
<path fill="none" stroke="black" stroke-dasharray="1,5" d="M421.221,-624.017C410.683,-620.215 400.054,-615.301 391,-609 353.626,-582.991 364.093,-555.408 327,-529 323.14,-526.252 318.972,-523.758 314.645,-521.5"/>
<polygon fill="none" stroke="black" points="316.122,-518.326 305.588,-517.189 313.113,-524.647 316.122,-518.326"/>
</g>
<!-- \\SmartFactory\\ErrorHandler -->
<g id="node19" class="node"><title>\\SmartFactory\\ErrorHandler</title>
<polygon fill="none" stroke="black" points="522.5,-600 424.5,-600 424.5,-564 522.5,-564 522.5,-600"/>
<text text-anchor="middle" x="473.5" y="-579.2" font-family="Courier,monospace" font-size="11.00">ErrorHandler</text>
</g>
<!-- \\SmartFactory\\ErrorHandler&#45;&gt;\\SmartFactory\\Interfaces\\IErrorHandler -->
<g id="edge7" class="edge"><title>\\SmartFactory\\ErrorHandler&#45;&gt;\\SmartFactory\\Interfaces\\IErrorHandler</title>
<path fill="none" stroke="black" stroke-dasharray="1,5" d="M424.207,-571.067C412.708,-567.132 400.91,-561.897 391,-555 353.626,-528.991 364.093,-501.408 327,-475 322.177,-471.566 316.874,-468.53 311.381,-465.854"/>
<polygon fill="none" stroke="black" points="312.568,-462.552 302.009,-461.684 309.723,-468.947 312.568,-462.552"/>
</g>
<!-- \\SmartFactory\\EventManager -->
<g id="node20" class="node"><title>\\SmartFactory\\EventManager</title>
<polygon fill="none" stroke="black" points="522.5,-546 424.5,-546 424.5,-510 522.5,-510 522.5,-546"/>
<text text-anchor="middle" x="473.5" y="-525.2" font-family="Courier,monospace" font-size="11.00">EventManager</text>
</g>
<!-- \\SmartFactory\\EventManager&#45;&gt;\\SmartFactory\\Interfaces\\IEventManager -->
<g id="edge8" class="edge"><title>\\SmartFactory\\EventManager&#45;&gt;\\SmartFactory\\Interfaces\\IEventManager</title>
<path fill="none" stroke="black" stroke-dasharray="1,5" d="M424.207,-517.067C412.708,-513.132 400.91,-507.897 391,-501 353.626,-474.991 364.093,-447.408 327,-421 322.177,-417.566 316.874,-414.53 311.381,-411.854"/>
<polygon fill="none" stroke="black" points="312.568,-408.552 302.009,-407.684 309.723,-414.947 312.568,-408.552"/>
</g>
<!-- \\SmartFactory\\JsonRequestHandler -->
<g id="node21" class="node"><title>\\SmartFactory\\JsonRequestHandler</title>
<polygon fill="none" stroke="black" points="542.5,-438 404.5,-438 404.5,-402 542.5,-402 542.5,-438"/>
<text text-anchor="middle" x="473.5" y="-417.2" font-family="Courier,monospace" font-size="11.00">JsonRequestHandler</text>
</g>
<!-- \\SmartFactory\\JsonRequestHandler&#45;&gt;\\SmartFactory\\Interfaces\\IRequestHandler -->
<g id="edge9" class="edge"><title>\\SmartFactory\\JsonRequestHandler&#45;&gt;\\SmartFactory\\Interfaces\\IRequestHandler</title>
<path fill="none" stroke="black" stroke-dasharray="1,5" d="M406.383,-401.847C400.981,-399.256 395.771,-396.321 391,-393 353.626,-366.991 364.093,-339.408 327,-313 324.177,-310.99 321.189,-309.116 318.095,-307.371"/>
<polygon fill="none" stroke="black" points="319.639,-304.23 309.143,-302.788 316.449,-310.461 319.639,-304.23"/>
</g>
<!-- \\SmartFactory\\LanguageManager -->
<g id="node22" class="node"><title>\\SmartFactory\\LanguageManager</title>
<polygon fill="none" stroke="black" points="532.5,-492 414.5,-492 414.5,-456 532.5,-456 532.5,-492"/>
<text text-anchor="middle" x="473.5" y="-471.2" font-family="Courier,monospace" font-size="11.00">LanguageManager</text>
</g>
<!-- \\SmartFactory\\LanguageManager&#45;&gt;\\SmartFactory\\Interfaces\\ILanguageManager -->
<g id="edge10" class="edge"><title>\\SmartFactory\\LanguageManager&#45;&gt;\\SmartFactory\\Interfaces\\ILanguageManager</title>
<path fill="none" stroke="black" stroke-dasharray="1,5" d="M414.389,-459.392C406.16,-456.025 398.096,-451.938 391,-447 353.626,-420.991 364.093,-393.408 327,-367 325.1,-365.647 323.126,-364.356 321.094,-363.125"/>
<polygon fill="none" stroke="black" points="322.335,-359.815 311.88,-358.099 318.983,-365.96 322.335,-359.815"/>
</g>
<!-- \\SmartFactory\\MessageManager -->
<g id="node23" class="node"><title>\\SmartFactory\\MessageManager</title>
<polygon fill="none" stroke="black" points="529,-276 418,-276 418,-240 529,-240 529,-276"/>
<text text-anchor="middle" x="473.5" y="-255.2" font-family="Courier,monospace" font-size="11.00">MessageManager</text>
</g>
<!-- \\SmartFactory\\MessageManager&#45;&gt;\\SmartFactory\\Interfaces\\IMessageManager -->
<g id="edge11" class="edge"><title>\\SmartFactory\\MessageManager&#45;&gt;\\SmartFactory\\Interfaces\\IMessageManager</title>
<path fill="none" stroke="black" stroke-dasharray="1,5" d="M417.747,-251.573C388.038,-248.086 351.033,-243.742 319.437,-240.033"/>
<polygon fill="none" stroke="black" points="319.724,-236.543 309.384,-238.853 318.908,-243.495 319.724,-236.543"/>
</g>
<!-- \\SmartFactory\\ObjectFactory -->
<g id="node24" class="node"><title>\\SmartFactory\\ObjectFactory</title>
<polygon fill="none" stroke="black" points="525.5,-384 421.5,-384 421.5,-348 525.5,-348 525.5,-384"/>
<text text-anchor="middle" x="473.5" y="-363.2" font-family="Courier,monospace" font-size="11.00">ObjectFactory</text>
</g>
<!-- \\SmartFactory\\RecordsetManager -->
<g id="node25" class="node"><title>\\SmartFactory\\RecordsetManager</title>
<polygon fill="none" stroke="black" points="536,-222 411,-222 411,-186 536,-186 536,-222"/>
<text text-anchor="middle" x="473.5" y="-201.2" font-family="Courier,monospace" font-size="11.00">RecordsetManager</text>
</g>
<!-- \\SmartFactory\\RecordsetManager&#45;&gt;\\SmartFactory\\Interfaces\\IRecordsetManager -->
<g id="edge12" class="edge"><title>\\SmartFactory\\RecordsetManager&#45;&gt;\\SmartFactory\\Interfaces\\IRecordsetManager</title>
<path fill="none" stroke="black" stroke-dasharray="1,5" d="M410.8,-196.758C384.464,-193.666 353.491,-190.031 325.86,-186.787"/>
<polygon fill="none" stroke="black" points="326.186,-183.302 315.846,-185.612 325.37,-190.254 326.186,-183.302"/>
</g>
<!-- \\SmartFactory\\RuntimeSettingsManager -->
<g id="node26" class="node"><title>\\SmartFactory\\RuntimeSettingsManager</title>
<polygon fill="none" stroke="black" points="556,-60 391,-60 391,-24 556,-24 556,-60"/>
<text text-anchor="middle" x="473.5" y="-39.2" font-family="Courier,monospace" font-size="11.00">RuntimeSettingsManager</text>
</g>
<!-- \\SmartFactory\\RuntimeSettingsManager&#45;&gt;\\SmartFactory\\Interfaces\\ISettingsManager -->
<g id="edge13" class="edge"><title>\\SmartFactory\\RuntimeSettingsManager&#45;&gt;\\SmartFactory\\Interfaces\\ISettingsManager</title>
<path fill="none" stroke="black" stroke-dasharray="1,5" d="M390.965,-52.3069C368.603,-55.1338 344.529,-58.177 322.759,-60.9289"/>
<polygon fill="none" stroke="black" points="322.087,-57.4859 312.605,-62.2125 322.965,-64.4307 322.087,-57.4859"/>
</g>
<!-- \\SmartFactory\\SessionManager -->
<g id="node27" class="node"><title>\\SmartFactory\\SessionManager</title>
<polygon fill="none" stroke="black" points="529,-888 418,-888 418,-852 529,-852 529,-888"/>
<text text-anchor="middle" x="473.5" y="-867.2" font-family="Courier,monospace" font-size="11.00">SessionManager</text>
</g>
<!-- \\SmartFactory\\SessionManager&#45;&gt;\\SmartFactory\\Interfaces\\ISessionManager -->
<g id="edge15" class="edge"><title>\\SmartFactory\\SessionManager&#45;&gt;\\SmartFactory\\Interfaces\\ISessionManager</title>
<path fill="none" stroke="black" stroke-dasharray="1,5" d="M417.801,-863.147C407.969,-859.841 398.484,-855.017 391,-848 326.609,-787.631 381.012,-729.809 327,-660 319.069,-649.749 308.413,-640.932 297.594,-633.684"/>
<polygon fill="none" stroke="black" points="299.255,-630.593 288.932,-628.209 295.515,-636.51 299.255,-630.593"/>
</g>
<!-- SessionHandler -->
<g id="node31" class="node"><title>SessionHandler</title>
<ellipse fill="none" stroke="black" cx="250" cy="-996" rx="67.6881" ry="18"/>
<text text-anchor="middle" x="250" y="-992.3" font-family="Times New Roman,serif" font-size="14.00" fill="gray">SessionHandler</text>
</g>
<!-- \\SmartFactory\\SessionManager&#45;&gt;SessionHandler -->
<g id="edge14" class="edge"><title>\\SmartFactory\\SessionManager&#45;&gt;SessionHandler</title>
<path fill="none" stroke="black" d="M417.67,-885.68C408.574,-888.981 399.382,-892.766 391,-897 349.341,-918.041 306.199,-950.442 279.015,-972.396"/>
<polygon fill="none" stroke="black" points="276.643,-969.814 271.11,-978.85 281.07,-975.237 276.643,-969.814"/>
</g>
<!-- \\SmartFactory\\SmartException -->
<g id="node28" class="node"><title>\\SmartFactory\\SmartException</title>
<polygon fill="none" stroke="black" points="529,-942 418,-942 418,-906 529,-906 529,-942"/>
<text text-anchor="middle" x="473.5" y="-921.2" font-family="Courier,monospace" font-size="11.00">SmartException</text>
</g>
<!-- Exception -->
<g id="node32" class="node"><title>Exception</title>
<ellipse fill="none" stroke="black" cx="250" cy="-1050" rx="47.3916" ry="18"/>
<text text-anchor="middle" x="250" y="-1046.3" font-family="Times New Roman,serif" font-size="14.00" fill="gray">Exception</text>
</g>
<!-- \\SmartFactory\\SmartException&#45;&gt;Exception -->
<g id="edge16" class="edge"><title>\\SmartFactory\\SmartException&#45;&gt;Exception</title>
<path fill="none" stroke="black" d="M449.955,-942.056C422.285,-963.557 373.322,-999.504 327,-1023 317.631,-1027.75 307.226,-1032.04 297.198,-1035.72"/>
<polygon fill="none" stroke="black" points="296.004,-1032.43 287.743,-1039.07 298.338,-1039.03 296.004,-1032.43"/>
</g>
<!-- \\SmartFactory\\UserSettingsManager -->
<g id="node29" class="node"><title>\\SmartFactory\\UserSettingsManager</title>
<polygon fill="none" stroke="black" points="546,-114 401,-114 401,-78 546,-78 546,-114"/>
<text text-anchor="middle" x="473.5" y="-93.2" font-family="Courier,monospace" font-size="11.00">UserSettingsManager</text>
</g>
<!-- \\SmartFactory\\UserSettingsManager&#45;&gt;\\SmartFactory\\Interfaces\\ISettingsManager -->
<g id="edge17" class="edge"><title>\\SmartFactory\\UserSettingsManager&#45;&gt;\\SmartFactory\\Interfaces\\ISettingsManager</title>
<path fill="none" stroke="black" stroke-dasharray="1,5" d="M400.891,-87.5945C375.896,-84.6605 347.848,-81.3682 322.835,-78.4321"/>
<polygon fill="none" stroke="black" points="323.024,-74.9304 312.685,-77.2406 322.208,-81.8827 323.024,-74.9304"/>
</g>
<!-- \\SmartFactory\\XmlRequestHandler -->
<g id="node30" class="node"><title>\\SmartFactory\\XmlRequestHandler</title>
<polygon fill="none" stroke="black" points="539,-330 408,-330 408,-294 539,-294 539,-330"/>
<text text-anchor="start" x="439.5" y="-315.2" font-family="Courier,monospace" font-size="11.00">«abstract»</text>
<text text-anchor="start" x="416" y="-303.2" font-family="Courier,monospace" font-size="11.00">XmlRequestHandler</text>
</g>
<!-- \\SmartFactory\\XmlRequestHandler&#45;&gt;\\SmartFactory\\Interfaces\\IRequestHandler -->
<g id="edge18" class="edge"><title>\\SmartFactory\\XmlRequestHandler&#45;&gt;\\SmartFactory\\Interfaces\\IRequestHandler</title>
<path fill="none" stroke="black" stroke-dasharray="1,5" d="M407.838,-304.41C380.088,-301.153 347.641,-297.344 319.482,-294.039"/>
<polygon fill="none" stroke="black" points="319.659,-290.535 309.319,-292.846 318.842,-297.488 319.659,-290.535"/>
</g>
</g>
</svg>
